<svg xmlns="http://www.w3.org/2000/svg" width="20" height="20" viewBox="0 0 20 20"><defs><style>.a{fill:#383b3d;}</style></defs><path class="a" d="M10,20A10,10,0,1,1,20,10,10.029,10.029,0,0,1,10,20ZM10,1.667A8.333,8.333,0,1,0,18.333,10,8.358,8.358,0,0,0,10,1.667Z"/><path class="a" d="M12,16A5,5,0,0,1,12,6a4.818,4.818,0,0,1,3,1,.9.9,0,0,1,.167,1.167A.9.9,0,0,1,14,8.333a3.391,3.391,0,0,0-2-.667,3.333,3.333,0,1,0,0,6.667,3.391,3.391,0,0,0,2-.667A.833.833,0,0,1,15,15,4.818,4.818,0,0,1,12,16Z" transform="translate(-1.167 -1)"/><path class="a" d="M11.667,12.667H5.833a.833.833,0,1,1,0-1.667h5.833a.833.833,0,0,1,0,1.667Z" transform="translate(-0.833 -1.833)"/></svg>