<svg xmlns="http://www.w3.org/2000/svg" xmlns:xlink="http://www.w3.org/1999/xlink" width="224" height="202" viewBox="0 0 224 202"><defs><style>.a{fill:#fff;}.b{fill:#231f20;}.c{fill:#d1d3d4;}.d{fill:#e6e7e8;}.e{fill:#ffe01b;}.f{filter:url(#a);}</style><filter id="a" x="0" y="0" width="224" height="202" filterUnits="userSpaceOnUse"><feOffset dy="3" input="SourceAlpha"/><feGaussianBlur stdDeviation="3" result="b"/><feFlood flood-color="#f9f9f9"/><feComposite operator="in" in2="b"/><feComposite in="SourceGraphic"/></filter></defs><g transform="translate(-39 -498)"><g class="f" transform="matrix(1, 0, 0, 1, 39, 498)"><rect class="a" width="206" height="184" rx="4" transform="translate(9 6)"/></g><g transform="translate(-4.69 499.935)"><path class="b" d="M212.214,216.75V235.4a5.112,5.112,0,0,1-3.033,4.675,61.257,61.257,0,0,1-47.777,0,5.112,5.112,0,0,1-3.033-4.675V216.75Z" transform="translate(-34.849 -84.389)"/><path class="b" d="M185.041,244.969a59.075,59.075,0,0,1-24-4.872,5.406,5.406,0,0,1-3.208-4.942V216.509a.3.3,0,0,1,.295-.289h53.844a.3.3,0,0,1,.295.289v18.646a5.4,5.4,0,0,1-3.213,4.942A59.065,59.065,0,0,1,185.041,244.969ZM158.414,216.8v18.352a4.806,4.806,0,0,0,2.864,4.4,60.925,60.925,0,0,0,47.537,0,4.806,4.806,0,0,0,2.859-4.4V216.8Z" transform="translate(-34.604 -84.148)"/><path class="a" d="M219.142,96.615c0,25.929-22.639,66.205-68.458,66.205S82.22,122.544,82.22,96.615,112.873,49.7,150.684,49.7,219.142,70.692,219.142,96.615Z" transform="translate(-0.241 -8.469)"/><path class="b" d="M150.456,162.857c-26.065,0-42.458-12.765-51.623-23.458-10.556-12.34-17.113-28.815-17.113-43,0-26.033,30.833-47.215,68.736-47.215S219.193,70.363,219.193,96.4c0,14.184-6.546,30.664-17.113,43C192.915,150.092,176.522,162.857,150.456,162.857Zm0-113.148c-37.6,0-68.191,20.937-68.191,46.67,0,14.064,6.508,30.4,16.982,42.649,9.088,10.621,25.351,23.283,51.209,23.283s42.115-12.662,51.2-23.283c10.474-12.247,16.982-28.586,16.982-42.649C218.642,70.647,188.054,49.709,150.456,49.709Z" transform="translate(-0.014 -8.233)"/><path class="a" d="M219.146,98.068c0,25.923-30.648,46.915-68.464,46.915a92.67,92.67,0,0,1-36.839-7.37,72.683,72.683,0,0,1-8.368-4.326C91.22,124.7,82.23,112.11,82.23,98.068c0-25.929,30.648-46.948,68.453-46.948S219.146,72.139,219.146,98.068Z" transform="translate(-0.245 -9.114)"/><path class="b" d="M150.456,145.056a92.775,92.775,0,0,1-36.949-7.392,74.227,74.227,0,0,1-8.4-4.364C90.251,124.332,81.73,111.4,81.73,97.841c0-26.038,30.828-47.221,68.736-47.221S219.2,71.8,219.2,97.841,188.359,145.056,150.456,145.056Zm0-93.891c-37.6,0-68.191,20.937-68.191,46.675,0,13.387,8.423,26.147,23.114,35.012a72.215,72.215,0,0,0,8.336,4.31,92.181,92.181,0,0,0,36.73,7.348c37.6,0,68.191-20.937,68.191-46.67s-30.577-46.675-68.18-46.675Z" transform="translate(-0.018 -8.887)"/><path class="a" d="M151.452,155.235a.818.818,0,1,1,0-1.637,34.533,34.533,0,0,0,10.452-1.975c2.673-.944,6-2.728,6.688-5.75a3.4,3.4,0,0,0,.044-1.457c-.409-1.969-2.875-2.891-5.057-3.7l-.4-.153a8.277,8.277,0,0,1-4.55-3.819,3.535,3.535,0,0,1-.027-2.853,6.126,6.126,0,0,1,2.237-2.395c.251-.185.5-.365.731-.546.769-.633,1.337-1.637.955-2.258a2.079,2.079,0,0,0-.867-.622,15.314,15.314,0,0,0-3.54-.911,24.58,24.58,0,0,1-2.646-.546c-2.182-.633-4.752-2.335-4.866-5.046-.109-2.52,1.975-4.713,5.717-6l.278-.093c2.242-.78,4.79-1.669,5.526-3.682a7.094,7.094,0,0,0,.295-1.309c.06-.355.12-.726.218-1.091,1.02-3.917,5.21-5.854,8.27-7.266s6.2-3.028,9.187-4.73a9.217,9.217,0,0,0,3.333-2.679,9.7,9.7,0,0,0,1.053-2.788c.087-.333.18-.671.278-1a6.04,6.04,0,0,1,2.728-3.911,3.524,3.524,0,0,1,3.12,0,2.63,2.63,0,0,1,1.473,1.9.829.829,0,1,1-1.637.267,1.015,1.015,0,0,0-.589-.709,1.871,1.871,0,0,0-1.637,0,4.553,4.553,0,0,0-1.937,2.929c-.093.316-.18.633-.262.955a11.009,11.009,0,0,1-1.26,3.273,10.525,10.525,0,0,1-3.9,3.208c-3.028,1.729-6.159,3.344-9.312,4.8-3.584,1.637-6.612,3.273-7.37,6.186a9.53,9.53,0,0,0-.191.955,8.82,8.82,0,0,1-.371,1.6c-1,2.728-4.07,3.819-6.546,4.664l-.273.1c-1.091.387-4.73,1.849-4.621,4.4.071,1.729,1.9,3.028,3.688,3.546a22.369,22.369,0,0,0,2.466.518,16.18,16.18,0,0,1,3.928,1.026,3.546,3.546,0,0,1,1.648,1.113c.955,1.506,0,3.339-1.293,4.4-.256.213-.546.415-.807.616a4.746,4.746,0,0,0-1.7,1.713,1.9,1.9,0,0,0,0,1.571,6.57,6.57,0,0,0,3.622,2.957l.393.147c2.449.911,5.493,2.051,6.088,4.91a5.046,5.046,0,0,1-.055,2.149c-.671,2.984-3.344,5.384-7.73,6.939a36.431,36.431,0,0,1-10.949,2.068Z" transform="translate(-31.319 -25.263)"/><path class="c" d="M151.226,155.225a1.091,1.091,0,1,1-.038-2.182,34.369,34.369,0,0,0,10.365-1.958c2.608-.922,5.848-2.635,6.508-5.559a3.2,3.2,0,0,0,.044-1.337c-.376-1.822-2.771-2.728-4.882-3.5l-.4-.153c-1.637-.622-3.868-2.035-4.7-3.988a3.818,3.818,0,0,1,0-3.071,6.311,6.311,0,0,1,2.324-2.5c.267-.2.5-.371.726-.546.747-.616,1.157-1.489.895-1.909a1.931,1.931,0,0,0-.753-.513,14.767,14.767,0,0,0-3.47-.889,25.814,25.814,0,0,1-2.679-.546c-2.258-.66-4.942-2.439-5.062-5.3-.115-2.651,2.04-4.943,5.9-6.29l.273-.093c2.182-.764,4.67-1.637,5.363-3.519a7.272,7.272,0,0,0,.284-1.26,11.35,11.35,0,0,1,.224-1.124c1.053-4.037,5.308-6,8.417-7.441s6.186-3.022,9.165-4.724a8.967,8.967,0,0,0,3.24-2.591,9.585,9.585,0,0,0,1.02-2.728c.087-.338.18-.671.278-1a6.26,6.26,0,0,1,2.886-4.075,3.819,3.819,0,0,1,3.371,0,2.9,2.9,0,0,1,1.637,2.106,1.091,1.091,0,0,1-2.149.355.736.736,0,0,0-.442-.507,1.637,1.637,0,0,0-1.391,0,4.264,4.264,0,0,0-1.8,2.766c-.093.311-.18.627-.262.944a11.261,11.261,0,0,1-1.293,3.328,10.483,10.483,0,0,1-3.993,3.273c-3.028,1.729-6.17,3.35-9.329,4.806-3.519,1.637-6.492,3.2-7.223,6-.076.289-.125.6-.18.927a9.138,9.138,0,0,1-.387,1.637c-1.053,2.869-4.179,3.955-6.694,4.828l-.273.1c-1.091.371-4.544,1.773-4.446,4.135.071,1.593,1.806,2.8,3.5,3.273a22.791,22.791,0,0,0,2.433.513,16.368,16.368,0,0,1,3.993,1.047,3.819,3.819,0,0,1,1.707,1.337c1.036,1.637.027,3.622-1.353,4.757-.262.218-.546.426-.818.627a4.6,4.6,0,0,0-1.637,1.6,1.637,1.637,0,0,0,.027,1.358,6.412,6.412,0,0,0,3.464,2.8l.4.147c2.509.938,5.63,2.1,6.257,5.1a5.319,5.319,0,0,1-.038,2.335c-.693,3.082-3.426,5.548-7.91,7.136a36.55,36.55,0,0,1-11.031,2.084ZM188.8,86.56a3.115,3.115,0,0,0-1.418.327,5.767,5.767,0,0,0-2.613,3.748c-.1.327-.191.66-.278.993a9.722,9.722,0,0,1-1.091,2.864,9.505,9.505,0,0,1-3.426,2.766c-2.995,1.708-6.094,3.306-9.208,4.746-3.011,1.391-7.135,3.273-8.117,7.092a9.817,9.817,0,0,0-.213,1.091,7.742,7.742,0,0,1-.311,1.358c-.786,2.138-3.393,3.044-5.7,3.819l-.273.1c-3.622,1.26-5.641,3.355-5.537,5.75.109,2.569,2.586,4.19,4.67,4.8a24.008,24.008,0,0,0,2.613.546,15.079,15.079,0,0,1,3.606.933,2.28,2.28,0,0,1,.987.72c.486.764-.158,1.92-1.009,2.619-.229.185-.469.365-.709.546a5.909,5.909,0,0,0-2.182,2.3,3.306,3.306,0,0,0,.027,2.646,7.945,7.945,0,0,0,4.4,3.688l.4.153c2.242.84,4.79,1.789,5.226,3.9a3.7,3.7,0,0,1-.049,1.577c-.709,3.159-4.119,4.981-6.857,5.946a34.913,34.913,0,0,1-10.54,1.991.554.554,0,0,0,.022,1.107v0a36.059,36.059,0,0,0,10.872-2.051c4.293-1.522,6.906-3.851,7.561-6.743a4.752,4.752,0,0,0,.049-2.029c-.546-2.728-3.53-3.819-5.914-4.7l-.4-.153a6.872,6.872,0,0,1-3.775-3.1,2.182,2.182,0,0,1-.027-1.789,4.925,4.925,0,0,1,1.789-1.827c.267-.2.546-.393.791-.606,1.206-.987,2.106-2.679,1.238-4.042a3.273,3.273,0,0,0-1.462-1.135,16.268,16.268,0,0,0-3.862-1.009,21.984,21.984,0,0,1-2.5-.546c-1.877-.546-3.819-1.931-3.884-3.819-.12-2.728,3.65-4.271,4.806-4.675l.273-.093c2.406-.835,5.4-1.877,6.361-4.5a9.127,9.127,0,0,0,.36-1.555c.055-.344.109-.666.191-.976.791-3.044,3.879-4.686,7.523-6.372,3.148-1.451,6.274-3.06,9.274-4.784a10.564,10.564,0,0,0,3.819-3.12,10.911,10.911,0,0,0,1.222-3.175c.087-.322.175-.644.267-.96a4.788,4.788,0,0,1,2.073-3.093,2.182,2.182,0,0,1,1.882,0,1.244,1.244,0,0,1,.736.906.547.547,0,1,0,1.08-.175,2.379,2.379,0,0,0-1.326-1.708,3.273,3.273,0,0,0-1.44-.289Z" transform="translate(-31.087 -24.981)"/><path class="a" d="M103.517,123.677h-.038a.824.824,0,0,1-.78-.862,9.329,9.329,0,0,1,7.741-8.538,17.544,17.544,0,0,1,3.546-.038c.42.027.846.055,1.266.065,4.855.131,9.6-1.4,14.184-2.88.955-.311,1.909-.671,2.242-1.375a3.2,3.2,0,0,0,.2-.644,5.589,5.589,0,0,1,.262-.856c.513-1.206,1.74-2.04,3.633-2.466a31.415,31.415,0,0,1,9.176-.256,40,40,0,0,0,6.808.093,33.55,33.55,0,0,0,10.512-3.333c1.877-.873,3.944-1.958,4.7-3.819a8.685,8.685,0,0,0,.458-2.089,15.154,15.154,0,0,1,.273-1.577c.933-3.851,4.364-6.323,7.8-8.521a.818.818,0,1,1,.884,1.375c-3.159,2.024-6.306,4.271-7.092,7.534a13.364,13.364,0,0,0-.24,1.413,9.989,9.989,0,0,1-.546,2.482c-.927,2.3-3.208,3.611-5.526,4.686a35.087,35.087,0,0,1-11.036,3.48,42.055,42.055,0,0,1-7.092-.087,29.833,29.833,0,0,0-8.7.218c-1.353.305-2.182.813-2.488,1.511a4.335,4.335,0,0,0-.175.595,5.1,5.1,0,0,1-.305.96,4.889,4.889,0,0,1-3.224,2.231c-4.5,1.462-9.59,3.126-14.729,2.962l-1.315-.065a15.713,15.713,0,0,0-3.208,0,7.736,7.736,0,0,0-6.344,7A.824.824,0,0,1,103.517,123.677Z" transform="translate(-9.548 -25.161)"/><path class="c" d="M103.29,123.748h-.049A1.1,1.1,0,0,1,102.2,122.6a9.607,9.607,0,0,1,7.976-8.788,17.31,17.31,0,0,1,3.6-.038c.42,0,.84.049,1.26.06,4.839.131,9.541-1.391,14.091-2.869.9-.289,1.795-.622,2.084-1.233a3.465,3.465,0,0,0,.18-.589,5.662,5.662,0,0,1,.273-.895c.546-1.3,1.838-2.182,3.819-2.629a31.9,31.9,0,0,1,9.274-.262,40.006,40.006,0,0,0,6.759.1,33.336,33.336,0,0,0,10.425-3.317c1.828-.846,3.846-1.9,4.561-3.666a8.341,8.341,0,0,0,.436-2.029c.076-.546.147-1.058.278-1.6.96-3.95,4.441-6.454,7.921-8.685a1.091,1.091,0,0,1,.824-.147,1.058,1.058,0,0,1,.682.475,1.091,1.091,0,0,1,.147.824,1.058,1.058,0,0,1-.475.682c-3.11,2-6.214,4.206-6.977,7.37a12.628,12.628,0,0,0-.235,1.386,10.5,10.5,0,0,1-.578,2.548c-.971,2.384-3.273,3.731-5.668,4.828a35.187,35.187,0,0,1-11.123,3.508,42,42,0,0,1-7.13-.093,29.864,29.864,0,0,0-8.625.213c-1.26.289-2.035.742-2.3,1.353a4.368,4.368,0,0,0-.158.546,4.182,4.182,0,0,1-3.71,3.388l-.1.033c-4.49,1.457-9.574,3.1-14.729,2.94q-.666,0-1.326-.065a15.177,15.177,0,0,0-3.153,0,7.446,7.446,0,0,0-6.11,6.737A1.091,1.091,0,0,1,103.29,123.748Zm8.619-9.509a11,11,0,0,0-1.637.109,9.045,9.045,0,0,0-7.512,8.281.546.546,0,0,0,.546.573v0a.546.546,0,0,0,.546-.546,8.025,8.025,0,0,1,6.563-7.206,15.859,15.859,0,0,1,3.273-.027q.655.044,1.309.065c5.063.164,10.1-1.473,14.544-2.913l.1-.033a4.666,4.666,0,0,0,3.055-2.095,4.286,4.286,0,0,0,.289-.9,4.5,4.5,0,0,1,.2-.644c.333-.78,1.233-1.342,2.679-1.669a29.84,29.84,0,0,1,8.783-.224,41.463,41.463,0,0,0,7.037.087,34.773,34.773,0,0,0,10.949-3.453c2.269-1.053,4.5-2.329,5.39-4.544a10.038,10.038,0,0,0,.546-2.417,13,13,0,0,1,.245-1.44c.813-3.36,4.01-5.646,7.212-7.7a.545.545,0,1,0-.589-.916c-3.388,2.182-6.775,4.6-7.686,8.357a14.045,14.045,0,0,0-.262,1.544,9.19,9.19,0,0,1-.475,2.182c-.791,1.953-2.913,3.071-4.839,3.961a33.6,33.6,0,0,1-10.6,3.36,40.495,40.495,0,0,1-6.852-.093,31.442,31.442,0,0,0-9.1.251c-1.806.4-2.962,1.184-3.442,2.308a5.179,5.179,0,0,0-.245.807,2.623,2.623,0,0,1-2.624,2.215c-4.593,1.489-9.345,3.028-14.276,2.9-.426,0-.851-.038-1.277-.065A15.228,15.228,0,0,0,111.909,114.24Z" transform="translate(-9.32 -24.959)"/><path class="a" d="M185.636,109.956h-.426a5.393,5.393,0,0,1-3.977-1.4,4.853,4.853,0,0,1-.666-4.981,10.891,10.891,0,0,1,7.125-6.5,17.219,17.219,0,0,1,9.612.109l.125.033a4.186,4.186,0,0,0,2.869.136c.944-.546,1.053-2.04.753-3.213-.115-.436-.262-.867-.42-1.326a8.8,8.8,0,0,1-.671-3.186,6.08,6.08,0,0,1,4.173-5.226,11.7,11.7,0,0,1,6.546-.142A27,27,0,0,1,220.2,88.3l.649.453a10.911,10.911,0,0,0,2.951,1.637,2.983,2.983,0,0,0,3.208-.742.715.715,0,0,1,1.162.835,4.377,4.377,0,0,1-4.779,1.277,11.931,11.931,0,0,1-3.355-1.844l-.638-.442a25.558,25.558,0,0,0-9-3.819,10.319,10.319,0,0,0-5.777.087,4.68,4.68,0,0,0-3.235,3.928,7.638,7.638,0,0,0,.595,2.679c.158.464.322.944.453,1.44.442,1.729.175,3.89-1.429,4.8-1.266.726-2.755.322-3.944,0l-.125-.033a15.84,15.84,0,0,0-8.821-.125,9.442,9.442,0,0,0-6.2,5.608,3.62,3.62,0,0,0,.355,3.546,4.044,4.044,0,0,0,2.973.949,15.87,15.87,0,0,0,6.5-1.211,32.658,32.658,0,0,0,3.426-1.751,34.613,34.613,0,0,1,3.5-1.795,18.046,18.046,0,0,1,15.368.818.712.712,0,0,1-.693,1.244,16.578,16.578,0,0,0-14.124-.747,32.981,32.981,0,0,0-3.355,1.724,34.919,34.919,0,0,1-3.579,1.822A17.457,17.457,0,0,1,185.636,109.956Z" transform="translate(-44.767 -23.998)"/><path class="c" d="M185.409,110.034h-.436a5.675,5.675,0,0,1-4.168-1.489,5.113,5.113,0,0,1-.72-5.253,11.154,11.154,0,0,1,7.3-6.677,17.459,17.459,0,0,1,9.765.109l.125.033c.982.267,2,.546,2.668.164.78-.447.9-1.8.616-2.908-.109-.426-.256-.851-.409-1.3a9.073,9.073,0,0,1-.687-3.273,6.3,6.3,0,0,1,4.364-5.455,12,12,0,0,1,6.7-.153,27.277,27.277,0,0,1,9.607,4.081l.655.453A10.687,10.687,0,0,0,223.667,90a2.749,2.749,0,0,0,2.908-.638.983.983,0,0,1,1.6,1.146,4.66,4.66,0,0,1-5.079,1.38,12.378,12.378,0,0,1-3.431-1.882c-.224-.158-.426-.3-.633-.436a25.154,25.154,0,0,0-8.9-3.781,10.107,10.107,0,0,0-5.63.076,4.4,4.4,0,0,0-3.055,3.677,7.513,7.513,0,0,0,.578,2.586c.153.442.327.949.458,1.457.469,1.833.175,4.124-1.555,5.106-1.369.78-2.913.365-4.151,0l-.125-.033a15.6,15.6,0,0,0-8.668-.125,9.059,9.059,0,0,0-6,5.455,3.358,3.358,0,0,0,.3,3.273,3.848,3.848,0,0,0,2.777.867,15.673,15.673,0,0,0,6.388-1.189,33.1,33.1,0,0,0,3.393-1.735,33.618,33.618,0,0,1,3.535-1.811,18.319,18.319,0,0,1,15.6.829.987.987,0,0,1-.207,1.811.971.971,0,0,1-.747-.087,16.3,16.3,0,0,0-13.884-.736,33.816,33.816,0,0,0-3.311,1.7,34.322,34.322,0,0,1-3.628,1.849A17.675,17.675,0,0,1,185.409,110.034Zm6.41-13.524a14.342,14.342,0,0,0-4.271.622,10.617,10.617,0,0,0-6.945,6.328,4.593,4.593,0,0,0,.6,4.708,5.122,5.122,0,0,0,3.786,1.315,17.337,17.337,0,0,0,6.966-1.3,33.084,33.084,0,0,0,3.535-1.806,33.853,33.853,0,0,1,3.4-1.74,16.846,16.846,0,0,1,14.364.764.447.447,0,0,0,.595-.175.442.442,0,0,0-.175-.6,17.757,17.757,0,0,0-15.127-.8,34.717,34.717,0,0,0-3.475,1.784,33.122,33.122,0,0,1-3.453,1.762,16.175,16.175,0,0,1-6.606,1.233,4.286,4.286,0,0,1-3.164-1.036,3.869,3.869,0,0,1-.415-3.819,9.693,9.693,0,0,1,6.377-5.777,16.007,16.007,0,0,1,8.968.12l.125.033c1.14.305,2.569.693,3.742,0,1.473-.84,1.713-2.869,1.293-4.5-.125-.486-.289-.96-.447-1.418a7.91,7.91,0,0,1-.606-2.777,4.947,4.947,0,0,1,3.415-4.173,10.632,10.632,0,0,1,5.924-.1,25.8,25.8,0,0,1,9.1,3.862l.611.426a12.062,12.062,0,0,0,3.273,1.822,4.1,4.1,0,0,0,4.479-1.173.442.442,0,1,0-.715-.513,3.25,3.25,0,0,1-3.508.846,11.047,11.047,0,0,1-3.028-1.686l-.649-.447a26.731,26.731,0,0,0-9.383-3.971,11.505,11.505,0,0,0-6.4.131,5.8,5.8,0,0,0-3.993,4.975,8.728,8.728,0,0,0,.655,3.093c.164.464.311.9.426,1.347.327,1.266.191,2.908-.878,3.513-.862.491-1.986.185-3.077-.109l-.125-.033a20.141,20.141,0,0,0-5.193-.731Z" transform="translate(-44.54 -23.803)"/><path class="a" d="M178.2,127.956a3.873,3.873,0,0,1-2.018-.546,4.9,4.9,0,0,1-2.095-4.162c-.153-3.546,1.675-6.546,4.271-9.274a14.025,14.025,0,0,1-3.884-4.632,7.877,7.877,0,0,1,9.083-10.872c2.242.546,4.048,2.029,5.8,3.459,1.92,1.566,3.731,3.044,5.963,3.273a5.717,5.717,0,0,0,5.859-4.233,14.9,14.9,0,0,0,.273-2.488c.1-2.029.218-4.13,2-5.335,2.182-1.457,5.09-.147,6.661,1.958a18.773,18.773,0,0,1,1.609,2.728,15.1,15.1,0,0,0,1.74,2.869,7.408,7.408,0,0,0,9.192,1.462.711.711,0,1,1,.753,1.206,8.767,8.767,0,0,1-11.036-1.751,16.366,16.366,0,0,1-1.92-3.142,17.79,17.79,0,0,0-1.478-2.548c-1.157-1.544-3.328-2.564-4.724-1.637-1.195.807-1.282,2.389-1.38,4.228a15.7,15.7,0,0,1-.3,2.728,7.092,7.092,0,0,1-7.392,5.373c-2.662-.251-4.73-1.937-6.732-3.568-1.7-1.386-3.311-2.7-5.243-3.18a6.454,6.454,0,0,0-7.441,8.908,13.156,13.156,0,0,0,3.6,4.206c1.042-.982,2.182-1.926,3.311-2.842a10.105,10.105,0,0,1,3.988-2.286,9.22,9.22,0,0,1,4.053.191c1.56.344,3.164.8,4.708,1.244,4.839,1.375,9.819,2.8,14.293.982a.715.715,0,1,1,.546,1.32c-4.91,2.008-10.152.513-15.22-.933-1.527-.436-3.11-.884-4.632-1.222a7.85,7.85,0,0,0-3.42-.191,9.072,9.072,0,0,0-3.42,2.008c-1,.807-2.144,1.751-3.12,2.673a11.538,11.538,0,0,1,3.819,5.139,7.2,7.2,0,0,1-3.819,8.379,5.455,5.455,0,0,1-2.242.507Zm1.227-13.022c-2.379,2.477-4.048,5.188-3.917,8.27a3.578,3.578,0,0,0,1.4,3,3.213,3.213,0,0,0,2.94-.055,5.8,5.8,0,0,0,3.033-6.672A10.2,10.2,0,0,0,179.428,114.934Z" transform="translate(-41.854 -27.933)"/><path class="c" d="M177.938,128.051a4.184,4.184,0,0,1-2.182-.546,5.16,5.16,0,0,1-2.226-4.364c-.136-3.159,1.184-6.1,4.151-9.274a13.941,13.941,0,0,1-3.737-4.539,8.145,8.145,0,0,1,9.416-11.282c2.3.546,4.135,2.068,5.908,3.513,1.882,1.538,3.666,2.989,5.815,3.191a5.455,5.455,0,0,0,5.548-4,14.73,14.73,0,0,0,.262-2.439c.109-2.095.224-4.266,2.122-5.543,2.3-1.549,5.384-.191,7.032,2.018a18.835,18.835,0,0,1,1.637,2.788,14.673,14.673,0,0,0,1.707,2.826,7.125,7.125,0,0,0,8.843,1.4.977.977,0,0,1,1.353.316.96.96,0,0,1,.125.742.988.988,0,0,1-.436.616,9.05,9.05,0,0,1-11.4-1.811,16.583,16.583,0,0,1-1.948-3.186,16.879,16.879,0,0,0-1.457-2.515c-1.091-1.446-3.082-2.417-4.364-1.566-1.091.731-1.162,2.253-1.26,4.015a15.819,15.819,0,0,1-.311,2.782,7.37,7.37,0,0,1-7.637,5.515c-2.728-.251-4.85-1.964-6.879-3.622a14,14,0,0,0-5.139-3.126,6.175,6.175,0,0,0-7.125,8.527,12.231,12.231,0,0,0,3.339,3.955c.884-.829,1.893-1.686,3.148-2.689a10.492,10.492,0,0,1,4.1-2.34,9.383,9.383,0,0,1,4.168.191c1.566.349,3.164.8,4.708,1.244,4.812,1.369,9.765,2.782,14.14,1a.977.977,0,0,1,1.282.546.987.987,0,0,1-.546,1.287c-5,2.04-10.283.546-15.395-.922-1.522-.431-3.088-.878-4.621-1.217a7.637,7.637,0,0,0-3.3-.2,9.094,9.094,0,0,0-3.311,1.958c-1.151.916-2.078,1.707-2.886,2.455a11.457,11.457,0,0,1,3.661,5.068,7.468,7.468,0,0,1-3.961,8.728A5.712,5.712,0,0,1,177.938,128.051Zm3.53-29.688a7.588,7.588,0,0,0-7,10.709,13.665,13.665,0,0,0,3.819,4.539.289.289,0,0,1,.093.2.284.284,0,0,1-.076.2c-2.995,3.12-4.326,6-4.2,9.072a4.652,4.652,0,0,0,1.958,3.944,4.441,4.441,0,0,0,4.01,0,6.923,6.923,0,0,0,3.666-8.052,11.459,11.459,0,0,0-3.731-5.008.284.284,0,0,1-.087-.2.262.262,0,0,1,.082-.2c.873-.824,1.871-1.68,3.142-2.689a9.248,9.248,0,0,1,3.53-2.062,8.128,8.128,0,0,1,3.54.191c1.544.344,3.12.791,4.642,1.227,5.03,1.435,10.223,2.913,15.046.938a.436.436,0,0,0,.24-.573.415.415,0,0,0-.235-.235.431.431,0,0,0-.338,0c-4.544,1.855-9.59.42-14.467-.971-1.56-.442-3.148-.895-4.7-1.238a8.936,8.936,0,0,0-3.933-.191,10.071,10.071,0,0,0-3.879,2.231c-1.331,1.091-2.379,1.958-3.273,2.831a.278.278,0,0,1-.371,0,13.235,13.235,0,0,1-3.66-4.3,6.721,6.721,0,0,1,7.752-9.274c1.991.5,3.622,1.822,5.352,3.235,1.969,1.6,4,3.273,6.585,3.5a6.8,6.8,0,0,0,7.092-5.1,15.613,15.613,0,0,0,.3-2.689c.1-1.909.185-3.557,1.495-4.441,1.528-1.026,3.868.049,5.1,1.691a17.544,17.544,0,0,1,1.5,2.58,16.118,16.118,0,0,0,1.887,3.1,8.488,8.488,0,0,0,10.687,1.7.453.453,0,0,0,.2-.273.436.436,0,0,0-.333-.546.431.431,0,0,0-.327.055,7.7,7.7,0,0,1-9.552-1.517,15.176,15.176,0,0,1-1.773-2.924,18.1,18.1,0,0,0-1.582-2.728c-1.495-2.008-4.261-3.273-6.29-1.893-1.669,1.129-1.778,3.159-1.882,5.122a15.045,15.045,0,0,1-.278,2.531,6,6,0,0,1-6.126,4.419c-2.318-.213-4.162-1.718-6.11-3.306a15.29,15.29,0,0,0-5.7-3.41,7.413,7.413,0,0,0-1.811-.2Zm-3.53,28.264a2.76,2.76,0,0,1-1.429-.366,3.869,3.869,0,0,1-1.533-3.224c-.12-2.782,1.189-5.553,3.993-8.472a.278.278,0,0,1,.382,0,10.614,10.614,0,0,1,3.535,4.67,6.083,6.083,0,0,1-3.18,6.994,4.31,4.31,0,0,1-1.768.382Zm1.244-11.489c-2.608,2.76-3.77,5.27-3.66,7.877a3.354,3.354,0,0,0,1.271,2.777,2.951,2.951,0,0,0,2.684-.071,5.521,5.521,0,0,0,2.891-6.344,9.848,9.848,0,0,0-3.186-4.255Z" transform="translate(-41.592 -27.739)"/><path class="a" d="M192.976,137.644a.693.693,0,0,1-.273-.055c-2.973-1.211-6-2.64-7.174-5.553a11,11,0,0,1-.606-4.331v-1.091a36.794,36.794,0,0,0-.322-6.3c-.235.055-.469.109-.709.153-3.731.7-7.61,0-11.031-.66a.72.72,0,0,1-.4-.229,4.735,4.735,0,0,1-1.047-3.868,5.63,5.63,0,0,1,2.531-3.95,7.226,7.226,0,0,1,8.117.856,11.249,11.249,0,0,1,3.6,5.87,8.538,8.538,0,0,0,5.423-5.4c.911-3.311-.791-6.748-2.433-10.065l-.207-.426c-1.718-3.475-3.491-7.637-3.66-12.116-.18-4.773,1.729-9.219,4.975-11.614s7.392-2.728,11.063-2.837a14.674,14.674,0,0,1,6,.66,5.976,5.976,0,0,1,3.95,4.872,7.822,7.822,0,0,1-.938,3.633,58.119,58.119,0,0,1-5.941,10.19c-.338.469-.687.933-1.036,1.4-1.68,2.231-3.415,4.539-4.184,7.174-.856,2.957-.087,6.814,2.684,8.183a.711.711,0,1,1-.616,1.282c-3.584-1.735-4.446-6.366-3.437-9.819.84-2.88,2.657-5.3,4.413-7.637.344-.458.687-.916,1.026-1.38a57.045,57.045,0,0,0,5.815-9.945,6.715,6.715,0,0,0,.791-3.006,4.525,4.525,0,0,0-3.044-3.622,13.371,13.371,0,0,0-5.455-.546c-3.459.125-7.386.442-10.267,2.559s-4.561,6.11-4.4,10.414,1.866,8.183,3.513,11.543l.207.42c1.68,3.393,3.584,7.239,2.531,11.08a10.05,10.05,0,0,1-6.481,6.421,36.338,36.338,0,0,1,.376,6.732c0,.36,0,.72,0,1.091a10.053,10.053,0,0,0,.5,3.791c.987,2.4,3.7,3.677,6.4,4.779a.709.709,0,0,1,.393.927.72.72,0,0,1-.638.42Zm-19.639-19.2c3.377.633,6.863,1.249,10.25.611.218-.038.442-.087.666-.147a9.874,9.874,0,0,0-3.131-5.193,5.852,5.852,0,0,0-6.475-.747,4.212,4.212,0,0,0-1.866,2.94A3.328,3.328,0,0,0,173.337,118.447Z" transform="translate(-40.744 -20.421)"/><path class="c" d="M192.771,137.68a.982.982,0,0,1-.376-.071c-3.028-1.238-6.088-2.728-7.321-5.706a11.282,11.282,0,0,1-.627-4.435v-1.091a38.187,38.187,0,0,0-.273-5.968l-.431.087c-3.786.715-7.692,0-11.14-.66a.993.993,0,0,1-.546-.316,5.014,5.014,0,0,1-1.091-4.091,5.875,5.875,0,0,1,2.657-4.135,7.486,7.486,0,0,1,8.428.873,11.189,11.189,0,0,1,3.606,5.717,8.181,8.181,0,0,0,4.981-5.1c.884-3.213-.8-6.6-2.417-9.874l-.207-.425c-1.729-3.5-3.519-7.686-3.688-12.231-.185-4.855,1.768-9.394,5.09-11.838s7.5-2.728,11.211-2.891a15.14,15.14,0,0,1,6.137.676,6.232,6.232,0,0,1,4.124,5.117,8.079,8.079,0,0,1-.96,3.759,58.7,58.7,0,0,1-6,10.245q-.5.682-1.015,1.358c-1.691,2.253-3.41,4.539-4.162,7.125-.824,2.848-.1,6.546,2.542,7.834a.987.987,0,0,1-.1,1.822.976.976,0,0,1-.78-.049c-3.72-1.8-4.615-6.579-3.579-10.163.857-2.929,2.684-5.368,4.457-7.719.36-.486.7-.927,1.026-1.375a56.51,56.51,0,0,0,5.783-9.9,6.393,6.393,0,0,0,.786-2.837,4.232,4.232,0,0,0-2.869-3.382,13.425,13.425,0,0,0-5.352-.546c-3.415.125-7.3.431-10.114,2.509s-4.446,5.963-4.288,10.18,1.849,8.117,3.486,11.456l.207.426c1.7,3.437,3.633,7.332,2.548,11.271a10.319,10.319,0,0,1-6.432,6.546,37.885,37.885,0,0,1,.338,6.546v1.091a9.683,9.683,0,0,0,.48,3.688c.944,2.3,3.606,3.551,6.246,4.626a.987.987,0,0,1-.371,1.9ZM184.4,119.8a.289.289,0,0,1,.147.044.267.267,0,0,1,.12.185,36.842,36.842,0,0,1,.327,6.344v1.091a10.835,10.835,0,0,0,.584,4.228c1.157,2.815,4.108,4.211,7.026,5.406a.439.439,0,1,0,.333-.813c-2.728-1.124-5.515-2.428-6.546-4.91a10.114,10.114,0,0,1-.518-3.9c0-.36,0-.72,0-1.091a36.228,36.228,0,0,0-.371-6.683.278.278,0,0,1,.175-.3,9.749,9.749,0,0,0,6.306-6.241c1.031-3.737-.851-7.534-2.509-10.883l-.207-.42c-1.637-3.366-3.382-7.381-3.54-11.652-.164-4.4,1.56-8.472,4.512-10.643s6.9-2.493,10.387-2.624a13.983,13.983,0,0,1,5.57.578,4.8,4.8,0,0,1,3.219,3.862,6.884,6.884,0,0,1-.824,3.11,56.914,56.914,0,0,1-5.843,9.994c-.327.447-.666.895-1,1.342-1.768,2.351-3.568,4.746-4.4,7.583-.977,3.366-.158,7.85,3.273,9.519a.447.447,0,0,0,.589-.207.436.436,0,0,0-.2-.584c-2.908-1.407-3.721-5.417-2.831-8.483.78-2.679,2.531-5.008,4.222-7.261.371-.486.709-.938,1.036-1.391a58.33,58.33,0,0,0,5.935-10.147,7.637,7.637,0,0,0,.911-3.508,5.679,5.679,0,0,0-3.781-4.637,14.942,14.942,0,0,0-5.919-.638c-3.628.131-7.763.469-10.911,2.782s-5.041,6.7-4.866,11.385c.169,4.435,1.931,8.559,3.628,12l.213.425c1.664,3.366,3.388,6.846,2.449,10.261-.917,3.317-3.89,4.91-5.586,5.57a.255.255,0,0,1-.36-.169,10.8,10.8,0,0,0-3.508-5.728,6.936,6.936,0,0,0-7.8-.835,5.341,5.341,0,0,0-2.4,3.753,4.468,4.468,0,0,0,.977,3.65.442.442,0,0,0,.251.136c3.4.638,7.25,1.364,10.911.666.235-.044.464-.093.693-.153Zm-4.026-.431a39.515,39.515,0,0,1-7.25-.889.278.278,0,0,1-.164-.1,3.622,3.622,0,0,1-.611-2.728,4.511,4.511,0,0,1,2-3.131,6.12,6.12,0,0,1,6.786.764,9.939,9.939,0,0,1,3.224,5.335.267.267,0,0,1-.027.213.306.306,0,0,1-.169.125c-.229.06-.458.109-.682.153a17.009,17.009,0,0,1-3.131.262Zm-7.043-1.407c3.131.584,6.661,1.233,10.049.595l.376-.076a9.274,9.274,0,0,0-2.968-4.784,5.563,5.563,0,0,0-6.159-.726,3.961,3.961,0,0,0-1.74,2.728,3.142,3.142,0,0,0,.415,2.264Z" transform="translate(-40.538 -20.19)"/><path class="a" d="M194.063,181.794a18.116,18.116,0,0,1-6.623.971c-3.862-.24-8.4-2.755-9.187-6.961a17.33,17.33,0,0,1,.033-4.719c.273-2.815.546-5.728-1.478-7.867a9.672,9.672,0,0,0-3.437-2.068,25.53,25.53,0,0,0-8.183-2.389,9.019,9.019,0,0,0-7.981,3.311.715.715,0,0,0,1.162.824c1.571-2.182,4.506-2.848,6.732-2.728a24.053,24.053,0,0,1,7.7,2.28,8.554,8.554,0,0,1,2.957,1.735c1.582,1.637,1.342,4.135,1.091,6.748a18.7,18.7,0,0,0,0,5.117c.709,3.759,4.544,7.757,10.5,8.117a19.464,19.464,0,0,0,7.266-1.091,4.588,4.588,0,0,1-.551-1.282Z" transform="translate(-34.275 -58.025)"/><path class="c" d="M188.053,184.317c-.333,0-.66,0-.987-.033-6.1-.371-10.027-4.479-10.752-8.341a18.548,18.548,0,0,1,0-5.188c.24-2.553.475-4.964-1.02-6.546a8.363,8.363,0,0,0-2.864-1.669,23.8,23.8,0,0,0-7.61-2.259c-2.149-.131-4.986.48-6.492,2.6a1,1,0,0,1-1.637-1.14c1.637-2.324,4.8-3.639,8.221-3.426a25.582,25.582,0,0,1,8.248,2.411,9.951,9.951,0,0,1,3.535,2.133c2.111,2.226,1.828,5.2,1.549,8.079a17.221,17.221,0,0,0-.038,4.642c.764,4.064,5.177,6.508,8.936,6.737a17.806,17.806,0,0,0,6.546-.955.256.256,0,0,1,.218,0,.267.267,0,0,1,.131.175,4.529,4.529,0,0,0,.518,1.238.284.284,0,0,1,.027.24.289.289,0,0,1-.175.164A20.457,20.457,0,0,1,188.053,184.317Zm-23.769-24.592h.584a24.125,24.125,0,0,1,7.779,2.3,8.674,8.674,0,0,1,3.055,1.806c1.669,1.751,1.424,4.282,1.167,6.961a18.36,18.36,0,0,0,0,5.041c.687,3.655,4.435,7.539,10.25,7.9a19,19,0,0,0,6.846-.955,5.286,5.286,0,0,1-.338-.818,18.139,18.139,0,0,1-6.454.895c-3.966-.245-8.619-2.842-9.438-7.185a17.413,17.413,0,0,1,.033-4.79c.262-2.76.546-5.608-1.407-7.637a9.493,9.493,0,0,0-3.344-2.008,25.611,25.611,0,0,0-8.074-2.368,8.757,8.757,0,0,0-7.741,3.2.431.431,0,0,0,.1.611.436.436,0,0,0,.611-.1c1.478-2.128,4.157-2.864,6.366-2.864Z" transform="translate(-34.004 -57.82)"/><path class="a" d="M131.148,151.358c-3.186,0-6.241-.513-8.417-2.651a7.6,7.6,0,0,1-.955-9.394c1.413-2.117,3.922-3.54,7.446-4.239,1.031-.207,2.089-.349,3.11-.486a28.335,28.335,0,0,0,4.91-.949,14,14,0,0,0,6.268-4.075,3.963,3.963,0,0,0,1.249-3.18c-.185-1.369-1.38-2.771-3.54-4.168-.873-.546-1.762-1.2-2.619-1.811-3.388-2.417-6.9-4.91-10.992-4.533a17.332,17.332,0,0,0-4.484,1.124,11.9,11.9,0,0,1,5.859,9.847c0,2.728-1.838,5.041-3.453,6.726-1.888,1.975-4.822,4.659-8.538,5.237a6.726,6.726,0,0,1-7.092-2.853c-2-3.1-1.806-8.243.453-11.7,2.406-3.677,6.339-5.935,9.383-7.365a12.576,12.576,0,0,0-1.538-.447c-.486-.1-.987-.185-1.511-.273-2.051-.338-4.173-.687-5.521-2.384a6.469,6.469,0,0,1-1-5.128c.726-4.713,4.021-9.132,9.045-12.122,4.424-2.629,9.432-3.873,14.276-5.073,3.082-.769,4.364.175,4.866,1.091a.718.718,0,1,1-1.249.709c-.546-.944-2.286-.666-3.273-.42-4.746,1.178-9.65,2.395-13.895,4.91-4.653,2.766-7.7,6.819-8.363,11.112a5.3,5.3,0,0,0,.7,4.026c1.009,1.266,2.771,1.555,4.637,1.86.546.087,1.091.18,1.582.289a13.677,13.677,0,0,1,3.017,1.047,20.321,20.321,0,0,1,5.946-1.637c4.626-.431,8.352,2.226,11.953,4.79.884.633,1.724,1.227,2.569,1.773,2.559,1.637,3.928,3.355,4.179,5.177a5.392,5.392,0,0,1-1.6,4.315,15.455,15.455,0,0,1-6.9,4.49,30,30,0,0,1-5.155,1c-1,.131-2.029.273-3.022.469-3.137.622-5.341,1.844-6.546,3.633a6.219,6.219,0,0,0,.769,7.588c2.291,2.248,5.957,2.373,9.579,2.182,6.7-.371,10.987-1.538,14.456-6.617.333-.491.66-1.009.976-1.511a17.076,17.076,0,0,1,3.159-4.075,12.935,12.935,0,0,1,4.784-2.438,25.274,25.274,0,0,1,17.037.922,4.1,4.1,0,0,1,2.428,2.635,1.74,1.74,0,0,1-.546,1.637.715.715,0,1,1-.966-1.047.316.316,0,0,0,.115-.333,2.726,2.726,0,0,0-1.587-1.571,23.84,23.84,0,0,0-16.049-.867,11.423,11.423,0,0,0-4.266,2.155,15.889,15.889,0,0,0-2.875,3.737c-.322.513-.655,1.047-1,1.56-3.781,5.543-8.57,6.852-15.558,7.239C132.616,151.33,131.868,151.358,131.148,151.358Zm-9.667-33.686-.327.142c-2.962,1.326-7.174,3.519-9.6,7.223-1.975,3.022-2.182,7.474-.453,10.147,1.189,1.838,3.148,2.608,5.668,2.215,3.273-.507,6-2.989,7.725-4.812,1.429-1.495,3.071-3.491,3.06-5.739-.038-4.124-2.8-7.4-6.1-9.176Z" transform="translate(-12.193 -27.321)"/><path class="c" d="M130.966,151.4c-4.031,0-6.688-.846-8.608-2.728a7.872,7.872,0,0,1-.993-9.738c1.462-2.182,4.021-3.639,7.637-4.364,1.036-.207,2.089-.349,3.1-.486a28.834,28.834,0,0,0,4.91-.938,13.774,13.774,0,0,0,6.143-4,3.733,3.733,0,0,0,1.184-2.962c-.175-1.287-1.326-2.624-3.415-3.977-.873-.546-1.757-1.195-2.613-1.806-3.366-2.4-6.825-4.866-10.829-4.5a16.236,16.236,0,0,0-3.906.922,11.982,11.982,0,0,1,5.532,9.776c0,2.853-1.882,5.193-3.53,6.917-1.915,2-4.91,4.73-8.7,5.313-3.18.5-5.794-.546-7.348-2.973-2.057-3.186-1.855-8.456.453-12,1.822-2.788,4.73-5.133,8.887-7.168-.289-.087-.584-.164-.873-.229-.469-.1-.955-.18-1.467-.267-2.133-.349-4.3-.709-5.717-2.482a6.732,6.732,0,0,1-1.053-5.346c.736-4.8,4.081-9.274,9.17-12.313,4.462-2.651,9.487-3.9,14.353-5.106,3.246-.807,4.6.224,5.172,1.233a.987.987,0,1,1-1.718.966c-.453-.813-2.237-.469-2.979-.284-4.724,1.167-9.612,2.379-13.818,4.91-4.582,2.728-7.588,6.7-8.232,10.911a5.059,5.059,0,0,0,.644,3.819c.944,1.178,2.657,1.462,4.468,1.762.546.087,1.091.18,1.6.289a14.146,14.146,0,0,1,2.968,1.015,20.544,20.544,0,0,1,5.913-1.637c4.724-.447,8.488,2.237,12.127,4.833.9.638,1.729,1.227,2.564,1.768,2.629,1.708,4.037,3.464,4.3,5.368a5.7,5.7,0,0,1-1.637,4.533,15.776,15.776,0,0,1-7.1,4.6,30.317,30.317,0,0,1-5.2,1.009c-1,.136-2.024.273-3.006.469-3.066.606-5.21,1.789-6.366,3.519a5.935,5.935,0,0,0,.736,7.239c2.22,2.182,5.815,2.3,9.372,2.095,6.612-.366,10.845-1.511,14.249-6.5.333-.486.655-1,.966-1.5a17.266,17.266,0,0,1,3.208-4.119,12.979,12.979,0,0,1,4.91-2.493,25.5,25.5,0,0,1,17.206.927,4.455,4.455,0,0,1,2.6,2.842,2.024,2.024,0,0,1-.638,1.871.987.987,0,0,1-1.637-.764.955.955,0,0,1,.316-.682l.033-.044a2.51,2.51,0,0,0-1.424-1.413,23.54,23.54,0,0,0-15.864-.856,11.183,11.183,0,0,0-4.168,2.1,15.391,15.391,0,0,0-2.82,3.671c-.327.546-.66,1.053-1.015,1.571-3.846,5.635-8.69,6.966-15.766,7.359C132.351,151.4,131.615,151.4,130.966,151.4Zm-2.728-36.07c3.819,0,7.125,2.346,10.316,4.621.867.622,1.746,1.244,2.608,1.806,2.231,1.446,3.464,2.913,3.66,4.364a4.268,4.268,0,0,1-1.315,3.4,14.3,14.3,0,0,1-6.383,4.157,28.618,28.618,0,0,1-4.953.955c-1.042.142-2.084.284-3.1.486-3.448.682-5.9,2.073-7.272,4.119a7.326,7.326,0,0,0,.922,9.05c1.811,1.778,4.364,2.575,8.227,2.575.66,0,1.391,0,2.22-.071,6.906-.382,11.631-1.669,15.351-7.119.344-.507.676-1.036.993-1.549a16.284,16.284,0,0,1,2.929-3.819,11.773,11.773,0,0,1,4.364-2.209,24.112,24.112,0,0,1,16.235.878,3.025,3.025,0,0,1,1.746,1.773.6.6,0,0,1-.2.584.447.447,0,0,0-.142.305.42.42,0,0,0,.115.316.447.447,0,0,0,.622,0,1.467,1.467,0,0,0,.469-1.375,3.881,3.881,0,0,0-2.269-2.433,24.952,24.952,0,0,0-16.835-.911,12.547,12.547,0,0,0-4.686,2.384,16.992,16.992,0,0,0-3.1,4c-.316.507-.644,1.031-.982,1.522-3.53,5.177-7.877,6.361-14.669,6.737-3.677.207-7.414.076-9.781-2.253a6.5,6.5,0,0,1-.807-7.932c1.244-1.849,3.5-3.11,6.715-3.748.993-.2,2.024-.338,3.022-.469a30.229,30.229,0,0,0,5.123-.993,15.166,15.166,0,0,0,6.781-4.419,5.109,5.109,0,0,0,1.527-4.1c-.24-1.735-1.566-3.366-4.053-4.981-.851-.546-1.686-1.14-2.564-1.768-3.579-2.553-7.261-5.172-11.783-4.752a20.348,20.348,0,0,0-5.864,1.637.267.267,0,0,1-.224,0,13.452,13.452,0,0,0-2.962-1.026c-.507-.109-1.042-.2-1.555-.284-1.931-.316-3.742-.616-4.817-1.964a5.548,5.548,0,0,1-.758-4.239c.671-4.364,3.77-8.494,8.494-11.3,4.277-2.548,9.2-3.77,13.96-4.948,1.315-.327,3.006-.5,3.59.546a.442.442,0,0,0,.769-.431c-.682-1.206-2.258-1.544-4.566-.971-4.822,1.195-9.82,2.433-14.184,5.046-4.948,2.946-8.183,7.294-8.914,11.931a6.169,6.169,0,0,0,.944,4.91c1.287,1.637,3.35,1.953,5.352,2.286.546.093,1.042.169,1.522.273a12.918,12.918,0,0,1,1.577.458.278.278,0,0,1,.027.507c-4.364,2.057-7.425,4.43-9.274,7.261-2.182,3.371-2.4,8.379-.453,11.4,1.429,2.22,3.851,3.191,6.808,2.728,3.633-.546,6.546-3.213,8.385-5.155,1.577-1.637,3.388-3.884,3.377-6.546,0-3.78-2.1-7.283-5.733-9.618a.267.267,0,0,1-.12-.256.273.273,0,0,1,.175-.229,17.261,17.261,0,0,1,4.55-1.135c.3,0,.562-.016.846-.016Zm-12.913,22.208a5.248,5.248,0,0,1-4.653-2.439c-1.773-2.755-1.577-7.337.453-10.441,2.46-3.77,6.721-6,9.716-7.321l.327-.147a.267.267,0,0,1,.24,0c3.879,2.084,6.208,5.608,6.219,9.416,0,2.34-1.669,4.4-3.131,5.924-1.773,1.855-4.517,4.364-7.888,4.91a8.109,8.109,0,0,1-1.282.093Zm5.941-19.8-.207.093c-2.924,1.309-7.092,3.475-9.476,7.092-1.92,2.94-2.117,7.266-.453,9.852,1.124,1.74,2.989,2.466,5.4,2.095,3.208-.5,5.859-2.94,7.572-4.735,1.4-1.451,2.989-3.4,2.984-5.548-.011-3.557-2.182-6.83-5.815-8.854Z" transform="translate(-12.011 -27.084)"/><path class="a" d="M226.055,199.688a8.974,8.974,0,0,0-2.417,0,3.71,3.71,0,0,1-2,.327h-.065a13.749,13.749,0,0,1-3.5.376,9.492,9.492,0,0,1-5.4-2.564l-.371-.333c-.273-.251-.546-.5-.846-.736.191-.453.349-.911.491-1.353a5.076,5.076,0,0,0,.136-3.7,4.708,4.708,0,0,0-2.117-2.046,12.378,12.378,0,0,0-6.546-1.522.715.715,0,0,0,.065,1.424,11.052,11.052,0,0,1,5.766,1.347,3.208,3.208,0,0,1,1.511,1.38,3.9,3.9,0,0,1-.2,2.679c-.1.333-.224.676-.355,1.02a6.571,6.571,0,0,0-5.657.578,2.182,2.182,0,0,0-.884.715,1.909,1.909,0,0,0,.218,2.182,3.273,3.273,0,0,0,2.608,1.255,4.522,4.522,0,0,0,2.728-.873,6.251,6.251,0,0,0,1.549-1.778c.175.147.349.311.546.475l.387.349a10.648,10.648,0,0,0,6.241,2.913h.546a17.784,17.784,0,0,0,3.273-.415,11.556,11.556,0,0,1,3.988-.311.715.715,0,0,0,.229-1.407Zm-17.648-.987a3.06,3.06,0,0,1-1.844.589,1.942,1.942,0,0,1-1.511-.687.627.627,0,0,1-.158-.546,1.146,1.146,0,0,1,.344-.229,6.933,6.933,0,0,1,2.995-.829,3.481,3.481,0,0,1,1.4.273,4.79,4.79,0,0,1-1.222,1.429Z" transform="translate(-55.04 -71.38)"/><path class="c" d="M218.314,201.86h-.584a10.864,10.864,0,0,1-6.41-2.984l-.387-.349-.284-.262a6.144,6.144,0,0,1-1.424,1.56,4.785,4.785,0,0,1-2.913.927,3.546,3.546,0,0,1-2.82-1.364,2.182,2.182,0,0,1-.224-2.5,2.433,2.433,0,0,1,.982-.813,7.044,7.044,0,0,1,5.624-.693c.093-.251.175-.5.256-.742a3.769,3.769,0,0,0,.207-2.488,3,3,0,0,0-1.4-1.249,10.774,10.774,0,0,0-5.619-1.315.983.983,0,1,1-.093-1.964,12.482,12.482,0,0,1,6.666,1.555,4.91,4.91,0,0,1,2.237,2.182,5.34,5.34,0,0,1-.125,3.9c-.147.453-.284.835-.42,1.189.24.2.469.409.693.616l.371.333a9.226,9.226,0,0,0,5.232,2.493,13.64,13.64,0,0,0,3.41-.366l.115.256-.055-.267h.1a3.382,3.382,0,0,0,1.855-.3.255.255,0,0,1,.087,0,8.962,8.962,0,0,1,2.488,0h0a.987.987,0,0,1,.818,1.129.96.96,0,0,1-.393.644.982.982,0,0,1-.736.175,11.457,11.457,0,0,0-3.9.311A17.693,17.693,0,0,1,218.314,201.86Zm-7.725-4.3a.267.267,0,0,1,.175.065c.18.153.355.311.546.48l.387.344a10.341,10.341,0,0,0,6.077,2.853,14.849,14.849,0,0,0,3.791-.393,11.794,11.794,0,0,1,4.086-.316.415.415,0,0,0,.327-.076.436.436,0,0,0-.185-.791,8.462,8.462,0,0,0-2.3,0,3.982,3.982,0,0,1-2.062.338h0a14.238,14.238,0,0,1-3.568.376,9.771,9.771,0,0,1-5.553-2.629l-.376-.344c-.267-.24-.546-.486-.829-.72a.278.278,0,0,1-.082-.316c.164-.387.316-.813.48-1.337a4.842,4.842,0,0,0,.153-3.5,4.468,4.468,0,0,0-2-1.915,12.056,12.056,0,0,0-6.426-1.506.431.431,0,0,0-.305.147.42.42,0,0,0-.115.316.431.431,0,0,0,.458.415,11.358,11.358,0,0,1,5.914,1.38,3.5,3.5,0,0,1,1.637,1.506,4.144,4.144,0,0,1-.185,2.875c-.109.338-.229.693-.366,1.036a.273.273,0,0,1-.147.153.3.3,0,0,1-.218,0,6.375,6.375,0,0,0-5.417.546,1.9,1.9,0,0,0-.78.627,1.637,1.637,0,0,0,.207,1.871,3,3,0,0,0,2.395,1.146,4.184,4.184,0,0,0,2.569-.818,5.841,5.841,0,0,0,1.484-1.7.289.289,0,0,1,.186-.131Zm-4.2,1.773h-.06a2.182,2.182,0,0,1-1.724-.8c-.185-.251-.322-.627-.169-.862a1.091,1.091,0,0,1,.447-.322,7.091,7.091,0,0,1,3.12-.862,3.764,3.764,0,0,1,1.506.295.273.273,0,0,1,.147.164.267.267,0,0,1,0,.224,4.91,4.91,0,0,1-1.293,1.517h0A3.311,3.311,0,0,1,206.388,199.329Zm-1.467-1.38a.644.644,0,0,0,.12.256,1.686,1.686,0,0,0,1.3.578,2.81,2.81,0,0,0,1.675-.546,4.365,4.365,0,0,0,.977-1.091,3.4,3.4,0,0,0-.987-.142,6.618,6.618,0,0,0-2.869.8Zm3.273.518Z" transform="translate(-54.811 -71.147)"/><path class="d" d="M150.684,66.145c33.714,0,61.737,16.715,67.411,38.732a32.966,32.966,0,0,0,1.047-8.232c0-25.923-30.648-46.915-68.458-46.915S82.22,70.749,82.22,96.645a32.726,32.726,0,0,0,1.052,8.229C88.946,82.86,116.965,66.145,150.684,66.145Z" transform="translate(-0.241 -8.483)"/><path class="b" d="M217.854,104.87a.273.273,0,0,1-.267-.2c-5.75-22.318-33.992-38.514-67.143-38.514S89.049,82.345,83.294,104.668a.284.284,0,0,1-.546,0,33.512,33.512,0,0,1-1.058-8.3c0-26.033,30.833-47.215,68.736-47.215s68.736,21.183,68.736,47.215a33.275,33.275,0,0,1-1.058,8.3.262.262,0,0,1-.251.2ZM150.443,49.7c-37.6,0-68.191,20.937-68.191,46.67a32.6,32.6,0,0,0,.8,7.141c6.4-22.023,34.5-37.9,67.394-37.9s60.99,15.875,67.394,37.9a32.932,32.932,0,0,0,.791-7.141C218.628,70.633,188.041,49.7,150.443,49.7Z" transform="translate(0 -8.219)"/><path class="b" d="M138.421,88.1c-.169-.535-18.172-32.628-18.172-32.628L88.14,64.029S99.907,94.873,99.552,95.408,138.421,88.1,138.421,88.1Z" transform="translate(-2.931 -11.091)"/><path class="b" d="M99.408,95.47c-.273,0-.311-.055-.349-.109a.311.311,0,0,1-.038-.24c-.093-1.217-6.852-19.29-11.4-31.21a.306.306,0,0,1,0-.24.3.3,0,0,1,.185-.147l32.1-8.532a.3.3,0,0,1,.333.142c1.844,3.273,18,32.132,18.21,32.677a.3.3,0,0,1-.224.382c-.1,0-9.759,1.948-19.333,3.819C103.876,94.886,100.325,95.47,99.408,95.47Zm-.349-.447ZM88.285,64C97.5,88.176,99.256,93.615,99.528,94.914c2.253-.169,23.67-4.364,38.187-7.25-1.451-2.728-12.067-21.685-17.893-32.072Z" transform="translate(-2.684 -10.87)"/><path class="b" d="M166.264,68.686s-7.49-7.31-8.728-10.365-6.95-26.731-6.95-26.731S116,43.717,115.464,43.537s.175,3.208.889,7.49,10.878,27.991,10.878,27.991a79.983,79.983,0,0,1,11.052-3.213C142.566,75.09,166.264,68.686,166.264,68.686Z" transform="translate(-15.264 -0.239)"/><path class="b" d="M126.953,79.08a.3.3,0,0,1-.273-.175c-.415-.971-10.185-23.8-10.911-28.062-.142-.84-.284-1.637-.415-2.411-.7-4.048-.829-5.024-.475-5.33a.4.4,0,0,1,.322-.087c1.206-.175,21.527-7.206,34.99-11.925a.305.305,0,0,1,.24,0,.284.284,0,0,1,.142.191c.06.235,5.717,23.725,6.939,26.7s8.625,10.185,8.685,10.261a.289.289,0,0,1,.082.284.305.305,0,0,1-.207.207c-.24.065-23.774,6.432-28.018,7.135a79.723,79.723,0,0,0-11,3.2A.311.311,0,0,1,126.953,79.08ZM115.3,43.577a30.3,30.3,0,0,0,.649,4.768c.131.758.273,1.571.415,2.417.66,3.955,9.65,25.094,10.747,27.669A78.5,78.5,0,0,1,137.956,75.3c3.873-.644,24.041-6.066,27.467-6.988-1.533-1.527-7.326-7.381-8.434-10.081-1.178-2.864-6.181-23.529-6.89-26.469C135.114,37,117.45,43.124,115.3,43.577Zm-.207,0a.158.158,0,0,0,.131,0A.306.306,0,0,1,115.093,43.577Z" transform="translate(-14.997)"/><path class="b" d="M251.392,114.012c7.741-3.41,15.346-8.183,19.459-15.564,6.415-11.505,2.3-26.851-7.048-36.125-2.591-2.569-5.69-4.85-9.274-5.455a16.13,16.13,0,0,0-9.7,1.877c-14.451,7.245-19.355,23.114-31.171,32.95-7.37,6.132-26.082,12.722-16.731,25.122,5.755,7.637,18.755,6.164,26.927,4.91a109.536,109.536,0,0,0,27.538-7.714Z" transform="translate(-51.208 -11.655)"/><path class="b" d="M212.7,122.839c-6.083,0-12.651-1.227-16.284-6.044-2.133-2.82-2.968-5.581-2.488-8.183,1-5.455,7.457-9.552,13.153-13.147A59.69,59.69,0,0,0,213.2,91.28c4.91-4.07,8.663-9.274,12.307-14.32,5.123-7.092,10.425-14.4,18.919-18.662a16.3,16.3,0,0,1,9.88-1.9c3.131.546,6.224,2.329,9.449,5.532a35.258,35.258,0,0,1,9.514,17.364,26.888,26.888,0,0,1-2.417,19.093c-3.5,6.3-9.918,11.423-19.6,15.689h0a110.469,110.469,0,0,1-27.631,7.779,72.8,72.8,0,0,1-10.921.987ZM252.313,56.83a17.239,17.239,0,0,0-7.637,2c-8.368,4.2-13.638,11.456-18.706,18.482-3.666,5.068-7.457,10.31-12.405,14.429a61.04,61.04,0,0,1-6.17,4.184c-5.592,3.53-11.931,7.528-12.885,12.754-.458,2.482.322,5.013,2.378,7.741,6,7.932,20.463,5.744,26.649,4.817A109.89,109.89,0,0,0,251.02,113.5h0c9.558-4.206,15.875-9.274,19.317-15.433,3.022-5.417,3.819-11.876,2.357-18.684a34.635,34.635,0,0,0-9.356-17.075c-3.137-3.11-6.121-4.866-9.132-5.368a11.319,11.319,0,0,0-1.893-.131Z" transform="translate(-50.95 -11.437)"/><path class="e" d="M252.44,109.121c7.741-3.4,15.346-8.183,19.459-15.558,6.415-11.505,2.3-26.834-7.048-36.108-2.591-2.575-5.69-4.855-9.274-5.455a16.134,16.134,0,0,0-9.7,1.882c-12.645,6.339-19.061,19-29.693,27.582-6.9,5.564-15.237,9.874-19.824,17.457-8.521,14.08,11.783,19.235,21.423,18.722A101.694,101.694,0,0,0,252.44,109.121Z" transform="translate(-51.186 -9.442)"/><path class="b" d="M216.148,117.707c-6.966,0-17.615-2.493-21.166-8.423-1.855-3.093-1.555-6.71.884-10.747,3.344-5.526,8.728-9.378,13.938-13.093,1.986-1.424,4.042-2.891,5.952-4.43a94.674,94.674,0,0,0,11.32-11.505c5.292-6.034,10.763-12.269,18.422-16.109a16.339,16.339,0,0,1,9.863-1.9c3.131.546,6.219,2.329,9.438,5.526a35.269,35.269,0,0,1,9.514,17.364A26.957,26.957,0,0,1,271.9,93.48c-3.5,6.29-9.912,11.418-19.584,15.678l-.115-.251.115.251a102.11,102.11,0,0,1-34.772,8.543C217.1,117.707,216.628,117.707,216.148,117.707Zm37.216-65.818a17.2,17.2,0,0,0-7.637,1.991c-7.55,3.819-12.984,10-18.242,15.995A94.9,94.9,0,0,1,216.1,81.44c-1.92,1.555-3.988,3.028-6,4.452-5.161,3.693-10.5,7.506-13.785,12.94-2.329,3.819-2.629,7.272-.884,10.185,2.068,3.453,6.519,5.455,9.885,6.475a37.221,37.221,0,0,0,12.176,1.637,101.625,101.625,0,0,0,34.576-8.494h0c9.563-4.211,15.886-9.274,19.333-15.444,3.022-5.423,3.819-11.887,2.357-18.7A34.723,34.723,0,0,0,264.394,57.4c-3.137-3.115-6.132-4.872-9.143-5.373A11.457,11.457,0,0,0,253.364,51.889Z" transform="translate(-50.943 -9.212)"/><path class="b" d="M272.364,89.684c-2.591-2.569-5.69-4.85-9.274-5.455a16.126,16.126,0,0,0-9.7,1.882c-7.4,3.71-12.6,10.611-18.973,15.886-5.717,4.724-12.4,8.15-18.313,12.624s-11.254,10.436-12.547,17.735a19.567,19.567,0,0,0-.153,6.765c7.141,3.573,16.017,4,23.73,4.572,7.965.584,15.864,1.282,23.719,1.02a95.786,95.786,0,0,0,9.132-3.36c7.736-3.41,15.34-8.183,19.459-15.558C285.839,114.293,281.725,98.963,272.364,89.684Z" transform="translate(-55.214 -24.09)"/><path class="b" d="M247.122,144.827c-5.881,0-11.827-.447-17.6-.878l-4.13-.305c-7.326-.546-15.635-1.118-22.367-4.5a.289.289,0,0,1-.158-.213,20.086,20.086,0,0,1,.153-6.863c1.146-6.388,5.406-12.416,12.673-17.915,2.646-2,5.488-3.819,8.232-5.581a101.109,101.109,0,0,0,10.07-7.043c2.182-1.795,4.25-3.819,6.257-5.777,3.851-3.781,7.867-7.681,12.776-10.141a16.341,16.341,0,0,1,9.88-1.909c3.131.546,6.224,2.335,9.449,5.532h0a35.279,35.279,0,0,1,9.514,17.37A26.917,26.917,0,0,1,279.45,125.7c-3.508,6.29-9.918,11.423-19.6,15.684a95.27,95.27,0,0,1-9.159,3.371.218.218,0,0,1-.082,0C249.446,144.811,248.284,144.827,247.122,144.827Zm3.464-.349Zm-47.2-5.788c6.623,3.273,14.806,3.851,22.034,4.364l4.13.306a197.706,197.706,0,0,0,20.976.824,96.106,96.106,0,0,0,9.061-3.339c9.563-4.211,15.88-9.274,19.323-15.433,3.017-5.417,3.819-11.882,2.357-18.69a34.706,34.706,0,0,0-9.356-17.07h0c-3.137-3.115-6.121-4.872-9.132-5.373a15.769,15.769,0,0,0-9.519,1.855c-4.828,2.417-8.794,6.29-12.629,10.038-2.018,1.964-4.1,4-6.29,5.81a102.369,102.369,0,0,1-10.13,7.092c-2.728,1.757-5.564,3.568-8.183,5.553-7.141,5.412-11.331,11.314-12.449,17.555A19.787,19.787,0,0,0,203.382,138.69Z" transform="translate(-54.968 -23.851)"/><path class="e" d="M274.357,84.784c-2.591-2.569-5.69-4.85-9.274-5.455a16.126,16.126,0,0,0-9.7,1.882c-7.4,3.71-12.6,10.611-18.973,15.886-5.717,4.724-12.4,8.15-18.313,12.623s-11.254,10.436-12.547,17.735c-.791,4.441-.327,7.861,1.091,10.458,6.688,2.64,14.527,3.044,21.434,3.551,5.133.376,10.234.8,15.313.982a118.139,118.139,0,0,0,18.608-6c7.741-3.41,15.346-8.183,19.459-15.558C287.81,109.393,283.7,94.063,274.357,84.784Z" transform="translate(-56.116 -21.863)"/><path class="b" d="M243.079,142.5h0c-4.2-.153-8.494-.475-12.645-.786l-4.108-.3c-6.475-.464-13.813-.993-20.081-3.47a.278.278,0,0,1-.142-.12c-1.495-2.777-1.866-6.355-1.091-10.638,1.14-6.383,5.406-12.405,12.667-17.9,2.64-2,5.455-3.819,8.227-5.575a102.743,102.743,0,0,0,10.076-7.043c2.182-1.8,4.25-3.819,6.252-5.783,3.846-3.775,7.872-7.665,12.782-10.136a16.332,16.332,0,0,1,9.863-1.9c3.131.546,6.214,2.329,9.438,5.526h0a35.218,35.218,0,0,1,9.509,17.353,26.924,26.924,0,0,1-2.411,19.093c-3.508,6.29-9.912,11.418-19.59,15.678a119.07,119.07,0,0,1-18.652,6Zm-36.55-5.024c6.17,2.417,13.42,2.935,19.824,3.393l4.113.3c4.135.311,8.407.633,12.585.786a118.561,118.561,0,0,0,18.548-5.974c9.563-4.211,15.886-9.274,19.328-15.444,3.022-5.417,3.819-11.887,2.362-18.7a34.707,34.707,0,0,0-9.361-17.08c-3.142-3.115-6.132-4.877-9.143-5.379a15.818,15.818,0,0,0-9.536,1.855c-4.828,2.422-8.794,6.3-12.634,10.043-2.013,1.964-4.1,4-6.284,5.81a103.294,103.294,0,0,1-10.13,7.092c-2.728,1.751-5.564,3.568-8.183,5.553-7.146,5.412-11.342,11.32-12.46,17.566C204.794,131.4,205.127,134.828,206.529,137.48Z" transform="translate(-55.868 -21.642)"/><path class="d" d="M111.161,147.411c2.968.409,5.75,1.637,8.761,1.637a55.188,55.188,0,0,0,8.308-1.091c6.132-5.352,8.357-11.9,8.461-19.5-4.315-5.062-20.015-8.281-25.432-1.7-6.606,8.025-5.7,14.227-1.386,19.29a18,18,0,0,0,1.287,1.358Z" transform="translate(-11.261 -41.808)"/><path class="b" d="M119.657,149.071a21.308,21.308,0,0,1-5.281-.884,29.861,29.861,0,0,0-3.491-.753.338.338,0,0,1-.153-.076c-.447-.436-.889-.9-1.3-1.391-5.062-5.941-4.61-12.362,1.38-19.639,1.986-2.411,5.575-3.764,10.1-3.819,6.148-.065,13.093,2.362,15.755,5.493a.284.284,0,0,1,.065.185c-.12,8.45-2.837,14.729-8.554,19.7a.256.256,0,0,1-.136.06l-2.078.36a35.965,35.965,0,0,1-6.274.753Zm-8.608-2.182a32.529,32.529,0,0,1,3.464.753,21.026,21.026,0,0,0,5.144.867h0a36.232,36.232,0,0,0,6.175-.742c.671-.12,1.342-.24,2.013-.349,5.532-4.85,8.183-10.911,8.308-19.143-2.624-2.989-9.274-5.292-15.275-5.226-4.364.033-7.8,1.315-9.683,3.606-5.794,7.043-6.246,13.234-1.386,18.941.415.469.824.906,1.238,1.309Z" transform="translate(-11.023 -41.558)"/><path class="a" d="M130.348,139.959c-6.492,5.532-13.207,4.162-17.522-.9s-4.593-11.909,1.9-17.457,17.31-7.637,21.619-2.6S136.845,134.428,130.348,139.959Z" transform="translate(-12.729 -38.666)"/><path class="b" d="M121.482,143.556a11.854,11.854,0,0,1-9.078-4.544c-4.85-5.7-4.1-12.689,1.931-17.822,6.481-5.521,17.506-7.845,22.007-2.564s.453,15.82-6.028,21.319h0A13.726,13.726,0,0,1,121.482,143.556Zm6.939-27.336A21.726,21.726,0,0,0,114.69,121.6c-7.01,5.968-5.559,12.722-1.871,17.059s10.136,6.835,17.14.867h0c7.637-6.546,9.5-16.4,5.963-20.55C134.4,117.191,131.656,116.22,128.421,116.22Zm1.713,23.518Z" transform="translate(-12.516 -38.444)"/><circle class="e" cx="8.008" cy="8.008" r="8.008" transform="translate(100.811 84.955)"/><path class="b" d="M124.544,145.92a8.27,8.27,0,1,1,5.363-1.969h0a8.237,8.237,0,0,1-5.363,1.969Zm0-16.006a7.736,7.736,0,1,0,5.019,13.638h0a7.736,7.736,0,0,0-5.019-13.638Zm5.2,13.829Z" transform="translate(-15.72 -44.681)"/><path class="d" d="M173.84,197.021s2.531,2.182,8.057,0a19.666,19.666,0,0,0,1.778-10.774c-.747-6.088-6.546-11.347-6.546-11.347Z" transform="translate(-41.88 -65.369)"/><path class="b" d="M177.108,198.033A5.8,5.8,0,0,1,173.431,197a.278.278,0,0,1-.093-.245l3.273-22.121a.267.267,0,0,1,.175-.218.284.284,0,0,1,.278.055c.24.218,5.881,5.4,6.634,11.516a19.776,19.776,0,0,1-1.811,10.938.267.267,0,0,1-.142.125A12.814,12.814,0,0,1,177.108,198.033Zm-3.2-1.358c.546.355,2.984,1.637,7.566-.093a19.639,19.639,0,0,0,1.7-10.523c-.616-5.024-4.8-9.536-6.083-10.818Zm-.295.12Z" transform="translate(-41.65 -65.143)"/><path class="a" d="M143.68,177.182a14.365,14.365,0,0,0,.791,1.637c.753,1.331,1.975,3.055,3.48,3.431a12.351,12.351,0,0,1,7,5.417c1.053,1.811,1.511,3.393,2.8,5.057a12.945,12.945,0,0,0,2.379,2.351s6.284-7.872,6.094-15.275a9.043,9.043,0,0,0-2.619-6.677l-.18-.169a10.609,10.609,0,0,0-7.506-2.335C151.421,170.821,146.435,174.095,143.68,177.182Z" transform="translate(-28.173 -63.418)"/><path class="b" d="M159.9,195.161a.245.245,0,0,1-.164-.06,13.18,13.18,0,0,1-2.433-2.395,16.053,16.053,0,0,1-1.8-3.12c-.306-.633-.616-1.287-1.015-1.969a12.045,12.045,0,0,0-6.83-5.286c-1.577-.4-2.859-2.182-3.65-3.568a15.526,15.526,0,0,1-.813-1.669.273.273,0,0,1,.055-.278c2.728-3.071,7.785-6.465,12.427-6.655a10.978,10.978,0,0,1,7.7,2.406c.06.055.125.109.191.175a9.456,9.456,0,0,1,2.695,6.868c.191,7.414-5.892,15.127-6.148,15.449A.273.273,0,0,1,159.9,195.161ZM143.769,177.05a15.586,15.586,0,0,0,.715,1.446c.742,1.315,1.915,2.951,3.306,3.306a12.624,12.624,0,0,1,7.174,5.543c.4.7.72,1.364,1.031,2.008a15.957,15.957,0,0,0,1.74,3.022,12.2,12.2,0,0,0,2.122,2.128c.987-1.309,6.034-8.336,5.864-14.877a8.887,8.887,0,0,0-2.531-6.492,2.294,2.294,0,0,0-.175-.158,10.43,10.43,0,0,0-7.316-2.269c-4.435.158-9.247,3.371-11.931,6.323Z" transform="translate(-27.945 -63.209)"/><path class="e" d="M145.13,184.338c.753,1.331,1.975,3.055,3.48,3.431a12.351,12.351,0,0,1,7,5.417c1.053,1.811,1.511,3.393,2.8,5.057,1.222-2.466,2.346-7.026-1.833-12.269C152.9,181.36,148.332,182.549,145.13,184.338Z" transform="translate(-28.832 -68.938)"/><path class="b" d="M158.194,198.281a.278.278,0,0,1-.218-.1,16.054,16.054,0,0,1-1.8-3.12c-.305-.633-.616-1.287-1.015-1.969a12.045,12.045,0,0,0-6.83-5.286c-1.577-.4-2.859-2.182-3.65-3.568a.251.251,0,0,1,0-.207.3.3,0,0,1,.131-.164c3.273-1.849,8-3.055,11.789,1.707,4.364,5.455,3.033,10.207,1.866,12.547a.284.284,0,0,1-.218.147Zm-12.9-14.075c.747,1.266,1.866,2.728,3.17,3.066a12.623,12.623,0,0,1,7.174,5.543c.4.7.72,1.364,1.031,2.008a17.3,17.3,0,0,0,1.473,2.657c1.042-2.351,1.92-6.661-1.991-11.571-3.459-4.348-7.768-3.371-10.856-1.7Z" transform="translate(-28.618 -68.702)"/><path class="a" d="M193.281,105.69a17.241,17.241,0,0,0-5.712,3.191c-2.275,2.182-3.306,5.319-5.341,7.7a13.431,13.431,0,0,1-9.012,4.424,4.63,4.63,0,0,1-3.235-.633,1.969,1.969,0,0,1-.344-2.913c.278-.24.644-.366.916-.606a.726.726,0,0,0,.191-.971c-.3-.338-.856-.093-1.206.2-1.091.889-1.98,2.3-1.544,3.622s1.991,1.92,3.371,2.182c4.179.742,8.952-.262,11.56-3.611a23.5,23.5,0,0,0,2.253-4.1,18.051,18.051,0,0,1,3.415-4.964,9.208,9.208,0,0,1,5.3-2.689c.442-.049,2.728-.142,2.117-1.091C195.577,104.676,193.832,105.478,193.281,105.69Z" transform="translate(-39.172 -33.653)"/><path class="c" d="M173.769,122.113a15.566,15.566,0,0,1-2.679-.24c-1.948-.349-3.186-1.162-3.579-2.351-.5-1.495.513-3,1.637-3.917.5-.409,1.184-.622,1.587-.164a.747.747,0,0,1,.185.546,1.178,1.178,0,0,1-.4.791,2.809,2.809,0,0,1-.513.344,3.313,3.313,0,0,0-.409.267,1.244,1.244,0,0,0-.409,1.009,2,2,0,0,0,.715,1.5,4.479,4.479,0,0,0,3.039.578,13.142,13.142,0,0,0,8.832-4.337,23.421,23.421,0,0,0,2.28-3.431,18.549,18.549,0,0,1,3.077-4.288,18.13,18.13,0,0,1,5.8-3.273h0l.175-.071c.829-.338,2.373-.971,2.886-.12a.736.736,0,0,1,.065.736c-.278.546-1.233.693-2.226.78h-.158a8.985,8.985,0,0,0-5.144,2.613,17.555,17.555,0,0,0-3.355,4.91l-.409.851a17.285,17.285,0,0,1-1.877,3.273C180.959,120.678,177.539,122.113,173.769,122.113Zm-3.639-6.383a1.228,1.228,0,0,0-.649.295c-.922.764-1.86,2.095-1.451,3.328s1.942,1.768,3.159,1.986c4.566.813,9-.546,11.292-3.513a17.087,17.087,0,0,0,1.817-3.2c.136-.284.273-.546.415-.851a17.92,17.92,0,0,1,3.464-5.041,9.541,9.541,0,0,1,5.455-2.766h.175c1.331-.12,1.708-.327,1.784-.486,0,0,.038-.071-.044-.207-.18-.3-.922-.185-2.182.338l-.185.076a16.318,16.318,0,0,0-5.624,3.137A18.144,18.144,0,0,0,184.57,113a23.9,23.9,0,0,1-2.335,3.508,13.671,13.671,0,0,1-9.2,4.522,4.912,4.912,0,0,1-3.42-.687,2.526,2.526,0,0,1-.96-1.9,1.784,1.784,0,0,1,.606-1.435,2.671,2.671,0,0,1,.485-.322,2.508,2.508,0,0,0,.426-.284.622.622,0,0,0,.218-.415.213.213,0,0,0-.049-.169A.24.24,0,0,0,170.13,115.73Z" transform="translate(-38.945 -33.388)"/><path class="a" d="M202.147,215.586a15.5,15.5,0,0,0,4.364,1.015c2.477.049,5.112-1.189,7.31-.06.235.12.48.305.486.546,0,.426-.546.584-.982.6l-5.455.191a17.884,17.884,0,0,1-3.584-.109c-1.784-.289-3.47-1.091-5.275-1.233-1.931-.131-3.273.824-4.981,1.391C194.352,214.1,199.742,214.8,202.147,215.586Z" transform="translate(-51.055 -83.579)"/><path class="b" d="M193.772,217.991a.278.278,0,0,1-.273-.295,3.126,3.126,0,0,1,1.38-2.455c1.958-1.3,5.379-.7,7.092-.147h0l.355.115a13.715,13.715,0,0,0,3.95.889,15.4,15.4,0,0,0,2.619-.267c1.637-.262,3.311-.546,4.812.24.507.262.627.578.633.8,0,.507-.469.851-1.244.884l-5.455.191a18.493,18.493,0,0,1-3.639-.109,19.218,19.218,0,0,1-2.318-.584,13.936,13.936,0,0,0-2.929-.649,7.326,7.326,0,0,0-3.475.824c-.453.191-.911.387-1.4.546a.245.245,0,0,1-.1.022Zm4.621-1.948h.376a14.325,14.325,0,0,1,3.055.671,13.452,13.452,0,0,0,5.777.671l5.455-.191c.3,0,.726-.12.715-.316,0-.1-.125-.224-.338-.333-1.342-.687-2.864-.447-4.473-.185a15.705,15.705,0,0,1-2.728.273,14.292,14.292,0,0,1-4.108-.916l-.355-.115c-1.506-.491-4.828-1.091-6.612.087a2.482,2.482,0,0,0-1.091,1.637c.322-.126.633-.256.938-.387a8.423,8.423,0,0,1,3.41-.895Z" transform="translate(-50.814 -83.349)"/><path class="a" d="M119.216,172.236a71.412,71.412,0,0,1-8.368-4.364l-1.435-1.337a5.421,5.421,0,0,1-1.091-1.249,5.294,5.294,0,0,1-.1-3.906,1.9,1.9,0,0,0,0-1.44,1.691,1.691,0,0,0-.764-.611,35.177,35.177,0,0,0-5.155-1.527c-4.081-1.238-7.534-5.908-8.461-9.961a13.606,13.606,0,0,1,2.182-10.867c.5-.676,1.091-1.435.911-2.258a1.421,1.421,0,0,0-2.515-.344c-.3.578-.207,1.38-.726,1.762-.693.513-1.691-.42-1.566-1.266a3.187,3.187,0,0,1,1.56-1.909c1.26-.889,2.946-1.735,4.255-.922a2.831,2.831,0,0,1,1.189,2.182c.289,3.41-3.415,5.892-4.064,9.274a8.117,8.117,0,0,0,.136,3.18,15.493,15.493,0,0,0,13.425,11.854,2.5,2.5,0,0,1,1.506.436,1.93,1.93,0,0,1,.185,2.128,8.576,8.576,0,0,0-.873,2.089c-.229,1.609,1.238,2.9,2.553,3.851Z" transform="translate(-4.74 -45.74)"/><path class="c" d="M119,172.238a.245.245,0,0,1-.109,0,72.461,72.461,0,0,1-8.4-4.364l-.044-.033-1.435-1.342a5.771,5.771,0,0,1-1.151-1.309,5.558,5.558,0,0,1-.12-4.108,1.7,1.7,0,0,0,0-1.238,1.446,1.446,0,0,0-.649-.5,15.908,15.908,0,0,0-3.273-1.037c-.6-.142-1.222-.295-1.828-.475-4.25-1.293-7.736-6.181-8.647-10.163A13.862,13.862,0,0,1,95.6,136.582l.071-.1c.458-.627.938-1.282.8-1.942a1.162,1.162,0,0,0-2.013-.278,2.8,2.8,0,0,0-.2.666,1.882,1.882,0,0,1-.6,1.189,1.091,1.091,0,0,1-1.222,0,1.637,1.637,0,0,1-.78-1.538,3.421,3.421,0,0,1,1.68-2.122c1.882-1.326,3.415-1.637,4.555-.933a3.093,3.093,0,0,1,1.315,2.395c.175,2-.966,3.7-2.068,5.335a11.5,11.5,0,0,0-2,3.993,7.889,7.889,0,0,0,.136,3.1,15.309,15.309,0,0,0,13.185,11.636,2.7,2.7,0,0,1,1.637.507,2.2,2.2,0,0,1,.256,2.433c-.1.235-.218.464-.338.7a4.2,4.2,0,0,0-.513,1.326c-.207,1.457,1.195,2.684,2.438,3.59l7.19,5.221a.267.267,0,0,1,.076.355A.273.273,0,0,1,119,172.238Zm-8.183-4.817c1.844,1.091,3.786,2.182,5.8,3.137l-4.948-3.59c-1.369-1-2.908-2.362-2.657-4.108a4.752,4.752,0,0,1,.546-1.506c.109-.213.224-.431.316-.655a1.637,1.637,0,0,0-.12-1.811,2.182,2.182,0,0,0-1.3-.366,15.854,15.854,0,0,1-13.709-12.073,8.259,8.259,0,0,1-.136-3.273,11.766,11.766,0,0,1,2.078-4.2c1.091-1.637,2.133-3.175,1.98-4.981a2.575,2.575,0,0,0-1.058-1.98c-.938-.578-2.269-.273-3.955.916a2.951,2.951,0,0,0-1.457,1.751,1.091,1.091,0,0,0,.546.993.546.546,0,0,0,.611,0,1.407,1.407,0,0,0,.393-.873,3.306,3.306,0,0,1,.256-.8,1.691,1.691,0,0,1,3.022.415,3.089,3.089,0,0,1-.884,2.379l-.071.1a13.327,13.327,0,0,0-2.182,10.643c.884,3.819,4.217,8.527,8.276,9.759.589.18,1.206.327,1.8.469a16.367,16.367,0,0,1,3.4,1.091,1.991,1.991,0,0,1,.884.715,2.226,2.226,0,0,1,.033,1.637,5.011,5.011,0,0,0,.065,3.7,5.374,5.374,0,0,0,1.047,1.184Z" transform="translate(-4.526 -45.49)"/><path class="c" d="M162.039,217.415c-34.8,0-55.769-18.586-55.977-18.772a.273.273,0,0,1,0-.387.267.267,0,0,1,.382,0c.207.191,21.025,18.635,55.611,18.635s56.626-20.561,56.844-20.768a.267.267,0,0,1,.382,0,.273.273,0,0,1,0,.387C219.036,196.707,196.844,217.415,162.039,217.415Z" transform="translate(-11.04 -74.978)"/><path class="b" d="M256.806,145.058a.276.276,0,1,1-.082-.546l21.93-6.923a.272.272,0,0,1,.164.518l-21.93,6.928Z" transform="translate(-79.442 -48.407)"/><path class="b" d="M255.625,166.419a18.368,18.368,0,0,1-3.584-.213.262.262,0,0,1-.191-.333.273.273,0,0,1,.333-.191c1.98.546,14.44-.2,14.566-.213a.273.273,0,0,1,.289.256.278.278,0,0,1-.256.289C266.4,166.037,259.951,166.419,255.625,166.419Z" transform="translate(-77.328 -61.083)"/><path class="b" d="M253,94.63a.273.273,0,0,1-.273-.262.267.267,0,0,1,.256-.284l7.97-.426a.256.256,0,0,1,.284.256.273.273,0,0,1-.256.289l-7.97.426Z" transform="translate(-77.733 -28.447)"/><path class="b" d="M246.231,106.5a.274.274,0,1,1-.049-.546l7.665-1.375a.278.278,0,0,1,.316.224.273.273,0,0,1-.218.316l-7.665,1.369Z" transform="translate(-74.644 -33.408)"/><path class="a" d="M150.434,84.27a.257.257,0,0,1-.164-.055,43.13,43.13,0,0,1-7.659-7.97c-3.644-4.822-8.15-18.619-8.816-20.7l-15.078,3.748a.273.273,0,0,1-.333-.2.278.278,0,0,1,.2-.333l15.351-3.819a.273.273,0,0,1,.327.18c.049.158,5,15.749,8.8,20.785a42.9,42.9,0,0,0,7.556,7.85.273.273,0,0,1-.164.491Z" transform="translate(-16.673 -10.848)"/><path class="e" d="M211.95,185.552c-1.238-2.924-6.094-.355-7.637.676a4.25,4.25,0,0,0-1.386,1.347,1.811,1.811,0,0,0,0,1.855,2.4,2.4,0,0,0,2.084.775C206.877,190.189,213.183,188.482,211.95,185.552Zm-3.4,1.92a6.432,6.432,0,0,1-3.41.464c-.125,0-.289-.06-.322-.185a.349.349,0,0,1,.033-.2,3.682,3.682,0,0,1,2.422-1.958,16.218,16.218,0,0,1,3.655-.676C210.876,186.01,209.463,187.063,208.552,187.472Z" transform="translate(-54.983 -69.595)"/><path class="b" d="M204.7,190.251a2.529,2.529,0,0,1-2.242-.895,2.051,2.051,0,0,1,0-2.138,4.517,4.517,0,0,1,1.473-1.44c.164-.109,4.026-2.684,6.5-1.948a2.324,2.324,0,0,1,1.527,1.386h0a2.073,2.073,0,0,1-.2,2.046c-1.282,1.948-5.483,2.979-6.994,2.99Zm4.784-6a11,11,0,0,0-5.237,1.986,4.027,4.027,0,0,0-1.3,1.255,1.544,1.544,0,0,0-.033,1.566,2.041,2.041,0,0,0,1.855.655c1.457,0,5.455-1.058,6.546-2.728a1.522,1.522,0,0,0,.147-1.533h0a1.92,1.92,0,0,0-.491-.709c-.076,1.227-1.555,2.329-2.537,2.777a6.66,6.66,0,0,1-3.557.48c-.4-.044-.546-.262-.546-.387a.649.649,0,0,1,.044-.36,3.928,3.928,0,0,1,2.6-2.117,16.3,16.3,0,0,1,3.54-.682,1.474,1.474,0,0,0-.218-.076,2.63,2.63,0,0,0-.807-.131Zm-4.61,3.18h.06a6.187,6.187,0,0,0,3.273-.436h0a4.371,4.371,0,0,0,2.182-2.013,15.959,15.959,0,0,0-3.273.644,3.4,3.4,0,0,0-2.242,1.8Z" transform="translate(-54.75 -69.367)"/><path class="e" d="M242.665,199.117c-.169-3.17-5.608-2.395-7.392-1.948a4.261,4.261,0,0,0-1.762.8,1.806,1.806,0,0,0-.655,1.735,2.427,2.427,0,0,0,1.7,1.435C236.32,201.763,242.834,202.292,242.665,199.117Zm-3.846.655a6.4,6.4,0,0,1-3.36-.72c-.12-.06-.256-.153-.24-.284a.322.322,0,0,1,.093-.175,3.693,3.693,0,0,1,2.946-1.02,15.891,15.891,0,0,1,3.666.606C241.5,199.182,239.817,199.7,238.819,199.771Z" transform="translate(-68.688 -75.299)"/><path class="b" d="M237.888,201.648a12.6,12.6,0,0,1-3.65-.491,2.57,2.57,0,0,1-1.871-1.637,2.057,2.057,0,0,1,.736-2.008,4.539,4.539,0,0,1,1.871-.856c.191-.049,4.7-1.162,6.77.371a2.3,2.3,0,0,1,.966,1.822h0a2.051,2.051,0,0,1-.878,1.855A6.826,6.826,0,0,1,237.888,201.648Zm.546-4.866a14.407,14.407,0,0,0-3.317.415,4.037,4.037,0,0,0-1.637.742,1.533,1.533,0,0,0-.546,1.457c.136.546.649.944,1.522,1.244,1.375.486,5.455.851,7.092-.36a1.544,1.544,0,0,0,.666-1.386h0a1.931,1.931,0,0,0-.229-.835c-.486,1.124-2.253,1.637-3.328,1.746a6.715,6.715,0,0,1-3.508-.747c-.366-.18-.4-.426-.387-.546a.584.584,0,0,1,.164-.322,3.9,3.9,0,0,1,3.159-1.091,16.29,16.29,0,0,1,3.557.546c-.055-.049-.109-.1-.175-.147a5.292,5.292,0,0,0-3.039-.715Zm-3.137,1.751.06.033a6.142,6.142,0,0,0,3.219.7h0A4.343,4.343,0,0,0,241.3,198.1a16.181,16.181,0,0,0-3.273-.5,3.415,3.415,0,0,0-2.739.927Z" transform="translate(-68.461 -75.059)"/><path class="e" d="M232.063,193.087c-.169-3.17-5.608-2.395-7.4-1.948a4.261,4.261,0,0,0-1.762.8,1.789,1.789,0,0,0-.649,1.735,2.431,2.431,0,0,0,1.7,1.435C225.718,195.727,232.232,196.262,232.063,193.087Zm-3.819.655a6.47,6.47,0,0,1-3.366-.72c-.115-.06-.251-.153-.24-.284a.333.333,0,0,1,.1-.175,3.682,3.682,0,0,1,2.94-1.02,15.6,15.6,0,0,1,3.671.606c-.453,1-2.155,1.517-3.131,1.593Z" transform="translate(-63.869 -72.558)"/><path class="b" d="M227.278,195.618a12.581,12.581,0,0,1-3.644-.491,2.59,2.59,0,0,1-1.877-1.637,2.057,2.057,0,0,1,.736-2.008,4.452,4.452,0,0,1,1.877-.857c.191-.049,4.692-1.162,6.77.371a2.319,2.319,0,0,1,.966,1.822h0a2.079,2.079,0,0,1-.878,1.855A6.887,6.887,0,0,1,227.278,195.618Zm.546-4.866a14.184,14.184,0,0,0-3.322.415,4,4,0,0,0-1.637.736,1.549,1.549,0,0,0-.546,1.462c.136.546.649.944,1.527,1.244,1.369.486,5.455.846,7.092-.36a1.527,1.527,0,0,0,.66-1.391h0a1.9,1.9,0,0,0-.224-.829c-.485,1.124-2.253,1.637-3.328,1.746a6.661,6.661,0,0,1-3.508-.753c-.366-.18-.4-.42-.393-.546a.6.6,0,0,1,.164-.327,3.944,3.944,0,0,1,3.164-1.091,16.672,16.672,0,0,1,3.557.546l-.18-.147A5.275,5.275,0,0,0,227.824,190.752Zm-3.137,1.751.055.033a6.148,6.148,0,0,0,3.224.693h0a4.321,4.321,0,0,0,2.728-1.157,16.238,16.238,0,0,0-3.273-.5,3.4,3.4,0,0,0-2.733.927Z" transform="translate(-63.639 -72.318)"/><path class="e" d="M194.873,120.937c-.175-3.17-5.608-2.395-7.4-1.948a4.26,4.26,0,0,0-1.762.8,1.789,1.789,0,0,0-.649,1.735,2.418,2.418,0,0,0,1.7,1.435C188.528,123.583,195.042,124.112,194.873,120.937Zm-3.819.655a6.41,6.41,0,0,1-3.366-.72c-.115-.06-.251-.153-.24-.284a.354.354,0,0,1,.1-.175,3.661,3.661,0,0,1,2.94-1.015,15.935,15.935,0,0,1,3.671.6c-.453.987-2.133,1.533-3.142,1.593Z" transform="translate(-46.967 -39.768)"/><path class="b" d="M190.088,123.478a12.548,12.548,0,0,1-3.644-.491,2.57,2.57,0,0,1-1.877-1.637,2.057,2.057,0,0,1,.736-2.008,4.588,4.588,0,0,1,1.877-.856c.191-.049,4.692-1.162,6.77.371a2.335,2.335,0,0,1,.966,1.822h0a2.073,2.073,0,0,1-.884,1.855A6.857,6.857,0,0,1,190.088,123.478Zm.546-4.866a14.457,14.457,0,0,0-3.322.415,4.015,4.015,0,0,0-1.637.742,1.533,1.533,0,0,0-.546,1.457c.136.546.649.944,1.522,1.249,1.375.48,5.455.846,7.092-.365a1.544,1.544,0,0,0,.66-1.391,1.926,1.926,0,0,0-.224-.829c-.491,1.124-2.258,1.637-3.328,1.746a6.65,6.65,0,0,1-3.508-.747c-.371-.18-.4-.426-.393-.546a.584.584,0,0,1,.164-.322,3.9,3.9,0,0,1,3.159-1.091,16.366,16.366,0,0,1,3.562.546l-.18-.147a5.275,5.275,0,0,0-3.022-.72Zm-3.12,1.746.06.033a6.164,6.164,0,0,0,3.224.7h0a4.326,4.326,0,0,0,2.728-1.162,16.125,16.125,0,0,0-3.273-.5,3.415,3.415,0,0,0-2.739.927Z" transform="translate(-46.737 -39.533)"/><path class="e" d="M183.354,134.165c-.169-3.17-5.608-2.4-7.4-1.948a4.261,4.261,0,0,0-1.762.8,1.789,1.789,0,0,0-.649,1.729,2.425,2.425,0,0,0,1.7,1.44C177.009,136.816,183.523,137.362,183.354,134.165Zm-3.846.655a6.47,6.47,0,0,1-3.366-.72c-.115-.06-.251-.153-.24-.284a.333.333,0,0,1,.1-.175,3.682,3.682,0,0,1,2.94-1.02,15.936,15.936,0,0,1,3.671.6C182.186,134.23,180.506,134.743,179.508,134.82Z" transform="translate(-41.732 -45.779)"/><path class="b" d="M178.568,136.7a12.546,12.546,0,0,1-3.644-.491,2.59,2.59,0,0,1-1.877-1.637,2.057,2.057,0,0,1,.736-2.008,4.451,4.451,0,0,1,1.877-.856c.191-.049,4.692-1.162,6.77.366a2.329,2.329,0,0,1,.966,1.828h0a2.078,2.078,0,0,1-.878,1.855A6.887,6.887,0,0,1,178.568,136.7Zm.546-4.866a14.182,14.182,0,0,0-3.322.415,4,4,0,0,0-1.637.736,1.549,1.549,0,0,0-.546,1.462c.136.546.649.944,1.528,1.244,1.369.486,5.455.846,7.092-.36a1.533,1.533,0,0,0,.66-1.391h0a1.9,1.9,0,0,0-.224-.829c-.486,1.124-2.253,1.637-3.328,1.746a6.661,6.661,0,0,1-3.508-.753c-.371-.18-.4-.42-.393-.546a.6.6,0,0,1,.164-.327,3.917,3.917,0,0,1,3.164-1.091,16.617,16.617,0,0,1,3.557.546l-.18-.147A5.275,5.275,0,0,0,179.114,131.831Zm-3.137,1.751.055.033a6.164,6.164,0,0,0,3.224.693h0a4.321,4.321,0,0,0,2.728-1.157,16.24,16.24,0,0,0-3.273-.5,3.4,3.4,0,0,0-2.733.927Z" transform="translate(-41.502 -45.54)"/><path class="e" d="M122.434,182.195c-.175-3.17-5.608-2.4-7.4-1.948a4.321,4.321,0,0,0-1.762.8,1.8,1.8,0,0,0-.649,1.735,2.4,2.4,0,0,0,1.7,1.435C116.089,184.83,122.6,185.375,122.434,182.195Zm-3.819.655a6.459,6.459,0,0,1-3.366-.72c-.115-.06-.251-.153-.24-.284a.333.333,0,0,1,.1-.175,3.66,3.66,0,0,1,2.94-1.02,15.935,15.935,0,0,1,3.671.6c-.453,1.009-2.133,1.522-3.131,1.6Z" transform="translate(-14.046 -67.607)"/><path class="b" d="M117.648,184.727a12.547,12.547,0,0,1-3.644-.491,2.58,2.58,0,0,1-1.877-1.637,2.057,2.057,0,0,1,.736-2.008,4.424,4.424,0,0,1,1.877-.857c.191-.049,4.692-1.162,6.77.366a2.346,2.346,0,0,1,.966,1.828h0a2.073,2.073,0,0,1-.884,1.855A6.857,6.857,0,0,1,117.648,184.727Zm.546-4.866a14.474,14.474,0,0,0-3.322.409,4.054,4.054,0,0,0-1.637.742,1.538,1.538,0,0,0-.546,1.462c.136.546.649.944,1.522,1.244,1.375.486,5.455.846,7.092-.36a1.549,1.549,0,0,0,.66-1.391h0a1.9,1.9,0,0,0-.224-.829c-.491,1.124-2.258,1.637-3.328,1.746a6.661,6.661,0,0,1-3.508-.753c-.371-.18-.4-.42-.393-.546a.627.627,0,0,1,.164-.327,3.911,3.911,0,0,1,3.159-1.091,16.667,16.667,0,0,1,3.562.546,1.179,1.179,0,0,0-.18-.147A5.275,5.275,0,0,0,118.194,179.861Zm-3.142,1.751.06.033a6.2,6.2,0,0,0,3.224.693h0a4.321,4.321,0,0,0,2.728-1.157,16.125,16.125,0,0,0-3.273-.5,3.415,3.415,0,0,0-2.739.927Z" transform="translate(-13.815 -67.368)"/><path class="e" d="M264.883,193.087c-.175-3.17-5.608-2.395-7.4-1.948a4.261,4.261,0,0,0-1.762.8,1.789,1.789,0,0,0-.649,1.735,2.431,2.431,0,0,0,1.7,1.435C258.538,195.727,265.052,196.262,264.883,193.087Zm-3.846.655a6.459,6.459,0,0,1-3.366-.72c-.115-.06-.251-.153-.24-.284a.333.333,0,0,1,.1-.175,3.682,3.682,0,0,1,2.94-1.02,15.65,15.65,0,0,1,3.671.606c-.426,1-2.106,1.517-3.12,1.593Z" transform="translate(-78.784 -72.558)"/><path class="b" d="M260.1,195.623a12.546,12.546,0,0,1-3.644-.491,2.58,2.58,0,0,1-1.877-1.637,2.057,2.057,0,0,1,.736-2.008,4.451,4.451,0,0,1,1.877-.851c.191-.049,4.692-1.162,6.77.371a2.335,2.335,0,0,1,.966,1.822h0a2.078,2.078,0,0,1-.878,1.855A6.886,6.886,0,0,1,260.1,195.623Zm.546-4.866a14.183,14.183,0,0,0-3.322.415,4,4,0,0,0-1.637.736,1.538,1.538,0,0,0-.546,1.462c.136.546.649.944,1.527,1.244,1.369.486,5.455.846,7.092-.36a1.544,1.544,0,0,0,.66-1.391,1.9,1.9,0,0,0-.224-.829c-.491,1.124-2.253,1.637-3.328,1.746a6.606,6.606,0,0,1-3.508-.753c-.371-.18-.4-.42-.393-.546a.583.583,0,0,1,.164-.322,3.917,3.917,0,0,1,3.159-1.118,16.663,16.663,0,0,1,3.562.546l-.18-.147A5.275,5.275,0,0,0,260.644,190.757Zm-3.126,1.751.06.033a6.148,6.148,0,0,0,3.224.693h0a4.321,4.321,0,0,0,2.728-1.157,16.124,16.124,0,0,0-3.273-.5A3.409,3.409,0,0,0,257.518,192.508Z" transform="translate(-78.555 -72.323)"/><path class="e" d="M263.363,204.4c-.169-3.17-5.608-2.395-7.4-1.948a4.26,4.26,0,0,0-1.762.8,1.789,1.789,0,0,0-.649,1.735,2.44,2.44,0,0,0,1.7,1.435C257.018,207.037,263.532,207.572,263.363,204.4Zm-3.846.655a6.47,6.47,0,0,1-3.366-.72c-.115-.06-.251-.153-.24-.284a.371.371,0,0,1,.1-.175,3.688,3.688,0,0,1,2.94-1.02,15.891,15.891,0,0,1,3.671.606c-.426,1-2.106,1.517-3.1,1.593Z" transform="translate(-78.094 -77.698)"/><path class="b" d="M258.581,206.935a12.58,12.58,0,0,1-3.644-.491,2.56,2.56,0,0,1-1.871-1.637,2.035,2.035,0,0,1,.736-2.008,4.4,4.4,0,0,1,1.871-.857c1.637-.409,5.106-.856,6.77.371a2.3,2.3,0,0,1,.966,1.822h0a2.068,2.068,0,0,1-.878,1.855A6.93,6.93,0,0,1,258.581,206.935Zm.546-4.866a14.368,14.368,0,0,0-3.317.415,3.966,3.966,0,0,0-1.637.742,1.533,1.533,0,0,0-.545,1.457c.136.546.649.944,1.522,1.244,1.375.486,5.455.851,7.092-.36a1.527,1.527,0,0,0,.66-1.391h0a1.855,1.855,0,0,0-.224-.829c-.486,1.124-2.253,1.637-3.328,1.746a6.672,6.672,0,0,1-3.508-.753c-.366-.18-.4-.42-.393-.546a.622.622,0,0,1,.164-.322,3.928,3.928,0,0,1,3.164-1.118,16.673,16.673,0,0,1,3.557.546l-.175-.147A5.291,5.291,0,0,0,259.126,202.068Zm-3.137,1.751.06.033a6.137,6.137,0,0,0,3.219.693h0A4.32,4.32,0,0,0,262,203.389a16.24,16.24,0,0,0-3.273-.5,3.4,3.4,0,0,0-2.733.927Z" transform="translate(-77.867 -77.465)"/><path class="e" d="M242.671,208.569c-.175-3.164-5.613-2.395-7.4-1.942a4.249,4.249,0,0,0-1.762.8,1.817,1.817,0,0,0-.655,1.735,2.415,2.415,0,0,0,1.7,1.435C236.321,211.215,242.835,211.744,242.671,208.569Zm-3.851.66a6.4,6.4,0,0,1-3.36-.726c-.115-.055-.256-.147-.24-.284a.327.327,0,0,1,.093-.169,3.671,3.671,0,0,1,2.946-1.02,15.979,15.979,0,0,1,3.671.6C241.5,208.64,239.818,209.147,238.82,209.229Z" transform="translate(-68.689 -79.596)"/><path class="b" d="M237.888,211.1a12.406,12.406,0,0,1-3.65-.491,2.57,2.57,0,0,1-1.871-1.637,2.068,2.068,0,0,1,.736-2.013,4.457,4.457,0,0,1,1.871-.851c1.637-.409,5.112-.856,6.77.366a2.313,2.313,0,0,1,.966,1.827h0a2.051,2.051,0,0,1-.878,1.855A6.826,6.826,0,0,1,237.888,211.1Zm.546-4.861a14.463,14.463,0,0,0-3.317.409,4.037,4.037,0,0,0-1.637.742,1.549,1.549,0,0,0-.546,1.462c.136.546.649.938,1.522,1.244,1.375.486,5.455.846,7.092-.36a1.549,1.549,0,0,0,.666-1.391h0a2.035,2.035,0,0,0-.246-.856c-.491,1.129-2.258,1.664-3.333,1.751a6.683,6.683,0,0,1-3.508-.753c-.365-.18-.4-.425-.387-.546a.6.6,0,0,1,.164-.327,3.911,3.911,0,0,1,3.159-1.091,16.366,16.366,0,0,1,3.562.546,1.175,1.175,0,0,0-.2-.125,5,5,0,0,0-2.995-.7Zm-3.137,1.751.06.033a6.192,6.192,0,0,0,3.219.693h0a4.314,4.314,0,0,0,2.728-1.162,16.193,16.193,0,0,0-3.273-.491,3.4,3.4,0,0,0-2.739.927Z" transform="translate(-68.461 -79.359)"/><path class="e" d="M224.146,202.6c-.169-3.164-5.608-2.395-7.392-1.942a4.152,4.152,0,0,0-1.762.8,1.817,1.817,0,0,0-.655,1.735,2.415,2.415,0,0,0,1.7,1.435C217.8,205.245,224.315,205.774,224.146,202.6Zm-3.846.66a6.4,6.4,0,0,1-3.36-.726c-.12-.055-.256-.153-.245-.284a.383.383,0,0,1,.1-.169,3.671,3.671,0,0,1,2.946-1.02,15.883,15.883,0,0,1,3.666.6c-.42,1.009-2.106,1.517-3.1,1.6Z" transform="translate(-60.272 -76.882)"/><path class="b" d="M219.368,205.126a12.6,12.6,0,0,1-3.65-.491A2.57,2.57,0,0,1,213.847,203a2.062,2.062,0,0,1,.736-2.013,4.539,4.539,0,0,1,1.871-.856c.191-.049,4.7-1.156,6.77.371a2.3,2.3,0,0,1,.966,1.822h0a2.062,2.062,0,0,1-.878,1.855A6.785,6.785,0,0,1,219.368,205.126Zm.546-4.861a14.387,14.387,0,0,0-3.317.409,4.037,4.037,0,0,0-1.637.742,1.538,1.538,0,0,0-.545,1.457c.136.546.649.944,1.522,1.249,1.375.48,5.455.846,7.092-.366a1.522,1.522,0,0,0,.66-1.386h0a1.855,1.855,0,0,0-.224-.835c-.486,1.129-2.253,1.664-3.328,1.746a6.6,6.6,0,0,1-3.508-.747c-.366-.18-.4-.426-.387-.546a.584.584,0,0,1,.164-.322,3.89,3.89,0,0,1,3.159-1.091,16.287,16.287,0,0,1,3.557.546l-.175-.147A5.35,5.35,0,0,0,219.913,200.265Zm-3.137,1.746.06.033a6.143,6.143,0,0,0,3.219.7h0a4.314,4.314,0,0,0,2.728-1.162,15.821,15.821,0,0,0-3.273-.491,3.377,3.377,0,0,0-2.739.922Z" transform="translate(-60.044 -76.638)"/><path class="e" d="M212.154,209.689c-.175-3.164-5.608-2.395-7.4-1.942a4.25,4.25,0,0,0-1.762.8,1.8,1.8,0,0,0-.649,1.735,2.4,2.4,0,0,0,1.7,1.435C205.809,212.335,212.317,212.864,212.154,209.689Zm-3.819.66a6.41,6.41,0,0,1-3.366-.726c-.115-.055-.251-.147-.24-.284a.338.338,0,0,1,.1-.169,3.661,3.661,0,0,1,2.94-1.02,15.935,15.935,0,0,1,3.671.6c-.453,1.009-2.138,1.517-3.131,1.6Z" transform="translate(-54.821 -80.105)"/><path class="b" d="M207.368,212.227a12.6,12.6,0,0,1-3.65-.491,2.591,2.591,0,0,1-1.871-1.637,2.067,2.067,0,0,1,.736-2.013,4.506,4.506,0,0,1,1.877-.851c.191-.049,4.692-1.162,6.77.366a2.346,2.346,0,0,1,.966,1.828h0a2.073,2.073,0,0,1-.884,1.855A6.857,6.857,0,0,1,207.368,212.227Zm.546-4.866a14.472,14.472,0,0,0-3.322.409,4.016,4.016,0,0,0-1.637.742,1.538,1.538,0,0,0-.546,1.462c.136.546.649.944,1.522,1.244,1.375.486,5.455.846,7.092-.36a1.549,1.549,0,0,0,.66-1.391,1.953,1.953,0,0,0-.224-.835c-.491,1.129-2.259,1.664-3.328,1.751a6.661,6.661,0,0,1-3.508-.753c-.371-.18-.4-.426-.393-.546a.589.589,0,0,1,.164-.327,3.911,3.911,0,0,1,3.159-1.091,16.334,16.334,0,0,1,3.562.545,1.177,1.177,0,0,0-.18-.147A5.275,5.275,0,0,0,207.914,207.361Zm-3.142,1.729.06.033a6.2,6.2,0,0,0,3.224.693h0a4.3,4.3,0,0,0,2.728-1.162,16.527,16.527,0,0,0-3.273-.491,3.4,3.4,0,0,0-2.739.927Z" transform="translate(-54.591 -79.866)"/><path class="b" d="M205.187,76.868a2.913,2.913,0,0,1-.846.944c-1.282.769-3.344-.153-4.211,1.064-.644.906,0,2.258-.518,3.235-.442.818-1.5,1.026-2.411,1.233s-1.958.693-2.046,1.637c-.115,1.217,1.533,2.3.971,3.382-.153.3-.464.507-.622.807-.376.7.224,1.571.944,1.9s1.549.344,2.291.627c1.386.546,1.364,2.215,2.8,2.908a5.543,5.543,0,0,0,3.9.295c.807-.278,1.44-.916,2.226-1.244,1.473-.611,2.837.158,4.3,0a7.566,7.566,0,0,0,3.208-1.38,1.249,1.249,0,0,0,.616-.933,2.575,2.575,0,0,0-.344-.895c-.436-1.091.633-2.264,1.708-2.8s2.368-.911,2.957-1.964c1.091-1.888-2.122-1.511-1.358-3.175.327-.709,1.38-1.091,1.331-1.838-.038-.546-.644-.884-1.195-.971a4.168,4.168,0,0,1-1.609-.344c-1.02-.638-.753-2.286-1.571-3.17-.715-.775-1.964-.671-2.984-.376a5.331,5.331,0,0,1-3.093.382c-1-.333-2-1.5-3.006-1.047a1.991,1.991,0,0,0-.666.546,9.529,9.529,0,0,0-.775,1.178Z" transform="translate(-51.564 -19.986)"/><path class="b" d="M203.714,95.142a6,6,0,0,1-2.537-.546,3.677,3.677,0,0,1-1.538-1.637,2.613,2.613,0,0,0-1.244-1.282,6.355,6.355,0,0,0-1.009-.267,5.592,5.592,0,0,1-1.3-.376,2.182,2.182,0,0,1-1.151-1.233A1.32,1.32,0,0,1,195,88.71a2.214,2.214,0,0,1,.355-.464,1.712,1.712,0,0,0,.273-.344c.213-.415,0-.846-.4-1.506a3.044,3.044,0,0,1-.606-1.768c.087-.884.917-1.566,2.275-1.877l.131-.033c.851-.191,1.729-.393,2.089-1.058a2.809,2.809,0,0,0,.18-1.413,2.875,2.875,0,0,1,.355-1.849c.546-.8,1.533-.813,2.466-.829a3.819,3.819,0,0,0,1.838-.316,2.6,2.6,0,0,0,.742-.846h0c.071-.115.142-.229.207-.344a6.548,6.548,0,0,1,.595-.884,2.269,2.269,0,0,1,.786-.606,2.349,2.349,0,0,1,2.231.546,5.3,5.3,0,0,0,.982.513,4.235,4.235,0,0,0,2.52-.262l.4-.12c1.031-.295,2.433-.458,3.273.458a3.819,3.819,0,0,1,.731,1.637,2.311,2.311,0,0,0,.78,1.489,2.356,2.356,0,0,0,1.031.251l.469.055c.682.109,1.391.546,1.435,1.238a1.68,1.68,0,0,1-.758,1.293,2.232,2.232,0,0,0-.584.66c-.235.513-.033.7.606,1.091s1.44.884.742,2.117a4.722,4.722,0,0,1-2.406,1.768c-.229.1-.458.2-.676.311-1.02.513-1.915,1.538-1.566,2.433.038.093.082.175.125.262a1.636,1.636,0,0,1,.24.742,1.484,1.484,0,0,1-.736,1.167,7.883,7.883,0,0,1-3.35,1.44,6.9,6.9,0,0,1-1.817-.1,4.277,4.277,0,0,0-2.4.093,6,6,0,0,0-.987.546,5.367,5.367,0,0,1-1.255.687A4.965,4.965,0,0,1,203.714,95.142Zm3.159-20.1a.862.862,0,0,0-.366.076,1.757,1.757,0,0,0-.546.486,5.69,5.69,0,0,0-.546.8c-.065.12-.142.235-.213.355h0a3.038,3.038,0,0,1-.938,1.036,4.211,4.211,0,0,1-2.128.4c-.856,0-1.6,0-2,.584a2.357,2.357,0,0,0-.245,1.489,3.273,3.273,0,0,1-.256,1.713,3.4,3.4,0,0,1-2.471,1.347l-.131.033c-.518.115-1.735.486-1.817,1.364a2.548,2.548,0,0,0,.546,1.407c.376.627.8,1.342.42,2.073a2.133,2.133,0,0,1-.36.475,1.813,1.813,0,0,0-.267.338.769.769,0,0,0-.033.606,1.664,1.664,0,0,0,.846.895,5.455,5.455,0,0,0,1.167.333,6.7,6.7,0,0,1,1.091.289,3.137,3.137,0,0,1,1.538,1.533,3.175,3.175,0,0,0,1.287,1.38,5.194,5.194,0,0,0,3.682.284,5.307,5.307,0,0,0,1.124-.616,6.6,6.6,0,0,1,1.091-.622,4.855,4.855,0,0,1,2.728-.131,6.187,6.187,0,0,0,1.669.1,7.3,7.3,0,0,0,3.066-1.326c.333-.251.5-.48.5-.693a1.091,1.091,0,0,0-.169-.475c-.055-.1-.109-.213-.153-.316-.48-1.238.546-2.531,1.849-3.175l.7-.322a4.292,4.292,0,0,0,2.138-1.522c.426-.747.12-.922-.546-1.326-.546-.338-1.3-.8-.829-1.833a2.64,2.64,0,0,1,.72-.851c.371-.333.595-.546.578-.846,0-.376-.507-.627-.944-.693a3.876,3.876,0,0,1-.431-.055,2.913,2.913,0,0,1-1.287-.333,2.79,2.79,0,0,1-1.037-1.838,3.273,3.273,0,0,0-.595-1.386c-.682-.731-1.975-.5-2.689-.289l-.393.115a4.624,4.624,0,0,1-2.875.256,5.614,5.614,0,0,1-1.091-.546A2.826,2.826,0,0,0,206.873,75.039Zm-1.926,1.56Z" transform="translate(-51.324 -19.717)"/><path class="a" d="M203.962,73.081a2.728,2.728,0,0,1-.84.944c-1.282.769-3.344-.153-4.211,1.091-.644.906,0,2.258-.518,3.235-.447.824-1.5,1.026-2.411,1.233s-1.958.693-2.046,1.637c-.115,1.211,1.533,2.3.971,3.377-.158.3-.464.507-.622.807-.376.7.224,1.571.944,1.9s1.549.344,2.291.627c1.386.546,1.358,2.215,2.8,2.908a5.537,5.537,0,0,0,3.9.295c.807-.273,1.44-.916,2.226-1.244,1.473-.606,2.837.158,4.3,0a7.637,7.637,0,0,0,3.208-1.386,1.249,1.249,0,0,0,.616-.927,2.564,2.564,0,0,0-.344-.9c-.436-1.091.633-2.264,1.707-2.8s2.368-.911,2.957-1.964c1.064-1.888-2.122-1.511-1.358-3.175.327-.709,1.38-1.064,1.326-1.838-.033-.546-.644-.878-1.189-.966a4.174,4.174,0,0,1-1.609-.349c-1.02-.638-.753-2.286-1.571-3.17-.715-.775-1.969-.671-2.984-.376a5.282,5.282,0,0,1-3.093.382c-1-.338-2-1.5-3.006-1.047a1.991,1.991,0,0,0-.666.546A10.2,10.2,0,0,0,203.962,73.081Z" transform="translate(-51.01 -18.272)"/><path class="b" d="M202.508,91.34a6.033,6.033,0,0,1-2.531-.546,3.688,3.688,0,0,1-1.527-1.6,2.6,2.6,0,0,0-1.255-1.3,6.272,6.272,0,0,0-1.015-.262,5.914,5.914,0,0,1-1.293-.376,2.182,2.182,0,0,1-1.146-1.227,1.3,1.3,0,0,1,.065-1.053,2.324,2.324,0,0,1,.355-.458,1.9,1.9,0,0,0,.273-.349c.235-.458-.06-.955-.4-1.527a2.989,2.989,0,0,1-.6-1.751c.082-.873.906-1.555,2.258-1.866h.131c.851-.2,1.735-.393,2.1-1.091a2.853,2.853,0,0,0,.186-1.424,2.853,2.853,0,0,1,.349-1.833c.546-.8,1.522-.813,2.449-.824a3.819,3.819,0,0,0,1.844-.322,2.646,2.646,0,0,0,.753-.851h0c.071-.115.142-.229.207-.344a6.185,6.185,0,0,1,.595-.878,1.823,1.823,0,0,1,2.946-.093,5.1,5.1,0,0,0,.993.518,4.247,4.247,0,0,0,2.531-.262l.4-.12c1.026-.295,2.417-.458,3.273.453a3.7,3.7,0,0,1,.726,1.637,2.351,2.351,0,0,0,.791,1.506,2.378,2.378,0,0,0,1.036.251l.469.055c.676.109,1.375.546,1.418,1.222a1.669,1.669,0,0,1-.764,1.3,2.181,2.181,0,0,0-.584.666c-.256.546,0,.747.611,1.091s1.418.867.736,2.084a4.73,4.73,0,0,1-2.4,1.762q-.344.147-.671.311c-1.031.513-1.931,1.549-1.577,2.46a2.864,2.864,0,0,0,.125.262,1.566,1.566,0,0,1,.235.731,1.451,1.451,0,0,1-.731,1.151,7.812,7.812,0,0,1-3.333,1.435,6.9,6.9,0,0,1-1.817-.1,4.364,4.364,0,0,0-2.411.093,6.042,6.042,0,0,0-.987.546,5.352,5.352,0,0,1-1.255.682A4.877,4.877,0,0,1,202.508,91.34Zm3.159-20.1a.889.889,0,0,0-.371.076,1.773,1.773,0,0,0-.573.5,5.687,5.687,0,0,0-.546.8l-.213.355h0A3.115,3.115,0,0,1,203.015,74a4.168,4.168,0,0,1-2.122.4c-.862,0-1.6,0-2.008.595a2.428,2.428,0,0,0-.251,1.5,3.3,3.3,0,0,1-.251,1.7,3.367,3.367,0,0,1-2.46,1.337l-.131.033c-.546.12-1.751.491-1.833,1.38a2.618,2.618,0,0,0,.546,1.424c.371.622.8,1.331.42,2.057a2.226,2.226,0,0,1-.36.469,1.675,1.675,0,0,0-.267.344.764.764,0,0,0-.033.622,1.637,1.637,0,0,0,.851.9,5.314,5.314,0,0,0,1.173.338,6.2,6.2,0,0,1,1.091.289,3.137,3.137,0,0,1,1.527,1.522,3.12,3.12,0,0,0,1.3,1.386,5.193,5.193,0,0,0,3.693.289,5.013,5.013,0,0,0,1.129-.622,6.546,6.546,0,0,1,1.091-.616,4.833,4.833,0,0,1,2.7-.131,6.443,6.443,0,0,0,1.675.1,7.43,7.43,0,0,0,3.071-1.331c.338-.251.507-.491.507-.709a1.168,1.168,0,0,0-.175-.486,2.371,2.371,0,0,1-.147-.316c-.48-1.222.546-2.509,1.838-3.142.224-.115.458-.218.693-.327a4.275,4.275,0,0,0,2.149-1.527c.426-.753.109-.949-.546-1.353-.546-.333-1.287-.791-.824-1.806a2.729,2.729,0,0,1,.715-.846c.327-.289.606-.546.589-.862s-.518-.644-.966-.715c-.142,0-.289-.038-.431-.049a2.21,2.21,0,0,1-2.308-2.16,3.175,3.175,0,0,0-.6-1.391c-.687-.742-1.991-.507-2.728-.3l-.393.12a4.672,4.672,0,0,1-2.864.256,5.574,5.574,0,0,1-1.091-.546A2.875,2.875,0,0,0,205.666,71.237Zm-1.931,1.582Z" transform="translate(-50.783 -18.01)"/><path class="e" d="M219.62,82.125c-1.195-3.333-5.619-4.042-8.663-3.333a6.372,6.372,0,0,0-3.944,2.728,4.54,4.54,0,0,0-.447,4.435c.813,1.511,3.033,1.6,4.506,1.271a6.05,6.05,0,0,0,3.89-2.853.72.72,0,0,0-.109-.862,4.135,4.135,0,0,0-5.5-.284c-.72.546.295,1.566,1.009,1a2.673,2.673,0,0,1,3.028-.071,4.61,4.61,0,0,1-2.226,1.56c-.873.284-2.548.513-3.24-.289s-.18-2.455.366-3.273a5.035,5.035,0,0,1,3.148-1.986c2.269-.507,6.159-.082,6.9,2.6.349,1.282-.546,2.308-1.4,3.131a12.7,12.7,0,0,1-3.126,2.149,12.874,12.874,0,0,1-8.292,1.036c-.895-.191-1.277,1.184-.376,1.375a14.462,14.462,0,0,0,9.389-1.184C217,88.066,220.782,85.338,219.62,82.125Z" transform="translate(-55.872 -21.577)"/></g></g></svg>