<svg xmlns="http://www.w3.org/2000/svg" width="19.075" height="18.5" viewBox="0 0 19.075 18.5"><defs><style>.a,.b{fill-rule:evenodd;}.b{fill:none;stroke:#000;}</style></defs><g transform="translate(0 0)"><g transform="translate(0 7.967)"><path class="a" d="M386.863,228.265h-4.842v1.682a.757.757,0,0,0,.755.756h1.742l1.039.525,1.307-.525v-2.438Z" transform="translate(-382.021 -228.265)"/></g><g transform="translate(0 5.526)"><path class="a" d="M386.109,162.742h-3.332a.757.757,0,0,0-.755.756v1.25h4.842V163.5A.757.757,0,0,0,386.109,162.742Z" transform="translate(-382.022 -162.742)"/></g><g transform="translate(0 7.154)"><path class="a" d="M386.864,206.463h-4.842v1.188h4.842Z" transform="translate(-382.022 -206.463)"/></g><g transform="translate(2.497 10.404)"><path class="a" d="M229.723,293.7h-2.346v1.079a.472.472,0,0,0,.47.47h7.637c0-.678,0-1.023-.519-1.023h-1.034a1.452,1.452,0,0,1-1.315-.525h-2.894Z" transform="translate(-227.377 -293.7)"/></g><g transform="translate(2.427 11.954)"><path class="a" d="M149.879,335.289h-6.716a4.135,4.135,0,0,0-.437,3.087c.457-1.555,5.1-.934,5.575.86h5.121c.194-.439.376-.872.536-1.31h-1.444C149.594,336.824,150.532,337.315,149.879,335.289Z" transform="translate(-142.623 -335.289)"/></g><g transform="translate(6.586 3.761)"><path class="a" d="M239.837,119.359a10.964,10.964,0,0,1-.388,1.488l-1.476.578-1.646-.578c.058-3.115,1.222-4.609,2.212-5.092a2.4,2.4,0,0,1,.722-.374s.481.769.506.769a4.132,4.132,0,0,1,.243,1.633Z" transform="translate(-236.326 -115.381)"/></g><g transform="translate(6.581 9.228)"><path class="a" d="M208.362,262.108h3.122c.719.078,1.6.626,1.6,2.322v1.778l-.709.422-.921-.422v-1.374c0-.678,0-1.023-.519-1.023h-1.034a1.452,1.452,0,0,1-1.315-.525A1.927,1.927,0,0,1,208.362,262.108Z" transform="translate(-208.357 -262.108)"/></g><g transform="translate(2.404 13.008)"><path class="a" d="M300.174,366.472a2.847,2.847,0,0,0-5.575-.86,2.92,2.92,0,0,0-.125.769c0,.1.069.091.166.091Q297.407,366.472,300.174,366.472Z" transform="translate(-294.474 -363.579)"/></g><g transform="translate(3.048 15.901)"><path class="b" d="M318.057,441.231h-4.339a2.17,2.17,0,0,0,4.339,0Z" transform="translate(-313.718 -441.231)"/></g><g transform="translate(14.672 15.438)"><path class="b" d="M20.4,428.81l-3.733.859a1.915,1.915,0,1,0,3.733-.859Z" transform="translate(-16.667 -428.81)"/></g><g transform="translate(13.935 13.262)"><path class="a" d="M4.749,371.523a2.605,2.605,0,0,0-2.4-1.117A2.648,2.648,0,0,0,0,373.031a2.6,2.6,0,0,0,.058.515c.011.048.042.028.095.016l.584-.134,3.733-.859.28-.064.391-.09a2.584,2.584,0,0,0-.391-.892Z" transform="translate(0 -370.393)"/></g><g transform="translate(12.849 7.749)"><path class="a" d="M78.282,227.941l-1.508-5.218-.679-.3-.759.3a8.781,8.781,0,0,1,.046,6.538c-.161.438-.344.871-.536,1.31H75.93Z" transform="translate(-74.845 -222.42)"/></g><g transform="translate(9.155 1.826)"><path class="a" d="M199.547,63.811l-1.769-.377c-.179.016-.693.448-.693.718l.376,1.914a1.728,1.728,0,0,0,.5.073,1.71,1.71,0,0,0,1.591-2.328Z" transform="translate(-197.085 -63.434)"/></g><g transform="translate(7.88)"><path class="a" d="M189.157,16.626a2.155,2.155,0,1,0-4.308,0,2.305,2.305,0,0,0,.918,1.933,2.055,2.055,0,0,0,.733.322V16.966c0-.27.137-.324.317-.341h2.34Z" transform="translate(-184.849 -14.423)"/></g><g transform="translate(9.683 13.328)"><path class="a" d="M182.938,372.171h-1.63V373.2c0,.22.12.236.3.236h2.339C183.99,372.4,183.367,372.171,182.938,372.171Z" transform="translate(-181.308 -372.171)"/></g><g transform="translate(13.018 6.338)"><path class="a" d="M97.916,184.62l-2.036.673a1.809,1.809,0,0,0,.081.97h2.366v-1.5C98.327,184.47,98.174,184.535,97.916,184.62Z" transform="translate(-95.841 -184.548)"/></g><g transform="translate(11.854 7.006)"><path class="a" d="M148.582,203.534h1.029c.553,0,.569-.917-.081-.97l-.949-.076-.255.539Z" transform="translate(-148.327 -202.488)"/></g><g transform="translate(8.644 5.646)"><path class="a" d="M188.606,166.491l-.341-.293c-.853-.735-1.931.505-.791,1.246l.96.623.483.314h1.529v-1.046l-.95-.077Z" transform="translate(-186.981 -165.974)"/></g></g></svg>