<svg xmlns="http://www.w3.org/2000/svg" xmlns:xlink="http://www.w3.org/1999/xlink" width="224" height="202" viewBox="0 0 224 202"><defs><style>.a{fill:#fff;}.b{fill:#e6e7e8;}.c{fill:#231f20;}.d{fill:#ffe01b;}.e{fill:#d1d3d4;}.f{filter:url(#a);}</style><filter id="a" x="0" y="0" width="224" height="202" filterUnits="userSpaceOnUse"><feOffset dy="3" input="SourceAlpha"/><feGaussianBlur stdDeviation="3" result="b"/><feFlood flood-color="#f9f9f9"/><feComposite operator="in" in2="b"/><feComposite in="SourceGraphic"/></filter></defs><g transform="translate(-334 -90)"><g class="f" transform="matrix(1, 0, 0, 1, 334, 90)"><rect class="a" width="206" height="184" rx="4" transform="translate(9 6)"/></g><g transform="translate(273.081 79.054)"><ellipse class="b" cx="46.433" cy="12.59" rx="46.433" ry="12.59" transform="translate(117.57 153.091)"/><path class="c" d="M269.365,200.295s-42.739-4.3-47.917-3.847-10.795,10.673-8.072,12.089,5.635-7.382,8.939-8,47.05,5.556,47.05,5.556Z" transform="translate(-40.013 -62.492)"/><path class="c" d="M213.8,208.777a1.63,1.63,0,0,1-.763-.2c-.543-.287-1.123-1-.769-2.79.727-3.663,4.884-9.519,8.957-9.873,5.147-.446,46.226,3.663,47.972,3.853a.3.3,0,0,1,.275.3v5.8a.305.305,0,0,1-.1.232.318.318,0,0,1-.244.073c-.434-.067-43.741-6.161-46.952-5.562-1.423.263-2.833,2.277-4.2,4.225S215.208,208.777,213.8,208.777Zm8.505-12.285a9.648,9.648,0,0,0-1.026.031c-3.663.324-7.724,5.91-8.414,9.384-.128.647-.238,1.777.452,2.137,1.221.611,2.644-1.4,4.152-3.553,1.441-2.045,2.925-4.164,4.591-4.475,3.193-.611,42.385,4.884,46.806,5.5v-5.178c-3.48-.311-38.734-3.822-46.561-3.822Z" transform="translate(-39.817 -62.286)"/><path class="c" d="M171.769,199.045c-14.5,0-25.857-4.359-25.857-9.922l-9.732-91.951a.3.3,0,1,1,.6-.067l9.769,91.987c0,5.165,11.326,9.342,25.247,9.342s25.247-4.176,25.247-9.311l9.769-92.018a.307.307,0,1,1,.611.067l-9.8,91.957C197.626,194.685,186.269,199.045,171.769,199.045Z" transform="translate(-10.226 -23.711)"/><path class="c" d="M171.766,101.7c-19.623,0-35.6-5.5-35.6-12.211s15.972-12.211,35.6-12.211,35.6,5.5,35.6,12.211S191.4,101.7,171.766,101.7Zm0-23.751c-19.288,0-34.985,5.19-34.985,11.6s15.7,11.6,34.985,11.6,34.985-5.19,34.985-11.6S191.053,77.952,171.766,77.952Z" transform="translate(-10.223 -16.097)"/><path class="d" d="M205.5,149.33l-7.547,61.215s-7.693,7.021-24.648,6.295-21.461-6.881-21.461-6.881L144.57,149.33Z" transform="translate(-13.494 -44.156)"/><path class="c" d="M175.455,217c-.782,0-1.587,0-2.442-.049-16.906-.727-21.5-6.753-21.693-7.009a.281.281,0,0,1-.055-.14L144,149.172a.311.311,0,0,1,.073-.238.305.305,0,0,1,.232-.1h60.958a.293.293,0,0,1,.226.1.318.318,0,0,1,.079.238L198,210.387a.287.287,0,0,1-.1.189C197.826,210.643,190.676,217,175.455,217Zm-23.574-7.357a13.4,13.4,0,0,0,4.274,3.053c2.931,1.459,8.249,3.279,16.913,3.663,15.691.672,23.464-5.416,24.337-6.148l7.522-60.751H144.658Z" transform="translate(-13.271 -43.961)"/><ellipse class="d" cx="30.479" cy="9.116" rx="30.479" ry="9.116" transform="translate(131.045 95.283)"/><path class="c" d="M174.8,151.472c-17.267,0-30.785-4.14-30.785-9.421s13.518-9.421,30.785-9.421,30.785,4.14,30.785,9.421S192.065,151.472,174.8,151.472Zm0-18.231c-16.357,0-30.174,4.036-30.174,8.81s13.817,8.81,30.174,8.81,30.174-4.036,30.174-8.81S191.161,133.241,174.8,133.241Z" transform="translate(-13.28 -37.652)"/><path class="a" d="M164.062,117.61,152.138,73.68,150.05,75.1l11.6,43.106S162.554,119.094,164.062,117.61Z" transform="translate(-15.628 -14.695)"/><path class="c" d="M162.239,118.575a1.465,1.465,0,0,1-.977-.348.372.372,0,0,1-.079-.134l-11.6-43.106a.293.293,0,0,1,.122-.33l2.088-1.423a.293.293,0,0,1,.275-.037.305.305,0,0,1,.189.208l11.943,43.96a.305.305,0,0,1-.079.3,2.748,2.748,0,0,1-1.881.91Zm-.488-.739c.177.116.794.391,1.8-.519l-11.778-43.35-1.551,1.062Z" transform="translate(-15.441 -14.5)"/><path class="a" d="M167.663,65.28C160.6,52,145.829,44.869,131.86,48.941S109.3,67.014,110.49,82Z" transform="translate(-0.179 -4.616)"/><path class="c" d="M110.329,82.127a.3.3,0,0,1-.171-.055.311.311,0,0,1-.128-.226c-1.221-15.325,7.827-29.362,21.565-33.379s28.941,2.918,36.157,16.485a.293.293,0,0,1,0,.256.311.311,0,0,1-.2.177L110.408,82.109Zm29.215-34.191a27.628,27.628,0,0,0-7.779,1.111c-13.347,3.908-22.194,17.48-21.156,32.36l56.422-16.485c-5.776-10.593-16.534-16.98-27.487-16.98Z" transform="translate(0 -4.435)"/><path class="b" d="M164.3,68.182c-6.173-13.536-17.4-21.724-27.133-18.872S122.389,65.1,124.49,79.838Z" transform="translate(-5.491 -4.984)"/><path class="c" d="M124.285,79.943a.305.305,0,0,1-.165-.049.317.317,0,0,1-.14-.214c-2.18-15.313,3.126-28,12.9-30.864s21.083,4.97,27.475,19.043a.3.3,0,0,1,0,.25.311.311,0,0,1-.2.165L124.346,79.93Zm16.571-31.078a13.567,13.567,0,0,0-3.8.537c-9.25,2.7-14.47,15.227-12.517,29.826l39.143-11.454C158.294,56.21,149.2,48.865,140.856,48.865Z" transform="translate(-5.287 -4.784)"/><path class="a" d="M159.83,71.815A53.321,53.321,0,0,0,143.882,49.67a53.3,53.3,0,0,0-1.5,27.249Z" transform="translate(-12.202 -5.345)"/><path class="c" d="M142.2,77.031a.275.275,0,0,1-.153-.043.293.293,0,0,1-.14-.2,54,54,0,0,1,1.5-27.42.311.311,0,0,1,.2-.189.324.324,0,0,1,.269.049,54.14,54.14,0,0,1,16.052,22.286.311.311,0,0,1-.2.4l-17.444,5.1a.2.2,0,0,1-.085.012Zm1.642-27.048a53.7,53.7,0,0,0-1.41,26.358l16.8-4.921C154.758,59.331,145.691,51.51,143.841,49.983Z" transform="translate(-12.014 -5.151)"/><path class="a" d="M264.91,36.45l-7.937,1.581-7.247,1.441-6.759,1.343-7.29,1.465-10.434,2.082-.171,1.032-1.154,6.9-1.539,9.158-1.111,6.667-1.178,7.021-1.111,6.631h0l-1.221,7.241-1.111,6.667-1.325,7.937s.611,1.569,3.663,1.746,3.242-1.746,3.242-1.746l.653-3.944h0l1.154-6.826h0l1.221-7.235L226.4,78.8l1.111-6.637,1.154-6.851,1.325-7.937,1.258-7.455v-.116l8.987-1.734,6.5-1.221,7.62-1.465,6.338-1.221,5.263-1.014S268.274,38.489,264.91,36.45Z" transform="translate(-41.047 -0.196)"/><path class="c" d="M219.233,105.491h-.409c-3.175-.189-3.889-1.868-3.92-1.935a.385.385,0,0,1,0-.165L224.777,44.1a.305.305,0,0,1,.238-.25L264.7,35.955a.263.263,0,0,1,.214.037c3.572,2.161,1.221,7.04,1.178,7.089a.287.287,0,0,1-.214.159l-34.521,6.643-9.006,53.6S222.1,105.491,219.233,105.491Zm-3.731-2.113c.165.281.922,1.343,3.358,1.49,2.662.159,2.912-1.41,2.918-1.478l9.036-53.809a.305.305,0,0,1,.244-.256L265.593,42.7c.336-.757,1.771-4.359-.91-6.106l-39.345,7.821Z" transform="translate(-40.882)"/><path class="e" d="M271.67,40.489a41.01,41.01,0,0,1,4.64,5.9l6.338-1.221a41.846,41.846,0,0,0-3.724-6.106Z" transform="translate(-62.992 -1.213)"/><path class="c" d="M276.115,46.49a.305.305,0,0,1-.256-.14,40.3,40.3,0,0,0-4.6-5.855.3.3,0,0,1-.073-.3.318.318,0,0,1,.232-.208l7.253-1.441a.311.311,0,0,1,.305.116,41.514,41.514,0,0,1,3.755,6.167.311.311,0,0,1-.214.44L276.17,46.49Zm-4.042-6.008a40.558,40.558,0,0,1,4.188,5.361l5.739-1.1a41.272,41.272,0,0,0-3.407-5.562Z" transform="translate(-62.796 -1.011)"/><path class="e" d="M229.4,57.969a36.128,36.128,0,0,1,6.063,5.117l1.258-7.455a29.838,29.838,0,0,0-6.167-4.561Z" transform="translate(-46.53 -5.89)"/><path class="c" d="M235.269,63.2a.317.317,0,0,1-.22-.1,35.894,35.894,0,0,0-6.014-5.074.293.293,0,0,1-.128-.3l1.154-6.893a.287.287,0,0,1,.165-.226.293.293,0,0,1,.275,0,30.009,30.009,0,0,1,6.234,4.6.311.311,0,0,1,.092.275L235.6,62.942a.311.311,0,0,1-.214.244Zm-5.733-5.562a36.7,36.7,0,0,1,5.532,4.6l1.123-6.716a29.979,29.979,0,0,0-5.6-4.195Z" transform="translate(-46.336 -5.697)"/><path class="e" d="M225.06,84.067a34.5,34.5,0,0,1,6.234,4.03l1.154-6.851a36.725,36.725,0,0,0-6.277-3.847Z" transform="translate(-44.84 -16.144)"/><path class="c" d="M231.1,88.211a.275.275,0,0,1-.189-.067,34.153,34.153,0,0,0-6.185-3.993.305.305,0,0,1-.165-.324l1.117-6.667a.311.311,0,0,1,.159-.22.3.3,0,0,1,.269,0,36.206,36.206,0,0,1,6.331,3.877.305.305,0,0,1,.122.293L231.4,87.954a.305.305,0,0,1-.2.232.348.348,0,0,1-.11.024Zm-5.9-4.53a34.7,34.7,0,0,1,5.684,3.663l1.038-6.154a36.518,36.518,0,0,0-5.709-3.529Z" transform="translate(-44.643 -15.952)"/><path class="e" d="M221.31,106.431h0a36.285,36.285,0,0,1,6.264,3.81l1.148-6.808a33.343,33.343,0,0,0-6.3-3.663Z" transform="translate(-43.38 -24.855)"/><path class="c" d="M227.38,110.386a.275.275,0,0,1-.183-.061,35.7,35.7,0,0,0-6.209-3.779.305.305,0,0,1-.177-.275v-.061l1.105-6.637a.3.3,0,0,1,.159-.214.287.287,0,0,1,.263,0,33.306,33.306,0,0,1,6.362,3.663.311.311,0,0,1,.122.3l-1.142,6.8a.305.305,0,0,1-.189.238.348.348,0,0,1-.11.031Zm-5.922-4.274a36.207,36.207,0,0,1,5.7,3.444l1.032-6.106a32.775,32.775,0,0,0-5.727-3.352Z" transform="translate(-43.185 -24.683)"/><path class="e" d="M217.5,129.239a35.2,35.2,0,0,1,6.228,3.981l1.154-6.826h0a35.144,35.144,0,0,0-6.27-3.8Z" transform="translate(-41.896 -33.742)"/><path class="c" d="M223.531,133.314a.305.305,0,0,1-.2-.067,34.082,34.082,0,0,0-6.173-3.938.324.324,0,0,1-.165-.324l1.117-6.667a.287.287,0,0,1,.159-.22.281.281,0,0,1,.269,0,35.066,35.066,0,0,1,6.325,3.834.3.3,0,0,1,.122.244l-1.16,6.893a.305.305,0,0,1-.189.232Zm-5.892-4.451a35.791,35.791,0,0,1,5.678,3.584l1.038-6.142a35.9,35.9,0,0,0-5.7-3.492Z" transform="translate(-41.7 -33.538)"/><path class="e" d="M248.66,45.1a46.463,46.463,0,0,1,4.567,5.825l6.5-1.221a35.6,35.6,0,0,0-3.779-6.02Z" transform="translate(-54.031 -3.012)"/><path class="c" d="M253.032,50.972a.311.311,0,0,1-.256-.134,44.981,44.981,0,0,0-4.536-5.788.311.311,0,0,1-.067-.3.318.318,0,0,1,.232-.208l7.29-1.447a.3.3,0,0,1,.3.11,36.056,36.056,0,0,1,3.816,6.069.311.311,0,0,1-.214.44l-6.5,1.221Zm-3.981-5.935a46.126,46.126,0,0,1,4.127,5.324l5.874-1.166a34.894,34.894,0,0,0-3.444-5.458Z" transform="translate(-53.835 -2.782)"/><path class="c" d="M171.766,109.32c-19.63,0-35.6-5.5-35.6-12.175a.305.305,0,0,1,.611,0c0,6.374,15.691,11.564,34.985,11.564s34.985-5.19,34.985-11.564a.305.305,0,0,1,.611,0C207.362,103.971,191.725,109.32,171.766,109.32Z" transform="translate(-10.223 -23.714)"/><path class="a" d="M205.829,184.5a1.561,1.561,0,0,0,0,3.12A1.561,1.561,0,0,0,205.829,184.5Z" transform="translate(-36.764 -57.853)"/><path class="a" d="M210.122,230.214l-.147-.293a2.6,2.6,0,0,0-1.4-1.075,1.832,1.832,0,0,0-.934-.043,1.734,1.734,0,0,0-.873.275l-.47.366a2.363,2.363,0,0,0-.611,1.032,4.9,4.9,0,0,1-.079.611,2.314,2.314,0,0,0,.317,1.185l.147.287a1.746,1.746,0,0,0,.611.659,1.691,1.691,0,0,0,.794.415,2.65,2.65,0,0,0,1.832-.232l.47-.366a2.363,2.363,0,0,0,.611-1.032,4.9,4.9,0,0,1,.079-.611A2.277,2.277,0,0,0,210.122,230.214Z" transform="translate(-37.265 -75.09)"/><path class="a" d="M173.949,174.84c-3.01,0-3.016,4.677,0,4.677S176.959,174.84,173.949,174.84Z" transform="translate(-24.055 -54.091)"/><path class="a" d="M193.359,200.25c-3.01,0-3.016,4.677,0,4.677S196.375,200.25,193.359,200.25Z" transform="translate(-31.614 -63.986)"/><path class="a" d="M173.469,224c-3.01,0-3.016,4.677,0,4.677S176.479,224,173.469,224Z" transform="translate(-23.868 -73.235)"/><path class="a" d="M223.329,189.94c-3.01,0-3.016,4.677,0,4.677S226.345,189.94,223.329,189.94Z" transform="translate(-43.286 -59.971)"/><path class="a" d="M166.39,197.49c-3.01,0-3.01,4.677,0,4.677S169.406,197.49,166.39,197.49Z" transform="translate(-21.113 -62.911)"/><path class="a" d="M221.409,215.11c-3.01,0-3.016,4.677,0,4.677S224.425,215.11,221.409,215.11Z" transform="translate(-42.538 -69.773)"/><path class="a" d="M190.728,178a1.561,1.561,0,0,0,0,3.12A1.561,1.561,0,0,0,190.728,178Z" transform="translate(-30.882 -55.321)"/><path class="a" d="M192.379,238.756a.678.678,0,0,0-.409-.409.568.568,0,0,0-.3-.067h-.208a.769.769,0,0,0-.348.2c-.037.055-.079.1-.122.159a.8.8,0,0,0-.1.4v.293a.878.878,0,0,0,.226.556.647.647,0,0,0,.25.159.611.611,0,0,0,.305.067h.208a.781.781,0,0,0,.342-.2l.122-.159a.8.8,0,0,0,.1-.4v-.287A.611.611,0,0,0,192.379,238.756Z" transform="translate(-31.533 -78.796)"/><path class="a" d="M179.458,210c-2.509,0-2.516,3.9,0,3.9A1.952,1.952,0,0,0,179.458,210Z" transform="translate(-26.347 -67.783)"/><path class="a" d="M208.708,208.56c-2.509,0-2.516,3.9,0,3.9S211.205,208.56,208.708,208.56Z" transform="translate(-37.738 -67.222)"/><path class="a" d="M159.561,170.84a1.561,1.561,0,0,0,0,3.12A1.561,1.561,0,0,0,159.561,170.84Z" transform="translate(-18.746 -52.533)"/><path class="a" d="M225.728,171.8a1.561,1.561,0,0,0,0,3.12A1.561,1.561,0,0,0,225.728,171.8Z" transform="translate(-44.512 -52.907)"/><path class="c" d="M187.679,217.271c3.053-3.328,19.2-4.384,28.2-3.767s13.652,4.475,15.056,9.256,2.864,19.483-8.841,24.593-26.865,4.585-32.006-2.693S184.608,220.6,187.679,217.271Z" transform="translate(-29.519 -69.083)"/><path class="c" d="M205.685,250.84c-6.826,0-13.011-1.9-16.052-6.2-5.342-7.553-5.526-24.355-2.381-27.768l.22.208-.22-.208c3.315-3.59,20.277-4.42,28.44-3.865,8.261.574,13.707,3.938,15.325,9.476,1.417,4.836,2.8,19.8-9.006,24.96A42.074,42.074,0,0,1,205.685,250.84Zm4.585-37.391c-9,0-20.149,1.221-22.591,3.84h0c-2.961,3.205-2.662,19.8,2.442,27.005,4.274,6.051,18.012,8.548,31.633,2.589,11.411-4.976,10.044-19.538,8.67-24.227-1.545-5.275-6.8-8.487-14.788-9.036C214.026,213.5,212.2,213.449,210.271,213.449Z" transform="translate(-29.312 -68.894)"/><path class="c" d="M268.48,211.737s-1.185,11.43,3.737,18.811,13.011,4.109,18.317.073,7.608-16.913,6.716-23.33-3.352-7.327-9.409-6.826S271.307,204.276,268.48,211.737Z" transform="translate(-61.701 -64.025)"/><path class="c" d="M279.753,235.05a9.649,9.649,0,0,1-1.618-.134,9.425,9.425,0,0,1-6.356-4.4c-4.927-7.382-3.8-18.9-3.785-19.013a.31.31,0,0,1,0-.073c2.851-7.5,13.292-10.99,19.611-11.466,6.106-.476,8.78.4,9.732,7.089s-1.478,19.581-6.808,23.617C288.27,232.388,284.064,235.05,279.753,235.05ZM268.592,211.6c-.067.733-.971,11.6,3.694,18.573a8.842,8.842,0,0,0,5.947,4.14c4.616.782,9.464-2.259,11.943-4.134,2.338-1.777,4.317-5.538,5.574-10.605a35.575,35.575,0,0,0,1-12.443c-.879-6.161-3.053-7.046-9.085-6.57C281.511,201.054,271.358,204.393,268.592,211.6Z" transform="translate(-61.513 -63.831)"/><path class="c" d="M264.871,221.608s-1.71-1.679-6.106-1.056a10.615,10.615,0,0,0-6.435,3.053l1.325,3.5s5.5-4.378,10.789-1.4Z" transform="translate(-55.46 -71.839)"/><path class="c" d="M253.471,227.2a.208.208,0,0,1-.085,0,.3.3,0,0,1-.2-.183l-1.319-3.511a.293.293,0,0,1,.049-.305,10.957,10.957,0,0,1,6.625-3.12c4.451-.629,6.283,1.062,6.356,1.136a.323.323,0,0,1,.092.25l-.427,4.066a.3.3,0,0,1-.159.238.311.311,0,0,1-.293,0c-5.031-2.833-10.38,1.337-10.447,1.38A.311.311,0,0,1,253.471,227.2Zm-.971-3.743,1.111,2.961c1.258-.867,5.874-3.663,10.38-1.41l.36-3.456c-.427-.318-2.161-1.392-5.739-.885a10.825,10.825,0,0,0-6.112,2.79Z" transform="translate(-55.27 -71.655)"/><path class="c" d="M164.947,218s-37.6.9-42.813.812-9.543,9.03-6.979,10.715,4.274-5.361,7.6-5.635S163,224.57,163,224.57Z" transform="translate(-1.743 -70.899)"/><path class="c" d="M115.756,229.921a1.7,1.7,0,0,1-.959-.311c-.959-.611-1.16-2.119-.556-4.085.928-3,3.9-7.192,7.626-7.192h.079c5.147.1,42.422-.806,42.8-.812a.324.324,0,0,1,.25.116.336.336,0,0,1,.049.275l-1.935,6.557a.33.33,0,0,1-.3.22c-.372,0-36.933-.934-40.224-.666-1.459.116-2.656,1.758-3.712,3.205C117.911,228.559,116.91,229.921,115.756,229.921Zm6.106-10.99c-3.053,0-6.038,3.5-7.046,6.771-.513,1.661-.4,2.931.311,3.395,1.044.69,1.917-.4,3.254-2.235,1.136-1.551,2.442-3.315,4.152-3.456,3.218-.263,36.634.574,40.053.659l1.752-5.935c-4.133.1-37.543.885-42.41.806Z" transform="translate(-1.55 -70.712)"/></g></g></svg>