<svg xmlns="http://www.w3.org/2000/svg" xmlns:xlink="http://www.w3.org/1999/xlink" width="224" height="202" viewBox="0 0 224 202"><defs><style>.a{fill:#fff;}.b{fill:#231f20;}.c{fill:#d1d3d4;}.d{fill:#ffe01b;}.e{fill:#e6e7e8;}.f{filter:url(#a);}</style><filter id="a" x="0" y="0" width="224" height="202" filterUnits="userSpaceOnUse"><feOffset dy="3" input="SourceAlpha"/><feGaussianBlur stdDeviation="3" result="b"/><feFlood flood-color="#f9f9f9"/><feComposite operator="in" in2="b"/><feComposite in="SourceGraphic"/></filter></defs><g transform="translate(-334 -294)"><g class="f" transform="matrix(1, 0, 0, 1, 334, 294)"><rect class="a" width="206" height="184" rx="4" transform="translate(9 6)"/></g><g transform="translate(341.398 287.686)"><ellipse class="b" cx="69.775" cy="33.35" rx="69.775" ry="33.35" transform="translate(38.809 74.886)"/><path class="b" d="M117.028,153.169C78.417,153.169,47,138.1,47,119.58S78.417,86,117.028,86s70.019,15.069,70.019,33.594S155.634,153.169,117.028,153.169Zm0-66.7c-38.344,0-69.545,14.848-69.545,33.106s31.191,33.106,69.545,33.106,69.545-14.853,69.545-33.106S155.381,86.474,117.028,86.474Z" transform="translate(-8.444 -11.344)"/><ellipse class="a" cx="69.775" cy="33.35" rx="69.775" ry="33.35" transform="translate(38.809 72.962)"/><path class="b" d="M117.066,148.907c-38.6,0-70-15.06-70-33.576s31.4-33.571,70-33.571,70,15.06,70,33.571S155.663,148.907,117.066,148.907Zm0-66.7c-38.353,0-69.545,14.857-69.545,33.119s31.2,33.124,69.545,33.124,69.545-14.857,69.545-33.124S155.42,82.212,117.066,82.212Z" transform="translate(-8.483 -9.019)"/><path class="c" d="M142.726,151.045c-26.946,0-48.866-10.531-48.866-23.483s21.92-23.483,48.866-23.483,48.862,10.527,48.862,23.483S169.668,151.045,142.726,151.045Zm0-46.514c-26.7,0-48.415,10.328-48.415,23.031s21.717,23.031,48.415,23.031,48.41-10.328,48.41-23.031-21.717-23.008-48.41-23.008Z" transform="translate(-34.143 -21.26)"/><path class="d" d="M203.55,96.177s-12.4,3.811-14.207,1.413-.452-3.161-2.443-4.272-5.166-.835-4.624-2.859,1.761-1.739,1.124-3.613-2.041-4.064-.388-5.871,3.509.393,4.412-.5,0-1.946,1.648-1.486,1.486,1.951,2.755,1.585,1.951-1.355,3.161.167.488,6.051,2.357,5.69,3.613-.876,3.879,1.219-2.488,3.942-1.152,5.148,4.1,1.441,4.322,2.565S203.55,96.177,203.55,96.177Z" transform="translate(-82.597 -7.441)"/><path class="b" d="M191.9,98.373c-1.413,0-2.524-.235-2.985-.863a5.685,5.685,0,0,1-1.138-2.533,2.007,2.007,0,0,0-1.242-1.684,9.61,9.61,0,0,0-2.258-.79c-1.079-.289-2.014-.537-2.389-1.188a1.409,1.409,0,0,1-.09-1.106,4.457,4.457,0,0,1,.863-1.7,1.512,1.512,0,0,0,.262-1.806c-.113-.348-.253-.7-.4-1.07-.646-1.612-1.377-3.441.059-4.967a2.634,2.634,0,0,1,3.075-.528c.65.194,1.066.3,1.355.027a1.63,1.63,0,0,0,.452-.9.9.9,0,0,1,.334-.646,1.4,1.4,0,0,1,1.075.027,2.935,2.935,0,0,1,1.558,1.048c.348.415.537.641,1.084.488a6.1,6.1,0,0,0,.813-.321,1.725,1.725,0,0,1,2.538.555,6.662,6.662,0,0,1,.863,2.971c.163,1.133.325,2.222.8,2.561a.628.628,0,0,0,.5.086l.4-.077c1.17-.235,2.258-.452,3,.054a1.937,1.937,0,0,1,.718,1.413,4.591,4.591,0,0,1-.876,2.822c-.583,1.03-.9,1.689-.339,2.2a7.479,7.479,0,0,0,2.235,1.165c1.079.42,2.005.786,2.15,1.513a.939.939,0,0,1-.194.9.953.953,0,0,1-.826.154C202.538,96.418,195.972,98.373,191.9,98.373Zm-7.591-18.131a1.847,1.847,0,0,0-1.413.664c-1.264,1.355-.614,2.99,0,4.566.145.361.294.732.411,1.088a1.925,1.925,0,0,1-.321,2.195,4.065,4.065,0,0,0-.8,1.558,1.025,1.025,0,0,0,.054.8c.289.506,1.188.745,2.141,1a9.962,9.962,0,0,1,2.335.835A2.39,2.39,0,0,1,188.16,94.9a5.338,5.338,0,0,0,1.066,2.375c1.386,1.874,10.563-.452,14-1.486a.163.163,0,0,1,.113,0c.09,0,.375.068.506-.054s.1-.348.068-.533c-.1-.51-.971-.849-1.9-1.21a7.835,7.835,0,0,1-2.357-1.242c-.844-.759-.312-1.7.257-2.71a4.3,4.3,0,0,0,.826-2.57,1.571,1.571,0,0,0-.555-1.138c-.578-.411-1.6-.208-2.682,0l-.4.081a1.007,1.007,0,0,1-.808-.154c-.619-.452-.786-1.6-.966-2.831a6.551,6.551,0,0,0-.781-2.782c-.8-1.007-1.269-.795-2.055-.452a6.091,6.091,0,0,1-.867.343c-.8.23-1.143-.181-1.508-.614a2.547,2.547,0,0,0-1.355-.971c-.492-.14-.682-.113-.754-.068s-.108.176-.149.379a2.032,2.032,0,0,1-.551,1.12c-.452.452-1.084.271-1.739.077A4.489,4.489,0,0,0,184.312,80.242Z" transform="translate(-82.331 -7.244)"/><path class="b" d="M206.094,101.3a.257.257,0,0,1-.081,0c-.145-.054-14.451-5.419-19.116-13.132a.226.226,0,1,1,.384-.235c4.57,7.564,18.75,12.888,18.89,12.943a.226.226,0,0,1,.135.289A.235.235,0,0,1,206.094,101.3Z" transform="translate(-85.141 -12.334)"/><path class="b" d="M192.358,99.276a6.693,6.693,0,0,1-4.146-1.626.226.226,0,1,1,.3-.33,6.219,6.219,0,0,0,4.629,1.441.229.229,0,0,1,.072.452,5.1,5.1,0,0,1-.858.063Z" transform="translate(-85.834 -17.508)"/><path class="b" d="M202.624,95.57a.221.221,0,0,1-.221-.2,47.528,47.528,0,0,0-.9-6.358.234.234,0,1,1,.452-.126,51.263,51.263,0,0,1,.9,6.44.226.226,0,0,1-.2.248Z" transform="translate(-93.169 -12.831)"/><path class="b" d="M197.832,108.829a8.029,8.029,0,0,1-1.653-.135.221.221,0,0,1-.176-.266.226.226,0,0,1,.271-.176c1.9.415,6.4-.325,6.444-.334a.227.227,0,1,1,.077.447A36.451,36.451,0,0,1,197.832,108.829Z" transform="translate(-90.157 -23.362)"/><path class="a" d="M104.26,80.73l4.624,17.535c0,1.806,5.121,3.256,11.439,3.256s11.439-1.459,11.439-3.256l4.624-17.535Z" transform="translate(-39.846 -8.454)"/><path class="b" d="M120.05,101.473c-5.708,0-11.61-1.292-11.665-3.45L103.77,80.514a.226.226,0,0,1,.041-.2.221.221,0,0,1,.176-.086h32.126a.23.23,0,0,1,.181.086.239.239,0,0,1,.036.2l-4.615,17.508C131.661,100.181,125.758,101.473,120.05,101.473ZM104.281,80.7l4.557,17.233a.259.259,0,0,1,0,.059c0,1.463,4.516,3.03,11.213,3.03s11.213-1.567,11.213-3.03a.266.266,0,0,1,0-.059l4.547-17.251Z" transform="translate(-39.574 -8.18)"/><path class="a" d="M136.386,75.18a1.775,1.775,0,0,1-.605,1.242c-1.91,1.928-8.129,3.328-15.458,3.328s-13.548-1.4-15.453-3.328a1.766,1.766,0,0,1-.61-1.242c0-2.524,7.194-4.57,16.063-4.57S136.386,72.656,136.386,75.18Z" transform="translate(-39.846 -2.904)"/><path class="b" d="M120.049,79.7c-7.329,0-13.606-1.355-15.616-3.4a1.964,1.964,0,0,1-.673-1.4c0-2.71,7.153-4.8,16.289-4.8s16.289,2.1,16.289,4.8a1.982,1.982,0,0,1-.673,1.4C133.673,78.338,127.378,79.7,120.049,79.7Zm0-9.14c-9.483,0-15.837,2.258-15.837,4.344a1.553,1.553,0,0,0,.542,1.084c1.9,1.919,8.192,3.26,15.3,3.26s13.394-1.355,15.3-3.26a1.554,1.554,0,0,0,.542-1.084C135.886,72.806,129.523,70.562,120.049,70.562Z" transform="translate(-39.572 -2.63)"/><path class="d" d="M136.338,79.8c-1.91,1.928-8.129,3.328-15.458,3.328-4.277,0-8.838-.253-12.938-1.861-.479-.19-3.026-1.165-2.624-2.014.452-.993,4.408-.357,5.247-.723.583-.257,1.07-.808,1.684-.9a6.986,6.986,0,0,1,1.26.072,5.8,5.8,0,0,0,1.861-.506,11.9,11.9,0,0,1,4.209-.4,12.514,12.514,0,0,1,2.958.3,7.354,7.354,0,0,0,2.786.569c.519-.068,1.016-.316,1.535-.348a5.211,5.211,0,0,1,1.409.221c1.477.316,2.967-.117,4.385.357A37.723,37.723,0,0,1,136.338,79.8Z" transform="translate(-40.403 -6.284)"/><path class="b" d="M120.626,83.051c-4.064,0-8.792-.221-13.01-1.874-1.644-.646-2.529-1.215-2.746-1.757a.646.646,0,0,1,0-.533c.348-.732,1.942-.723,3.491-.709a7.135,7.135,0,0,0,1.856-.113,4.064,4.064,0,0,0,.641-.388,2.868,2.868,0,0,1,1.088-.542,2.71,2.71,0,0,1,.831,0,3.442,3.442,0,0,0,.452.045,3.613,3.613,0,0,0,1.355-.334l.452-.163a12.51,12.51,0,0,1,4.277-.406,13.064,13.064,0,0,1,3,.3c.253.068.5.149.75.23a4.426,4.426,0,0,0,1.96.339,4.892,4.892,0,0,0,.664-.163,4.118,4.118,0,0,1,.9-.19,3.979,3.979,0,0,1,1.161.158c.1.023.2.05.307.068a8.359,8.359,0,0,0,1.955.117,7.307,7.307,0,0,1,2.448.248c.036,0,3.744,1.752,3.816,2.059a.217.217,0,0,1-.05.194h0C134.219,81.687,127.951,83.051,120.626,83.051ZM107.86,78.58c-1.129,0-2.407.045-2.615.479a.289.289,0,0,0,0,.212c.095.239.546.754,2.488,1.517,4.186,1.639,8.865,1.861,12.893,1.861,6.909,0,13.051-1.269,15.142-3.107-.7-.411-3.193-1.671-3.432-1.752a6.918,6.918,0,0,0-2.312-.221,9.271,9.271,0,0,1-2.05-.126l-.316-.072a3.554,3.554,0,0,0-1.039-.145,3.472,3.472,0,0,0-.8.172,5.419,5.419,0,0,1-.723.176,4.814,4.814,0,0,1-2.136-.357c-.244-.077-.488-.158-.732-.221a12.594,12.594,0,0,0-2.908-.294,11.994,11.994,0,0,0-4.141.388l-.452.158a3.866,3.866,0,0,1-1.495.361,4.93,4.93,0,0,1-.519-.05,2.195,2.195,0,0,0-.7-.027,2.583,2.583,0,0,0-.926.452,4.358,4.358,0,0,1-.709.452,6.625,6.625,0,0,1-2.023.145Zm28.224.939Zm0,0ZM135.939,79.379Z" transform="translate(-40.149 -6.002)"/><path class="d" d="M205.081,80.587c.817-1.517.411-2.768.569-4.349.14-1.355,1.73-2.091,1.779-3.319a6.2,6.2,0,0,0-.266-1.183A1.648,1.648,0,0,1,209.2,70a1.215,1.215,0,0,0,.542.122.777.777,0,0,0,.452-.361,22.141,22.141,0,0,0,1.124-2.411,2.063,2.063,0,0,1,2.136-1.246c.583.163.993.714,1.576.9,1.355.393,2.61-1.463,3.988-1.12a1.942,1.942,0,0,1,1.269,1.427,10.44,10.44,0,0,1,.2,1.987,1.662,1.662,0,0,0,.176.727c.348.583,1.165.592,1.806.772a2.773,2.773,0,0,1,1.061,4.764c-.7.605-1.806,1.034-1.806,1.955a4.434,4.434,0,0,0,.253,1.034,1.928,1.928,0,0,1-.98,2.091c-1.066.546-2.71.158-3.238,1.233-.343.7.1,1.621-.28,2.308-.452.844-1.725.673-2.633.334a2.958,2.958,0,0,0-2.488-.149c-.768.452-.844,1.594-1.779,1.653-.7.045-1.17-.686-1.806-.975a3.273,3.273,0,0,0-2.285.163,2.611,2.611,0,0,1-2.258-.054,2.094,2.094,0,0,1-.474-2.33A20.812,20.812,0,0,1,205.081,80.587Z" transform="translate(-94.33 -0.292)"/><path class="b" d="M210.358,85.914a2.005,2.005,0,0,1-1.2-.574,3.021,3.021,0,0,0-.623-.42,3.054,3.054,0,0,0-2.1.158,2.875,2.875,0,0,1-2.466-.068,2.211,2.211,0,0,1-.542-2.57,7.356,7.356,0,0,1,.781-1.423c.176-.266.352-.537.5-.817h0a5.179,5.179,0,0,0,.51-2.827,13.313,13.313,0,0,1,.041-1.45,3.437,3.437,0,0,1,.975-1.806,2.673,2.673,0,0,0,.8-1.477A1.87,1.87,0,0,0,206.9,72a3.612,3.612,0,0,1-.154-.506,1.856,1.856,0,0,1,2.308-1.96l.117.045a.754.754,0,0,0,.33.072c.108,0,.212-.1.334-.28a5.871,5.871,0,0,0,.65-1.355,9.4,9.4,0,0,1,.452-1.052A2.282,2.282,0,0,1,213.3,65.61a2.709,2.709,0,0,1,.89.465,2.556,2.556,0,0,0,.718.406,2.5,2.5,0,0,0,1.852-.533,2.952,2.952,0,0,1,2.132-.587,2.145,2.145,0,0,1,1.4,1.585,6.707,6.707,0,0,1,.176,1.486,3.633,3.633,0,0,0,.027.542,1.468,1.468,0,0,0,.154.637c.217.37.691.452,1.2.569.172.036.339.068.5.113a2.976,2.976,0,0,1,1.138,5.112,7.4,7.4,0,0,1-.632.452c-.564.393-1.1.763-1.106,1.355a2.015,2.015,0,0,0,.135.6A3.763,3.763,0,0,1,222,78.2a2.127,2.127,0,0,1-1.075,2.33,4.6,4.6,0,0,1-1.45.37c-.763.108-1.422.2-1.7.772a2.145,2.145,0,0,0-.108,1.034,2.317,2.317,0,0,1-.176,1.283c-.641,1.152-2.366.619-2.881.424a2.764,2.764,0,0,0-2.317-.163,2.055,2.055,0,0,0-.61.7,1.647,1.647,0,0,1-1.255.975Zm-2.488-1.535a1.974,1.974,0,0,1,.831.172,3.437,3.437,0,0,1,.7.452,1.553,1.553,0,0,0,1,.492c.452-.027.677-.379.944-.79a2.448,2.448,0,0,1,.745-.835,3.155,3.155,0,0,1,2.66.14c.9.334,2,.452,2.389-.248a1.951,1.951,0,0,0,.126-1.066,2.384,2.384,0,0,1,.149-1.228c.37-.763,1.2-.9,2-.993a4.516,4.516,0,0,0,1.328-.33,1.739,1.739,0,0,0,.872-1.874,2.309,2.309,0,0,0-.1-.343,2.231,2.231,0,0,1-.154-.736c0-.781.655-1.233,1.278-1.662a6.613,6.613,0,0,0,.6-.452,2.565,2.565,0,0,0-.98-4.412c-.154-.045-.312-.077-.474-.108a2.027,2.027,0,0,1-1.463-.759,1.838,1.838,0,0,1-.208-.813q0-.275-.027-.555a6.12,6.12,0,0,0-.167-1.4,1.752,1.752,0,0,0-1.12-1.287,2.615,2.615,0,0,0-1.829.551,2.907,2.907,0,0,1-2.168.569,2.836,2.836,0,0,1-.84-.452,2.533,2.533,0,0,0-.732-.411c-.768-.208-1.526.452-1.906,1.147a8.631,8.631,0,0,0-.452,1,6.566,6.566,0,0,1-.7,1.432.962.962,0,0,1-.6.452,1.088,1.088,0,0,1-.533-.09l-.1-.041a1.454,1.454,0,0,0-1.806,1.513,3.586,3.586,0,0,0,.117.452,2.145,2.145,0,0,1,.149.781,2.872,2.872,0,0,1-.9,1.721,3.116,3.116,0,0,0-.9,1.608,11.364,11.364,0,0,0-.036,1.4,5.6,5.6,0,0,1-.56,3.03c-.158.294-.343.574-.519.844a6.8,6.8,0,0,0-.745,1.355,1.838,1.838,0,0,0,.4,2.1,2.314,2.314,0,0,0,2.082,0,5.568,5.568,0,0,1,1.657-.33Z" transform="translate(-94.129)"/><path class="b" d="M207.605,86.01a.235.235,0,0,1-.149-.054.23.23,0,0,1-.023-.321,40,40,0,0,1,6.842-5.979c3.888-2.606,6.268-6.011,6.534-9.339a.235.235,0,0,1,.244-.208.226.226,0,0,1,.208.244c-.28,3.518-2.673,6.954-6.733,9.678a39.288,39.288,0,0,0-6.774,5.9.217.217,0,0,1-.149.077Z" transform="translate(-96.398 -2.63)"/><path class="b" d="M227.219,80.3a.23.23,0,0,1-.221-.172l-.041-.154c-.172-.65-.537-2,.036-6.006a.23.23,0,0,1,.257-.19.226.226,0,0,1,.19.257c-.56,3.911-.212,5.2-.045,5.816l.041.167a.217.217,0,0,1-.163.271Z" transform="translate(-106.985 -4.64)"/><path class="b" d="M222.656,90.8a.226.226,0,0,1,0-.452,37.622,37.622,0,0,0,6.589-.668.231.231,0,1,1,.1.452,38.185,38.185,0,0,1-6.683.677Z" transform="translate(-104.652 -13.361)"/><path class="b" d="M217.728,86.665a.221.221,0,0,1-.221-.194c-.027-.181-.61-4.475-.045-6.092a.227.227,0,0,1,.429.149c-.528,1.513.054,5.839.063,5.871a.23.23,0,0,1-.194.253Z" transform="translate(-101.793 -8.18)"/><path class="a" d="M207.785,83.354a5.654,5.654,0,0,1,1.034-.059c1.639.063,3.12.948,4.687,1.436,2.285.709,4.733.564,7.117.754,8.639.677,11.5,3.811,16.433,10.156a6.157,6.157,0,0,1,1.721,3.708,18.457,18.457,0,0,0-.316,2.71c.275,1.969,2.75,2.619,4.191,3.988a5.759,5.759,0,0,1,1.079,6.124,10.956,10.956,0,0,1-4.249,4.9c-3.884,2.682-8.549,3.956-13.132,5.094-8.865,2.2-17.788,2.312-26.549-.786a31.82,31.82,0,0,0-4.715-1.513c-2.29-.429-4.642-.126-6.973-.167s-4.809-.492-6.48-2.113c-2.8-2.71-6.236-8.345-5.252-12.337.759-3.071,3.441-4.764,5.916-6.381a27.7,27.7,0,0,0,6.322-5.789c4.516-5.044,11.118-7.677,17.513-9.366a13.549,13.549,0,0,1,1.653-.361Z" transform="translate(-79.304 -9.86)"/><path class="b" d="M213.567,123.733a42.061,42.061,0,0,1-14.139-2.411l-1.084-.4a16.623,16.623,0,0,0-8.314-1.3c-.732.023-1.49.045-2.231.032-3-.05-5.175-.763-6.638-2.177-2.818-2.71-6.322-8.431-5.315-12.554.763-3.084,3.342-4.773,5.839-6.4l.172-.113a26.755,26.755,0,0,0,6.2-5.649l.095-.1c4.967-5.582,12.446-8.056,17.612-9.429a13.07,13.07,0,0,1,1.662-.366h0A5.952,5.952,0,0,1,208.5,82.8a9.777,9.777,0,0,1,3.238.9c.492.2,1,.4,1.508.56a19.775,19.775,0,0,0,5.053.641c.659,0,1.355.05,2.01.1,8.783.691,11.741,3.988,16.6,10.242.948,1.219,1.806,2.434,1.766,3.852a6.477,6.477,0,0,1-.176,1.2,4.3,4.3,0,0,0-.145,1.477c.172,1.2,1.255,1.888,2.407,2.615a10.808,10.808,0,0,1,1.716,1.242,5.926,5.926,0,0,1,1.133,6.363A11.224,11.224,0,0,1,239.289,117c-3.87,2.669-8.458,3.947-13.209,5.126a52.024,52.024,0,0,1-12.514,1.6Zm-21.748-4.6a16.507,16.507,0,0,1,3.017.235A22.99,22.99,0,0,1,198.5,120.5c.357.135.718.266,1.079.393,8.2,2.9,16.84,3.161,26.418.781,4.71-1.165,9.253-2.434,13.06-5.058a10.752,10.752,0,0,0,4.164-4.8,5.518,5.518,0,0,0-1.025-5.871,10.7,10.7,0,0,0-1.644-1.188c-1.188-.745-2.416-1.522-2.615-2.931a4.72,4.72,0,0,1,.149-1.635,5.417,5.417,0,0,0,.167-1.111,5.96,5.96,0,0,0-1.671-3.568c-4.918-6.322-7.677-9.393-16.257-10.066-.664-.054-1.355-.081-2-.108a19.87,19.87,0,0,1-5.189-.646c-.524-.163-1.039-.37-1.54-.569a9.253,9.253,0,0,0-3.084-.854,5.113,5.113,0,0,0-1,.059h0a13.729,13.729,0,0,0-1.612.352c-8.129,2.163-13.661,5.117-17.4,9.3l-.09.1a27.8,27.8,0,0,1-6.3,5.722l-.176.117c-2.421,1.581-4.922,3.22-5.645,6.133-.962,3.906,2.529,9.542,5.189,12.121,1.377,1.355,3.45,2.005,6.322,2.05.736,0,1.486,0,2.213-.032C190.626,119.154,191.222,119.136,191.818,119.136Zm15.67-36.055Z" transform="translate(-79.008 -9.586)"/><path class="c" d="M272.736,124.261a.452.452,0,0,0-.555-.312l-5.139,1.9a.453.453,0,0,0,.244.872l5.135-1.906a.452.452,0,0,0,.316-.555Z" transform="translate(-128.938 -32.147)"/><path class="c" d="M249.694,140.729l-6.1.3c-.578.032-.578.935,0,.9l6.1-.3C250.277,141.605,250.277,140.7,249.694,140.729Z" transform="translate(-116.021 -41.358)"/><path class="c" d="M270.938,146.041a.452.452,0,0,0-.555-.312,9.664,9.664,0,0,1-3.161.528.452.452,0,1,0,0,.9,10.359,10.359,0,0,0,3.419-.564A.452.452,0,0,0,270.938,146.041Z" transform="translate(-128.969 -44.092)"/><path class="c" d="M292.421,131.34a.452.452,0,0,0-.614-.163l-2.29,1.016a.452.452,0,1,0,.456.781l2.29-1.016A.452.452,0,0,0,292.421,131.34Z" transform="translate(-141.321 -36.087)"/><path class="c" d="M235.047,109.15h-3.306a.452.452,0,1,0,0,.9h3.306a.452.452,0,0,0,0-.9Z" transform="translate(-109.511 -24.04)"/><path class="c" d="M222.6,122.67h-1.526a.452.452,0,1,0,0,.9H222.6a.452.452,0,0,0,0-.9Z" transform="translate(-103.66 -31.455)"/><path class="c" d="M247.392,123.044q-.285-1.138-.56-2.258a.452.452,0,1,0-.872.239q.275,1.138.56,2.258a.452.452,0,1,0,.872-.239Z" transform="translate(-117.548 -30.239)"/><path class="c" d="M263.992,99.594a11.181,11.181,0,0,1-4.2,1.558.452.452,0,1,0,.239.872,11.832,11.832,0,0,0,4.412-1.653C264.94,100.064,264.488,99.287,263.992,99.594Z" transform="translate(-124.962 -18.761)"/><path class="c" d="M220.565,97.109l-1.5-.817a.452.452,0,0,0-.452.777l1.5.822a.452.452,0,1,0,.452-.781Z" transform="translate(-102.458 -16.966)"/><path class="c" d="M215.066,111.37a8.58,8.58,0,0,0-3.3.8.45.45,0,1,0,.456.777,7.447,7.447,0,0,1,2.84-.677.452.452,0,0,0,0-.9Z" transform="translate(-98.684 -25.258)"/><path class="c" d="M288.471,153.71a.452.452,0,0,0-.555.316c-.28.9-.555,1.852-.835,2.773a.453.453,0,0,0,.872.244c.28-.926.555-1.852.835-2.777a.452.452,0,0,0-.316-.555Z" transform="translate(-140.098 -48.469)"/><path class="c" d="M237.474,152.085a.452.452,0,0,0-.619.163,9.144,9.144,0,0,1-3.708,2.827.452.452,0,1,0,.456.781,10.07,10.07,0,0,0,4.033-3.161A.452.452,0,0,0,237.474,152.085Z" transform="translate(-110.407 -47.552)"/><path class="c" d="M217.754,142.293l-1.508-1.039a.45.45,0,1,0-.456.777l1.508,1.043a.452.452,0,1,0,.456-.781Z" transform="translate(-100.888 -41.613)"/><path class="c" d="M305.746,140.636a6.083,6.083,0,0,1-2.822-.452.452.452,0,1,0-.456.781,7.117,7.117,0,0,0,3.279.578.454.454,0,0,0,0-.908Z" transform="translate(-148.423 -41.026)"/><path class="c" d="M293.975,108.832a1.231,1.231,0,0,1-.316-.027h-.239a6,6,0,0,1-.641-.145c-.2-.059-.406-.131-.6-.208l-.063-.027h0l-.144-.063c-.1-.05-.2-.1-.3-.158a.452.452,0,1,0-.452.781,6.774,6.774,0,0,0,2.782.795.474.474,0,1,0-.023-.948Z" transform="translate(-142.242 -23.483)"/><path class="c" d="M209.181,128.066a.452.452,0,0,0-.555-.316l-1.779.51a.452.452,0,1,0,.239.872l1.779-.51a.452.452,0,0,0,.316-.555Z" transform="translate(-95.924 -34.232)"/><path class="c" d="M204.307,153.277a.452.452,0,0,0-.619-.163,1.974,1.974,0,0,1-.452.248h-.054l-.1.036a2.254,2.254,0,0,1-.248.077,2.611,2.611,0,0,1-.257.054.419.419,0,0,1-.1,0H202.4a3.326,3.326,0,0,1-.519,0,.452.452,0,1,0,0,.9,3.816,3.816,0,0,0,2.258-.587A.452.452,0,0,0,204.307,153.277Z" transform="translate(-93.136 -48.117)"/><path class="c" d="M248.94,91.2q-.5-1.273-1-2.551a.453.453,0,0,0-.872.244l1,2.547a.452.452,0,1,0,.872-.239Z" transform="translate(-118.156 -12.618)"/><path class="c" d="M277.748,112.89l-.506-2.294a.452.452,0,0,0-.872.239q.253,1.143.51,2.29a.449.449,0,1,0,.867-.235Z" transform="translate(-134.225 -24.651)"/><path class="c" d="M233.953,134.264l-.759-.763a.483.483,0,0,0-.321-.131.452.452,0,0,0-.321.768l.763.763a.45.45,0,0,0,.637-.637Z" transform="translate(-110.133 -37.323)"/><path class="c" d="M265.317,159.131a3.159,3.159,0,0,1-.411-.09,1.453,1.453,0,0,1-.2-.063l-.09-.032h-.059c-.113-.054-.226-.108-.334-.172l-.176-.113-.077-.054-.063-.045-.045-.036-.086-.072c-.05-.041-.095-.086-.14-.131a2.966,2.966,0,0,1-.275-.307v-.023l-.059-.077-.122-.194a3.608,3.608,0,0,1-.185-.375.452.452,0,1,0-.781.456,3.82,3.82,0,0,0,2.877,2.222.461.461,0,1,0,.226-.894Z" transform="translate(-126.437 -50.349)"/><path class="c" d="M195.052,138.578l-1.856-.537a.452.452,0,0,0-.239.872l1.856.537a.452.452,0,1,0,.239-.872Z" transform="translate(-88.306 -39.875)"/><path class="c" d="M193.618,123.175a.452.452,0,0,0-.321-.135.546.546,0,0,0-.307.126h0a3.745,3.745,0,0,1-.723.424,3.849,3.849,0,0,1-.452.149.452.452,0,1,0,.239.872,3.992,3.992,0,0,0,1.558-.795.464.464,0,0,0,0-.641Z" transform="translate(-87.681 -31.658)"/><path class="e" d="M263.587,117.164c-.149-.045-.3-.095-.452-.154h-.023l-.108-.05-.2-.095q-.2-.108-.393-.23c-.068-.041-.131-.086-.194-.131l-.095-.068-.05-.036h.023a.5.5,0,0,0-.321-.131.454.454,0,0,0-.316.772,5.631,5.631,0,0,0,1.883.993.452.452,0,0,0,.239-.872Z" transform="translate(-125.985 -27.945)"/><path class="e" d="M247.405,103.979a.42.42,0,0,0-.271-.208l-1.016-.176a.492.492,0,0,0-.348.05.452.452,0,0,0-.208.266.483.483,0,0,0,.045.348.452.452,0,0,0,.271.208l1.016.176a.488.488,0,0,0,.348-.045.452.452,0,0,0,.163-.619Z" transform="translate(-117.331 -20.987)"/><path class="e" d="M233.672,123.267a.452.452,0,0,0-.619-.163l-1.188.677a.452.452,0,1,0,.452.781l1.188-.677a.452.452,0,0,0,.167-.619Z" transform="translate(-109.694 -31.659)"/><path class="e" d="M237.449,98.414a12.23,12.23,0,0,1-2.931-.167.459.459,0,0,0-.221.89,13.1,13.1,0,0,0,3.161.2.452.452,0,1,0,0-.9Z" transform="translate(-110.978 -18.055)"/><path class="e" d="M256.051,130.651a.452.452,0,0,0-.637,0l-.239.194h0l-.063.045-.122.09c-.172.126-.348.248-.528.361a10.387,10.387,0,0,1-1.124.61.452.452,0,1,0,.456.781,10.388,10.388,0,0,0,2.258-1.459A.452.452,0,0,0,256.051,130.651Z" transform="translate(-121.479 -35.759)"/><path class="e" d="M231.336,148.276a.452.452,0,0,0-.555-.316l-2.574.732a.452.452,0,1,0,.239.872l2.579-.732A.452.452,0,0,0,231.336,148.276Z" transform="translate(-107.638 -45.315)"/><path class="e" d="M275.616,139.126l-1.553-2.005a.452.452,0,0,0-.772.321.519.519,0,0,0,.131.316q.786,1,1.563,2.01a.452.452,0,0,0,.321.131.474.474,0,0,0,.321-.131.483.483,0,0,0,.131-.321.533.533,0,0,0-.14-.321Z" transform="translate(-132.544 -39.308)"/><path class="e" d="M281.405,100.083l-1.87-.673a.452.452,0,1,0-.239.872l1.87.668a.452.452,0,1,0,.239-.867Z" transform="translate(-135.656 -18.69)"/><path class="e" d="M259.069,91.146a.452.452,0,0,0-.555-.316,15.7,15.7,0,0,1-2.917.777.452.452,0,1,0,.239.872,15.7,15.7,0,0,0,2.922-.777A.452.452,0,0,0,259.069,91.146Z" transform="translate(-122.659 -13.985)"/><path class="e" d="M293.819,121.057a.452.452,0,0,0-.619-.163,12.089,12.089,0,0,1-4.019.939.452.452,0,1,0,0,.9,13.548,13.548,0,0,0,4.475-1.061.452.452,0,0,0,.163-.619Z" transform="translate(-141.012 -30.447)"/><path class="e" d="M305.374,133.19a.452.452,0,0,0-.555.316,1.038,1.038,0,0,0-.045.126.188.188,0,0,0,0,.045c-.036.077-.077.158-.117.235s-.086.154-.135.23l-.077.108c0,.027-.113.14,0,.036a4.8,4.8,0,0,1-.357.384l-.1.09-.05.041-.036.027h0l-.054.041-.122.081a.452.452,0,0,0,.452.781,3.812,3.812,0,0,0,1.544-1.987.452.452,0,0,0-.348-.555Z" transform="translate(-149.121 -37.215)"/><path class="e" d="M288.862,144.739a1.149,1.149,0,0,1,.163-.167.452.452,0,0,0-.316-.772h-.122a.452.452,0,0,0-.2.117,1.694,1.694,0,0,0-.492.709,1.437,1.437,0,0,0-.09.37,1.6,1.6,0,0,0,0,.388.492.492,0,0,0,.135.321.452.452,0,0,0,.637,0,.411.411,0,0,0,.131-.321,1.322,1.322,0,0,1,0-.266,1.557,1.557,0,0,1,.054-.208A1.524,1.524,0,0,1,288.862,144.739Z" transform="translate(-140.499 -43.043)"/><path class="e" d="M304.426,153.588l-2.488-1.937a.45.45,0,1,0-.637.637l2.484,1.942a.453.453,0,0,0,.641-.641Z" transform="translate(-147.834 -47.276)"/><path class="e" d="M279.292,153.84a.452.452,0,0,0-.555.316c-.167,1.016-.33,2.037-.5,3.053a.45.45,0,1,0,.867.239l.5-3.053a.452.452,0,0,0-.316-.555Z" transform="translate(-135.25 -48.54)"/><path class="e" d="M250.961,157.652a.452.452,0,1,0-.9,0v1.106a5.545,5.545,0,0,1-.307,1.143.452.452,0,1,0,.872.239,5.979,5.979,0,0,0,.339-2.488Z" transform="translate(-119.626 -50.391)"/><path class="e" d="M204.29,112.888a5,5,0,0,0-1.138-1.721.452.452,0,1,0-.641.637,2.847,2.847,0,0,1,.3.321l.068.077v.027c.045.054.086.113.126.172a4.458,4.458,0,0,1,.415.763v-.027a.51.51,0,0,0,.2.262.456.456,0,0,0,.668-.51Z" transform="translate(-93.656 -25.074)"/><path class="e" d="M218.182,154.231a.458.458,0,0,0-.641,0l-1.115,1.409a.479.479,0,0,0-.135.321.453.453,0,0,0,.772.321l1.12-1.409a.5.5,0,0,0,.131-.321A.452.452,0,0,0,218.182,154.231Z" transform="translate(-101.285 -48.691)"/><path class="a" d="M71.835,134.156s-28.355-8.3-29.1-10.256c-.9-2.452-3.671-5.64-5.261-5.144s-5.911,2.4-1.567,6.571c0,0-4.832-.384-3.708,4.118.646,2.588,4.9,1.757,7.677.045,2.592.7,30.374,8.833,30.374,8.833Z" transform="translate(-0.237 -29.281)"/><path class="b" d="M70.009,138.288a.163.163,0,0,1-.063,0c-.275-.081-27.208-7.966-30.256-8.806-1.978,1.2-4.837,2.028-6.557,1.328a2.181,2.181,0,0,1-1.355-1.562,3.519,3.519,0,0,1,.452-3.215,4.09,4.09,0,0,1,2.922-1.188c-1.255-1.319-1.761-2.542-1.5-3.644.411-1.757,2.619-2.624,3.549-2.913,1.752-.551,4.606,2.8,5.541,5.279.51,1.355,18.027,6.927,28.947,10.12a.257.257,0,0,1,.14.117.23.23,0,0,1,0,.181l-1.59,4.168A.226.226,0,0,1,70.009,138.288ZM39.635,129h.059c2.448.659,27.664,8.038,30.18,8.774l1.427-3.744c-3.834-1.124-28.265-8.363-29.006-10.323-.93-2.457-3.613-5.419-4.967-5.013-.668.212-2.877,1.016-3.247,2.588-.244,1.039.352,2.258,1.77,3.613a.23.23,0,0,1,.05.257.226.226,0,0,1-.226.131s-2.109-.145-3.1,1.03a3.052,3.052,0,0,0-.37,2.813,1.748,1.748,0,0,0,1.1,1.251c1.6.655,4.349-.181,6.232-1.355A.226.226,0,0,1,39.635,129Z" transform="translate(0 -29.018)"/><path class="d" d="M120.913,149.145c3.111-.524,20.66-11.326,11.231-26.242-9.664-15.3-16.822-9.935-28.486-8.025-10.775,1.77-14.541,11.086-20.6,9.985-1.852-.33-3.247.7-5.1-1.861s-3.7-.452-2.4,2.493c0,0-2.208-.948-2.773,1.2-.474,1.779,3.319,2.231,3.319,2.231s-4.367-.564-3.613,1.572c.542,1.508,2.037,1.2,4.064,1.508,3.513.537,4.737,1.016,7.51,4.715S94.351,153.62,120.913,149.145Z" transform="translate(-22.377 -25.822)"/><path class="b" d="M110.518,149.992c-17.251,0-23.632-8.923-26.282-12.644-.208-.294-.4-.555-.569-.781-2.678-3.577-3.866-4.1-7.379-4.638-.452-.068-.9-.1-1.3-.14-1.355-.122-2.466-.217-2.926-1.5a1.174,1.174,0,0,1,.131-1.2A2.6,2.6,0,0,1,74,128.4a3.066,3.066,0,0,1-1.481-.984,1.21,1.21,0,0,1-.176-1.039,1.951,1.951,0,0,1,1.016-1.355,2.43,2.43,0,0,1,1.608-.1c-.6-1.666-.2-2.962.519-3.378s1.608,0,2.389,1.084a3.413,3.413,0,0,0,3.477,1.716,7.026,7.026,0,0,1,1.49.068c2.845.515,5.148-1.319,8.07-3.635,3.048-2.421,6.846-5.419,12.468-6.358,2.028-.33,3.9-.763,5.713-1.183,8.661-2.005,14.9-3.45,22.981,9.3,3.161,4.967,3.635,9.958,1.468,14.817-3.161,7.126-10.924,11.412-12.839,11.741h0a61.416,61.416,0,0,1-10.183.9Zm-35.811-21.2a3.176,3.176,0,0,0-2.2.564.79.79,0,0,0-.059.808c.37,1.039,1.246,1.115,2.574,1.233.4.032.854.072,1.355.145,3.644.555,4.868,1.1,7.641,4.791.172.23.361.5.574.79,3.075,4.3,11.249,15.733,36.064,11.556h0c2.059-.343,9.56-4.837,12.536-11.5,2.113-4.728,1.63-9.587-1.436-14.451-7.907-12.509-14.049-11.091-22.552-9.122-1.806.42-3.7.854-5.735,1.188-5.518.9-9.113,3.762-12.288,6.277-2.881,2.285-5.369,4.263-8.386,3.717a6.819,6.819,0,0,0-1.409-.063,3.775,3.775,0,0,1-3.816-1.879c-.65-.9-1.355-1.264-1.861-.971-.641.366-.9,1.684-.194,3.265a.208.208,0,0,1-.041.226.2.2,0,0,1-.226.041,2.344,2.344,0,0,0-1.7-.041,1.617,1.617,0,0,0-.8,1.111.835.835,0,0,0,.117.709c.628.9,2.872,1.233,3.03,1.255h0a.2.2,0,0,1-.054.4h0a9.641,9.641,0,0,0-1.133-.054Zm45.958,20.087Z" transform="translate(-22.129 -25.558)"/><path class="b" d="M40.326,133a.226.226,0,1,1-.032-.452c.032,0,.872-.135,2.755-.266a.226.226,0,1,1,.032.452c-1.861.131-2.71.262-2.71.262Z" transform="translate(-4.651 -36.724)"/><path class="b" d="M174.942,127.679a.2.2,0,0,1-.145-.059c-2.71-2.737-7.361-4.344-7.406-4.358a.2.2,0,0,1-.126-.257.2.2,0,0,1,.253-.126,22.563,22.563,0,0,1,7.569,4.457.2.2,0,0,1,0,.285.19.19,0,0,1-.145.059Z" transform="translate(-74.393 -31.564)"/><path class="b" d="M140.45,187.478h0c-.655-.023-9.51-2.985-11.538-6.9a.2.2,0,0,1,.086-.271.2.2,0,0,1,.275.086c1.915,3.694,10.576,6.656,11.19,6.674a.208.208,0,0,1,.2.208.2.2,0,0,1-.212.2Z" transform="translate(-53.353 -63.053)"/><path class="b" d="M187.323,164.814a.2.2,0,0,1-.023-.4,4.485,4.485,0,0,0,3.839-2.574.208.208,0,0,1,.262-.122.2.2,0,0,1,.117.262,4.885,4.885,0,0,1-4.168,2.836Z" transform="translate(-85.297 -52.862)"/><path class="b" d="M133.682,134.1a.2.2,0,0,1-.14-.343c.772-.772,3.45-1.4,3.568-1.418a.194.194,0,0,1,.239.149.2.2,0,0,1-.149.244,9.981,9.981,0,0,0-3.373,1.31.2.2,0,0,1-.145.059Z" transform="translate(-55.874 -36.756)"/><path class="d" d="M234.582,164.494a23.365,23.365,0,0,0-14.627,0H216.08v3.613c0,2.655,5.013,4.8,11.19,4.8s11.19-2.15,11.19-4.8v-3.613Z" transform="translate(-101.17 -53.748)"/><path class="b" d="M227.029,172.914c-6.385,0-11.389-2.2-11.389-5.008v-3.613a.2.2,0,0,1,.2-.2h3.838a23.677,23.677,0,0,1,14.7,0h3.843a.2.2,0,0,1,.2.2v3.613C238.418,170.714,233.414,172.914,227.029,172.914Zm-10.987-8.44v3.45c0,2.538,4.927,4.6,10.987,4.6s10.987-2.064,10.987-4.6v-3.432h-3.744a23.27,23.27,0,0,0-14.487,0,.185.185,0,0,1-.072,0Z" transform="translate(-100.929 -53.528)"/><ellipse class="a" cx="11.19" cy="4.805" rx="11.19" ry="4.805" transform="translate(114.91 105.942)"/><path class="b" d="M227,164.837c-6.4,0-11.416-2.208-11.416-5.026S220.6,154.78,227,154.78s11.416,2.208,11.416,5.031S233.382,164.837,227,164.837Zm0-9.605c-6.047,0-10.965,2.055-10.965,4.579s4.918,4.575,10.965,4.575,10.965-2.055,10.965-4.575S233.043,155.232,227,155.232Z" transform="translate(-100.896 -49.064)"/><path class="c" d="M230.1,165.072c-4.967,0-8.86-1.725-8.86-3.929s3.893-3.933,8.86-3.933,8.86,1.725,8.86,3.933S235.068,165.072,230.1,165.072Zm0-7.411c-4.557,0-8.409,1.594-8.409,3.482s3.852,3.477,8.409,3.477,8.409-1.594,8.409-3.477-3.829-3.482-8.409-3.482Z" transform="translate(-104 -50.397)"/><ellipse class="c" cx="4.995" cy="2.145" rx="4.995" ry="2.145" transform="translate(121.106 108.601)"/><path class="a" d="M238.943,163.267s-1.133-.872-.813-1.174,1.418-.321,1.522-.122A1.255,1.255,0,0,1,238.943,163.267Z" transform="translate(-113.231 -52.936)"/><path class="a" d="M235.167,164.542a10.991,10.991,0,0,1-2.71-.384c-.406-.285.2-.686.646-.61S234.982,164.149,235.167,164.542Z" transform="translate(-110.078 -53.868)"/><path class="a" d="M235.109,166.52a6.653,6.653,0,0,1-2.226.763c-.777-.014-1.224-.452-.835-.56A10.644,10.644,0,0,1,235.109,166.52Z" transform="translate(-109.848 -55.485)"/><path class="a" d="M239.757,166.61s1.2.849.9,1.161-1.4.339-1.513.14A1.183,1.183,0,0,1,239.757,166.61Z" transform="translate(-113.805 -55.552)"/><path class="a" d="M243.41,166.33a10.632,10.632,0,0,1,2.773.289c.452.289-.072.686-.524.628A5.368,5.368,0,0,1,243.41,166.33Z" transform="translate(-116.158 -55.398)"/><path class="a" d="M242.25,164.366a3.256,3.256,0,0,1,1.544-1.025c.745-.095,1.49.257,1.206.42A8.128,8.128,0,0,1,242.25,164.366Z" transform="translate(-115.522 -53.75)"/><path class="d" d="M281.3,176.05a23.451,23.451,0,0,0-14.627,0H262.8v3.613c0,2.655,5.008,4.8,11.19,4.8s11.186-2.15,11.186-4.8V176.05Z" transform="translate(-126.792 -60.087)"/><path class="b" d="M273.744,184.464c-6.39,0-11.394-2.2-11.394-5.008v-3.613a.2.2,0,0,1,.2-.2h3.839a23.677,23.677,0,0,1,14.7,0h3.839a.2.2,0,0,1,.2.2v3.613C285.133,182.264,280.129,184.464,273.744,184.464Zm-10.987-8.44v3.432c0,2.538,4.927,4.6,10.987,4.6s10.987-2.064,10.987-4.6v-3.432h-3.744a23.185,23.185,0,0,0-14.487,0h-3.744Z" transform="translate(-126.545 -59.862)"/><ellipse class="a" cx="11.19" cy="4.805" rx="11.19" ry="4.805" transform="translate(136.008 111.157)"/><path class="b" d="M273.716,176.387c-6.4,0-11.416-2.208-11.416-5.026s5.013-5.031,11.416-5.031,11.412,2.208,11.412,5.031S280.115,176.387,273.716,176.387Zm0-9.605c-6.047,0-10.965,2.055-10.965,4.579s4.918,4.575,10.965,4.575,10.96-2.05,10.96-4.575S279.776,166.782,273.716,166.782Z" transform="translate(-126.517 -55.398)"/><path class="c" d="M276.82,176.622c-4.967,0-8.86-1.725-8.86-3.929s3.893-3.933,8.86-3.933,8.86,1.725,8.86,3.933S281.788,176.622,276.82,176.622Zm0-7.411c-4.557,0-8.409,1.594-8.409,3.482s3.852,3.477,8.409,3.477,8.409-1.59,8.409-3.477S281.377,169.212,276.82,169.212Z" transform="translate(-129.621 -56.731)"/><ellipse class="c" cx="4.995" cy="2.145" rx="4.995" ry="2.145" transform="translate(142.204 113.817)"/><path class="a" d="M285.64,174.807s-1.133-.872-.817-1.174,1.422-.321,1.526-.122A1.26,1.26,0,0,1,285.64,174.807Z" transform="translate(-138.838 -59.265)"/><path class="a" d="M281.889,176.093a10.964,10.964,0,0,1-2.71-.384c-.4-.285.2-.682.641-.61S281.7,175.7,281.889,176.093Z" transform="translate(-135.702 -60.203)"/><path class="a" d="M281.859,178.07a6.653,6.653,0,0,1-2.226.763c-.777-.014-1.224-.452-.835-.56a10.645,10.645,0,0,1,3.062-.2Z" transform="translate(-135.486 -61.819)"/><path class="a" d="M286.477,178.16s1.2.849.9,1.161-1.4.339-1.513.14A1.183,1.183,0,0,1,286.477,178.16Z" transform="translate(-139.427 -61.886)"/><path class="a" d="M290.13,177.88a10.633,10.633,0,0,1,2.773.289c.452.289-.072.691-.524.628A5.4,5.4,0,0,1,290.13,177.88Z" transform="translate(-141.78 -61.733)"/><path class="a" d="M289,175.92a3.275,3.275,0,0,1,1.549-1.03c.745-.095,1.49.257,1.206.42A8.224,8.224,0,0,1,289,175.92Z" transform="translate(-141.16 -60.084)"/><path class="d" d="M229.732,183.83a23.451,23.451,0,0,0-14.627,0H211.23v3.613c0,2.655,5.008,4.8,11.19,4.8s11.186-2.15,11.186-4.8V183.83Z" transform="translate(-98.51 -64.354)"/><path class="b" d="M222.169,192.244c-6.385,0-11.389-2.2-11.389-5.008v-3.613a.2.2,0,0,1,.2-.2h3.838a23.677,23.677,0,0,1,14.7,0h3.843a.2.2,0,0,1,.2.2v3.613C233.563,190.044,228.559,192.244,222.169,192.244Zm-10.987-8.44v3.432c0,2.538,4.927,4.6,10.987,4.6s10.987-2.064,10.987-4.6V183.8h-3.739a23.184,23.184,0,0,0-14.487,0h-3.748Z" transform="translate(-98.263 -64.129)"/><ellipse class="a" cx="11.19" cy="4.805" rx="11.19" ry="4.805" transform="translate(112.72 114.671)"/><path class="b" d="M222.136,184.167c-6.4,0-11.416-2.208-11.416-5.026s5.013-5.031,11.416-5.031,11.416,2.208,11.416,5.031S228.54,184.167,222.136,184.167Zm0-9.605c-6.047,0-10.965,2.055-10.965,4.579s4.918,4.575,10.965,4.575,10.965-2.05,10.965-4.575S228.183,174.562,222.136,174.562Z" transform="translate(-98.23 -59.665)"/><path class="c" d="M225.24,184.452c-4.967,0-8.86-1.725-8.86-3.929s3.893-3.933,8.86-3.933,8.86,1.725,8.86,3.933S230.208,184.452,225.24,184.452Zm0-7.411c-4.557,0-8.409,1.594-8.409,3.482S220.688,184,225.24,184s8.409-1.594,8.409-3.477-3.848-3.5-8.409-3.5Z" transform="translate(-101.334 -61.025)"/><ellipse class="c" cx="4.995" cy="2.145" rx="4.995" ry="2.145" transform="translate(118.916 117.331)"/><path class="a" d="M234.07,182.587s-1.133-.872-.817-1.174,1.423-.321,1.526-.122A1.26,1.26,0,0,1,234.07,182.587Z" transform="translate(-110.557 -63.532)"/><path class="a" d="M230.319,183.873a10.964,10.964,0,0,1-2.71-.384c-.4-.285.2-.682.641-.61S230.134,183.485,230.319,183.873Z" transform="translate(-107.421 -64.47)"/><path class="a" d="M230.289,185.85a6.653,6.653,0,0,1-2.226.763c-.777-.014-1.224-.452-.835-.56A10.644,10.644,0,0,1,230.289,185.85Z" transform="translate(-107.205 -66.086)"/><path class="a" d="M234.907,185.94s1.2.849.9,1.161-1.4.339-1.513.14A1.183,1.183,0,0,1,234.907,185.94Z" transform="translate(-111.145 -66.153)"/><path class="a" d="M238.56,185.66a10.633,10.633,0,0,1,2.773.289c.452.289-.072.691-.524.628A5.4,5.4,0,0,1,238.56,185.66Z" transform="translate(-113.498 -65.999)"/><path class="a" d="M237.39,183.73a3.275,3.275,0,0,1,1.549-1.03c.745-.095,1.49.257,1.206.42A8.224,8.224,0,0,1,237.39,183.73Z" transform="translate(-112.857 -64.367)"/></g></g></svg>