<svg xmlns="http://www.w3.org/2000/svg" width="106" height="106" viewBox="0 0 106 106"><defs><style>.a{fill:#bebebe;}.b{fill:#fff;}.c{fill:#707070;}</style></defs><g transform="translate(-919 -485)"><rect class="a" width="106" height="106" rx="4" transform="translate(919 485)"/><ellipse class="b" cx="9.5" cy="9" rx="9.5" ry="9" transform="translate(963 527)"/><g transform="translate(965.608 531.722)"><circle class="c" cx="1.978" cy="1.978" r="1.978" transform="translate(4.273 4.248)"/><path class="c" d="M143.48,42.221l-.126-.632a.734.734,0,0,0-.718-.589h-4.087a.734.734,0,0,0-.718.589l-.126.632Z" transform="translate(-134.341 -41)"/><path class="c" d="M11.4,121H1.1A1.1,1.1,0,0,0,0,122.1v6.348a1.1,1.1,0,0,0,1.1,1.1H11.4a1.1,1.1,0,0,0,1.1-1.1V122.1A1.1,1.1,0,0,0,11.4,121Zm-8.277,2.3H1.953a.366.366,0,1,1,0-.732H3.125a.366.366,0,1,1,0,.732Zm3.125,4.688a2.71,2.71,0,1,1,2.71-2.71A2.713,2.713,0,0,1,6.25,127.983Z" transform="translate(0 -119.047)"/></g></g></svg>