<svg xmlns="http://www.w3.org/2000/svg" width="412.832" height="300" viewBox="0 0 412.832 300"><defs><style>.a{fill:#fff;}.b{fill:#231f20;}.c{fill:#ffe01b;}.d{fill:#d1d3d4;}.e{font-size:18px;font-family:Roboto-Bold, Roboto;font-weight:700;letter-spacing:0.003em;}</style></defs><g transform="translate(-448.061 -100)"><g transform="translate(448.061 100)"><path class="a" d="M149.436,149.769l9.262,42.549,34.819-39.571L207.7,165.271s-49.329,73.355-69.015,68.561-14.325-32.621-18.509-62.533S149.436,149.769,149.436,149.769Z" transform="translate(-30.392 -0.521)"/><path class="b" d="M140.773,234.986a8.907,8.907,0,0,1-2.071-.241c-14.991-3.659-15.913-19.856-17.02-40.365-.411-7.333-.851-14.906-1.943-22.764-1.177-8.411.454-14.679,4.865-18.637,8.637-7.744,24.593-3.858,25.26-3.688a.752.752,0,0,1,.525.539l8.964,41.131,33.883-38.521a.723.723,0,0,1,.5-.241.737.737,0,0,1,.511.17l14.183,12.538a.7.7,0,0,1,.113.922C206.469,168.793,161.721,234.971,140.773,234.986Zm-.823-85.368c-4.865,0-10.566.908-14.467,4.425s-5.517,9.474-4.411,17.374,1.532,15.516,1.957,22.877c1.135,19.927,2.042,35.656,16,39.074,7.758,1.872,21.984-9.262,41.131-32.252,13.219-15.871,24.622-32.422,26.735-35.458L193.746,154l-34.337,39.046a.709.709,0,0,1-.709.227.723.723,0,0,1-.525-.539l-9.162-42.1A44.324,44.324,0,0,0,139.95,149.618Z" transform="translate(-30.578 -0.738)"/><path class="b" d="M61.324,251.306c-2.837,19.175-2.4,24.452-2.4,24.452L176.533,273.4,161.059,206.19l-90.176,9.659a171.613,171.613,0,0,0-9.559,35.458Z" transform="translate(-55.872 23.533)"/><path class="b" d="M59.137,276.678a.7.7,0,0,1-.709-.638c0-.227-.454-5.588,2.4-24.622h0a173.517,173.517,0,0,1,9.616-35.628.723.723,0,0,1,.581-.44l90.162-9.659a.7.7,0,0,1,.766.539l15.488,67.228a.7.7,0,0,1-.142.6.667.667,0,0,1-.539.27L59.151,276.678Zm3.092-25.047c-2.283,15.233-2.439,21.7-2.411,23.615l116.031-2.312-15.133-65.767L71.6,216.712a173.586,173.586,0,0,0-9.375,34.919Z" transform="translate(-56.081 23.322)"/><path class="c" d="M60.984,282.79l110.273-12.41c-10.269-65.54-15.5-30.891-3.092-92.19l13.077-3.546c-6.07-31.671-20.991-45.57-20.991-45.57-14.566-26.224-50.08-10.878-50.08-10.878s-40.734,3.262-51.243,38.464c-6.964,23.289,4.992,55.768,6.482,84.12C65.821,248.709,63.083,248.382,60.984,282.79Z" transform="translate(-56.766 -15.142)"/><path class="a" d="M134.13,155.187c-4.1-.624-8.042-1.319-12.283-.184-6.3,1.716-11.843,5.361-18.324,6.879-6.921,1.6-14.467,1.659-21.544,1.986-2.071.1.17,2.723-1.617,1.659-6.283-3.744-6.779-12.268-7.361-18.665a163.585,163.585,0,0,1,1.418-44.35C76.8,89.746,79.27,77.648,91.652,71.124c9.02-4.751,21.7-7.588,31.586-4.071s18.14,12.552,21.587,22.551c3.815,11.063,5.063,22.282,11.474,32.408,2.837,4.468,6.34,8.822,7.092,14.055.823,6.311-2.922,12.665-8.3,16.069s-12.084,4.255-18.438,3.4C135.775,155.442,134.953,155.315,134.13,155.187Z" transform="translate(-50.344 -35.326)"/><path class="b" d="M81.138,166.7a2.114,2.114,0,0,1-.964-.355c-6.34-3.773-7.092-11.9-7.63-18.438v-.78c-1.5-16.779-1.035-31.345,1.418-44.549,2.3-12.325,4.68-25.076,17.6-31.883,8.127-4.255,21.431-7.928,32.153-4.113,9.928,3.532,18.339,12.339,22.012,22.991,1.248,3.6,2.227,7.262,3.177,10.807,2.042,7.56,3.957,14.694,8.226,21.445.511.823,1.05,1.631,1.589,2.439,2.439,3.673,4.964,7.474,5.531,11.914.823,6.241-2.638,12.978-8.609,16.75-6.382,4.042-13.786,4.141-18.863,3.517l-2.539-.369-.61-.085c-3.844-.6-7.489-1.149-11.346-.1a60.1,60.1,0,0,0-8.51,3.248,56.732,56.732,0,0,1-9.928,3.617,98.629,98.629,0,0,1-18.31,1.872l-3.376.142a.581.581,0,0,0-.269,0,1.66,1.66,0,0,0,0,.5,1.135,1.135,0,0,1-.34,1.22.865.865,0,0,1-.411.213ZM113.66,66.425a48.563,48.563,0,0,0-21.487,5.56C79.862,78.467,77.55,90.863,75.309,102.862c-2.439,13.077-2.837,27.515-1.418,44.166l.071.78c.539,6.056,1.191,13.559,6.538,17.02a1.5,1.5,0,0,1,.326-.936,1.688,1.688,0,0,1,1.3-.567l3.376-.142a97.508,97.508,0,0,0,18.041-1.73,54.931,54.931,0,0,0,9.616-3.546,63.072,63.072,0,0,1,8.68-3.319c4.17-1.12,7.957-.539,11.956,0l.61.1h0c.823.113,1.645.241,2.482.34,4.865.61,11.914.525,17.942-3.3,5.5-3.475,8.708-9.659,7.957-15.36-.539-4.113-2.964-7.772-5.3-11.346-.539-.823-1.092-1.645-1.617-2.468-4.383-6.936-6.411-14.523-8.382-21.842-.95-3.517-1.929-7.092-3.149-10.722-3.546-10.254-11.644-18.722-21.161-22.111A28.607,28.607,0,0,0,113.66,66.425Z" transform="translate(-50.525 -35.535)"/><path class="a" d="M132.851,87.552s7.318,17.02,5.134,30.352a19.388,19.388,0,0,1-13.942,16.013l1.418,23.359s.865,11.942-13.9,11.02a25.189,25.189,0,0,1-20.58-13.233L86.6,112.217s15.984-10.595,13.573-25.927C100.272,86.29,120.6,94.587,132.851,87.552Z" transform="translate(-44.286 -26.622)"/><path class="b" d="M113.409,169.255h-1.631A26.125,26.125,0,0,1,90.6,155.582a.779.779,0,0,1,0-.241L86.22,112.494a.752.752,0,0,1,.326-.667c.142-.1,15.6-10.524,13.247-25.217a.723.723,0,0,1,.979-.766c.2,0,20.14,8.07,31.954,1.291a.752.752,0,0,1,.582,0,.78.78,0,0,1,.425.4c.3.695,7.375,17.318,5.177,30.749A20.239,20.239,0,0,1,125.054,134.7l1.418,22.792a11.644,11.644,0,0,1-3.106,8.368C121.054,168.106,117.721,169.255,113.409,169.255ZM91.936,155.072a24.664,24.664,0,0,0,19.941,12.765c4.666.3,8.169-.709,10.425-2.964a10.425,10.425,0,0,0,2.709-7.3l-1.418-23.359a.723.723,0,0,1,.553-.738A18.438,18.438,0,0,0,137.52,118.04c1.872-11.488-3.461-25.884-4.794-29.245-10.907,5.673-26.948.44-31.373-1.163,1.418,13.672-11.346,23.5-13.672,25.175Z" transform="translate(-44.445 -26.829)"/><path class="b" d="M114.857,113.938a21.359,21.359,0,0,1-3.56-.326.709.709,0,0,1-.553-.837.695.695,0,0,1,.837-.553s4.723.908,6.95-.425c.34-1.844-4.127-7.971-7.389-11.758a.714.714,0,1,1,1.078-.936c1.418,1.617,8.255,9.8,7.772,12.765a1.518,1.518,0,0,1-.723,1.12,8.822,8.822,0,0,1-4.411.95Z" transform="translate(-34.192 -21.365)"/><path class="b" d="M113.8,117.015a14.4,14.4,0,0,1-2.567-.227A17.02,17.02,0,0,1,101,110.775a.709.709,0,0,1,.3-.95.723.723,0,0,1,.964.284,15.828,15.828,0,0,0,9.29,5.3c4.794.78,9.559-.979,14.183-5.234a.709.709,0,1,1,.964,1.035Q120.406,117,113.8,117.015Z" transform="translate(-38.294 -16.812)"/><path class="b" d="M118.8,119.87s-12.368,2.369-19.658.993c0,0,8.992,17.9,20.849,17.02Z" transform="translate(-39.04 -12.575)"/><path class="b" d="M119.381,138.857c-11.729,0-20.282-16.736-20.651-17.474a.723.723,0,0,1,.071-.738.681.681,0,0,1,.695-.269c7.092,1.333,19.275-.964,19.4-.993a.7.7,0,0,1,.567.142.709.709,0,0,1,.269.511l1.191,18.027a.709.709,0,0,1-.652.766Zm-18.693-16.878c2.213,3.872,9.6,15.46,18.707,15.46h0L118.3,120.915C115.708,121.383,107,122.745,100.688,121.979Z" transform="translate(-39.241 -12.784)"/><path class="b" d="M168.695,120.893l30.735-1.5-15.4,65.157-33.046,3.248Z" transform="translate(-17.355 -12.776)"/><path class="b" d="M151.211,188.714a.7.7,0,0,1-.539-.241.737.737,0,0,1-.156-.652l17.715-66.887a.7.7,0,0,1,.652-.525l30.721-1.518a.667.667,0,0,1,.582.255.7.7,0,0,1,.142.624l-15.389,65.157a.709.709,0,0,1-.624.539ZM169.479,121.8l-17.332,65.4L183.69,184.1l15.062-63.753Z" transform="translate(-17.558 -12.986)"/><path class="b" d="M137.353,168.256a.709.709,0,0,1-.709-.667,90.488,90.488,0,0,0-6.155-27.373.709.709,0,0,1,.355-.936.695.695,0,0,1,.936.355,91.792,91.792,0,0,1,6.283,27.856.723.723,0,0,1-.667.766Z" transform="translate(-25.953 -4.484)"/><path class="b" d="M101.52,100.538a.553.553,0,0,1-.213,0,.709.709,0,0,1-.468-.879,7.3,7.3,0,0,1,3.546-4.255,6.155,6.155,0,0,1,5.276.383.709.709,0,0,1-.61,1.276,4.851,4.851,0,0,0-4.1-.355A5.815,5.815,0,0,0,102.2,100,.709.709,0,0,1,101.52,100.538Z" transform="translate(-38.342 -22.985)"/><path class="b" d="M115.368,97.051h-.128a.723.723,0,0,1-.567-.837,3.844,3.844,0,0,1,2.071-2.723c1.248-.5,2.837-.1,4.524,1.163a.709.709,0,0,1-.823,1.149c-1.319-.95-2.411-1.291-3.163-1.007a2.468,2.468,0,0,0-1.206,1.688.723.723,0,0,1-.709.567Z" transform="translate(-32.547 -23.696)"/><path class="a" d="M74.267,107.39s1.73,5.191-3.759,20.225-5.262,26.551,8.51,28.621,21.828.411,23.643-11.346-8.779-24.664-8.779-24.664" transform="translate(-52.419 -17.796)"/><path class="b" d="M87.821,157.917a57.934,57.934,0,0,1-8.694-.766C74.077,156.4,70.5,154.314,68.532,151c-2.922-4.936-2.425-12.595,1.518-23.416,5.29-14.481,3.773-19.7,3.758-19.743a.745.745,0,0,1,1.418-.454c0,.227,1.745,5.673-3.773,20.693-3.787,10.4-4.255,17.658-1.631,22.2,1.773,2.993,4.907,4.78,9.588,5.475,13.091,1.971,21.033.851,22.835-10.708,1.745-11.247-8.51-24.026-8.623-24.111a.7.7,0,0,1,.1-.993.709.709,0,0,1,.993.1c.44.539,10.779,13.389,8.921,25.274C102.075,154.9,96.345,157.917,87.821,157.917Z" transform="translate(-52.626 -18.015)"/><path class="a" d="M409.284,44.76H209.544a8.907,8.907,0,0,0-8.921,8.85v60.831l-22.693,27.8,22.693-8.056V305.189a8.921,8.921,0,0,0,8.921,8.921h199.74a8.921,8.921,0,0,0,8.921-8.921V53.61a8.921,8.921,0,0,0-8.921-8.85Z" transform="translate(-6.082 -43.994)"/><path class="b" d="M409.5,315.045H209.757a9.644,9.644,0,0,1-9.63-9.63V135.4l-21.743,7.786a.722.722,0,0,1-.823-1.106L200.1,114.469V53.836a9.63,9.63,0,0,1,9.63-9.616H409.5a9.63,9.63,0,0,1,9.63,9.616V305.415a9.645,9.645,0,0,1-9.63,9.63ZM200.836,133.7a.737.737,0,0,1,.411.128.7.7,0,0,1,.3.582V305.415a8.226,8.226,0,0,0,8.212,8.212H409.5a8.226,8.226,0,0,0,8.212-8.212V53.836a8.212,8.212,0,0,0-8.212-8.2H209.757a8.212,8.212,0,0,0-8.212,8.2v60.831a.723.723,0,0,1-.156.44L180.3,140.948l20.3-7.2a.723.723,0,0,1,.241-.043Z" transform="translate(-6.295 -44.22)"/><path class="a" d="M178.9,179.375c11.346-16.1,11.346-16.1,10.708-21.643-.5-4.255-2.624-7.985-4.851-11.5-2.837-4.482-9.035-11.346-11.346-2.2-1.149,4.4-2.922,9.8-1.7,14.311,1.135,4.17,4.255,7.588,5.971,11.5" transform="translate(-8.855 -4.356)"/><path class="b" d="M179.128,180.292a.737.737,0,0,1-.411-.128.723.723,0,0,1-.17-.993c11.2-15.871,11.2-15.871,10.581-21.147-.482-4.255-2.709-8-4.751-11.2s-5.276-6.652-7.375-6.34c-1.418.227-2.3,2.269-2.737,3.943l-.411,1.532c-1.078,4.028-2.326,8.595-1.276,12.41a26.168,26.168,0,0,0,3.319,6.709,39.714,39.714,0,0,1,2.61,4.695.711.711,0,0,1-1.3.567,38.493,38.493,0,0,0-2.525-4.524,27.374,27.374,0,0,1-3.475-7.092c-1.135-4.184.156-8.949,1.291-13.148l.411-1.518c.78-3.035,2.085-4.709,3.872-4.992,3.7-.582,7.673,5.191,8.808,6.978,2.127,3.347,4.425,7.29,4.964,11.8.681,5.815.681,5.815-10.836,22.14A.7.7,0,0,1,179.128,180.292Z" transform="translate(-9.081 -4.564)"/><path class="a" d="M78.44,201.864s50.917,47.059,65.469,41.684,31.5-27.813,41.485-43.457,22.92-37.259,24.82-46.889-1.078-16.821-4.68-15.02-17.091,15.006-17.091,15.006,4.553-12.907,2.425-12.963-8.4,5.673-10.481,24.111L137.129,208.3l-35.458-34.578" transform="translate(-47.699 -5.031)"/><path class="b" d="M141.532,244.876c-17.4,0-61.4-40.464-63.37-42.28a.709.709,0,0,1,0-1.007.723.723,0,0,1,1.007,0c.128.128,12.878,11.885,27.231,22.821,18.835,14.353,31.8,20.835,37.514,18.722,16.495-6.085,35.656-34.578,41.131-43.173,10.254-16.069,22.863-37.216,24.721-46.634,1.418-6.879.113-12.566-1.886-14.084a1.546,1.546,0,0,0-1.773-.184c-3.475,1.73-16.793,14.779-16.935,14.906a.681.681,0,0,1-.865.085.7.7,0,0,1-.3-.823c1.745-4.95,3.276-10.793,2.922-12.013-1.418.3-7.5,4.893-9.6,23.388a.851.851,0,0,1-.2.425l-43.258,43.967a.695.695,0,0,1-.993,0l-35.458-34.578a.712.712,0,1,1,.993-1.021l35.018,34.039,42.549-43.3c2.142-18.339,8.51-24.423,11.134-24.423h0a1.078,1.078,0,0,1,.922.511c.95,1.418-.5,6.723-1.759,10.623,3.971-3.815,12.368-11.715,15.19-13.119a2.993,2.993,0,0,1,3.276.312c2.752,2.113,3.773,8.623,2.411,15.488-1.9,9.645-14.594,30.947-24.92,47.13-7.092,11.134-25.388,37.67-41.84,43.74a8.07,8.07,0,0,1-2.865.482Z" transform="translate(-47.903 -5.253)"/><rect class="c" width="118.783" height="30.976" rx="8.83" transform="translate(245.94 203.201)"/><path d="M237.231,154.838l-4.921-7.418h2.837l3.29,5.517,3.319-5.517h2.709l-4.922,7.418v5.673h-2.326Z" transform="translate(16.665 -1.051)"/><path d="M240,154.876a4.608,4.608,0,0,1,.383-1.915,4.34,4.34,0,0,1,2.553-2.411,5.4,5.4,0,0,1,3.773,0,4.411,4.411,0,0,1,1.532.936,4.539,4.539,0,0,1,1.035,1.418,4.85,4.85,0,0,1,.369,1.915,4.95,4.95,0,0,1-.369,1.915,4.454,4.454,0,0,1-1.035,1.489,4.724,4.724,0,0,1-1.532.979,5.4,5.4,0,0,1-3.773,0,5.049,5.049,0,0,1-1.532-.979,4.637,4.637,0,0,1-1.021-1.489A4.709,4.709,0,0,1,240,154.876Zm2.255,0a3.814,3.814,0,0,0,.156,1.035,3.317,3.317,0,0,0,.468.922,2.581,2.581,0,0,0,.794.667,2.454,2.454,0,0,0,3.092-.667,2.7,2.7,0,0,0,.468-.922,3.332,3.332,0,0,0,.156-1.035,3.221,3.221,0,0,0-.156-1.035,2.837,2.837,0,0,0-.468-.908,2.241,2.241,0,0,0-.794-.652,2.709,2.709,0,0,0-2.3,0,2.368,2.368,0,0,0-.794.652,3.446,3.446,0,0,0-.468.908,3.66,3.66,0,0,0-.156,1.035Z" transform="translate(19.882 0.116)"/><path d="M256.376,159.264h-2.1v-1.418h0a2.936,2.936,0,0,1-1.021,1.177,3.063,3.063,0,0,1-1.73.5,3.4,3.4,0,0,1-1.418-.3,2.836,2.836,0,0,1-1.021-.808,3.375,3.375,0,0,1-.582-1.149,5.1,5.1,0,0,1-.184-1.319V150.4h2.227v4.907a5.667,5.667,0,0,0,0,.823,1.944,1.944,0,0,0,.241.766,1.425,1.425,0,0,0,1.362.78,1.873,1.873,0,0,0,.908-.213,2.042,2.042,0,0,0,.652-.539,2.425,2.425,0,0,0,.383-.766,3.22,3.22,0,0,0,.128-.879V150.4h2.156Z" transform="translate(23.363 0.196)"/><path d="M255.9,150.5h2.127v1.418h0a3.361,3.361,0,0,1,1.035-1.262,2.68,2.68,0,0,1,1.56-.482h.27a1.536,1.536,0,0,1,.269,0v2.042l-.383-.085h-.312a2.383,2.383,0,0,0-1.22.284,2.141,2.141,0,0,0-.709.667,2.085,2.085,0,0,0-.355.794,2.6,2.6,0,0,0-.1.638v4.751H255.9Z" transform="translate(26.533 0.098)"/><path d="M263.54,154.033a7.277,7.277,0,0,1,.525-2.837,6.183,6.183,0,0,1,1.418-2.156,6.75,6.75,0,0,1,2.213-1.418,7.759,7.759,0,0,1,2.837-.482,7.943,7.943,0,0,1,2.837.482,6.666,6.666,0,0,1,2.227,1.418,6.213,6.213,0,0,1,1.418,2.156,7.857,7.857,0,0,1,0,5.673,6.411,6.411,0,0,1-1.418,2.17,6.61,6.61,0,0,1-2.227,1.418,7.645,7.645,0,0,1-2.837.511,7.474,7.474,0,0,1-2.837-.511,6.694,6.694,0,0,1-2.213-1.418,6.369,6.369,0,0,1-1.418-2.17A7.233,7.233,0,0,1,263.54,154.033Zm2.525,0a5.56,5.56,0,0,0,.326,1.929,4.255,4.255,0,0,0,2.34,2.539,4.893,4.893,0,0,0,3.659,0,4.44,4.44,0,0,0,1.418-1.007,4.382,4.382,0,0,0,.922-1.532,5.56,5.56,0,0,0,.326-1.929,5.432,5.432,0,0,0-.326-1.886,4.6,4.6,0,0,0-.922-1.518,4.1,4.1,0,0,0-1.418-1.007,4.794,4.794,0,0,0-3.688,0,4.255,4.255,0,0,0-1.418,1.007,4.808,4.808,0,0,0-.908,1.518,5.433,5.433,0,0,0-.312,1.886Z" transform="translate(29.729 -1.168)"/><path d="M275,150.5h2.127v1.418h0a3.234,3.234,0,0,1,1.035-1.262,2.638,2.638,0,0,1,1.546-.482h.284a1.192,1.192,0,0,1,.255,0v2.042l-.383-.085h-.3a2.354,2.354,0,0,0-1.22.284,2.056,2.056,0,0,0-.723.667,2.638,2.638,0,0,0-.355.794,3.289,3.289,0,0,0-.085.638v4.751H275Z" transform="translate(34.523 0.097)"/><path d="M288.637,160.77h-2.1v-1.333h0a2.992,2.992,0,0,1-1.291,1.191,3.9,3.9,0,0,1-1.759.4,4.1,4.1,0,0,1-3.191-1.418,4.5,4.5,0,0,1-.865-1.5,5.5,5.5,0,0,1-.312-1.83,5.176,5.176,0,0,1,.326-1.83,4.169,4.169,0,0,1,.879-1.418,4.028,4.028,0,0,1,1.418-.993,4.113,4.113,0,0,1,1.73-.369,4.254,4.254,0,0,1,1.092.142,5.133,5.133,0,0,1,.837.34,3.078,3.078,0,0,1,.624.454,4.054,4.054,0,0,1,.425.454h0V146.8h2.213Zm-7.3-4.468a3.814,3.814,0,0,0,.156,1.035,3.007,3.007,0,0,0,.482.922,2.44,2.44,0,0,0,.794.667,2.34,2.34,0,0,0,1.12.255,2.255,2.255,0,0,0,1.092-.255,2.467,2.467,0,0,0,.823-.652,3.036,3.036,0,0,0,.525-.908,3.234,3.234,0,0,0,.17-1.035,3.361,3.361,0,0,0-.17-1.035,3.121,3.121,0,0,0-.525-.922,2.709,2.709,0,0,0-.823-.667,2.255,2.255,0,0,0-1.092-.255,2.341,2.341,0,0,0-1.12.255,2.241,2.241,0,0,0-.794.652,3.106,3.106,0,0,0-.482.908,3.659,3.659,0,0,0-.156,1.035Z" transform="translate(36.246 -1.31)"/><path d="M296.339,155v.3a2.109,2.109,0,0,1,0,.3h-6.751a2.268,2.268,0,0,0,.255.879,2.028,2.028,0,0,0,.567.681,2.834,2.834,0,0,0,.794.454,2.525,2.525,0,0,0,.922.17,2.837,2.837,0,0,0,1.418-.312,2.538,2.538,0,0,0,.936-.837l1.489,1.177a4.439,4.439,0,0,1-3.815,1.773,5.5,5.5,0,0,1-1.9-.312,4.611,4.611,0,0,1-1.5-.922,4.256,4.256,0,0,1-1.007-1.418,5.545,5.545,0,0,1,0-3.9,4.626,4.626,0,0,1,.993-1.5,4.539,4.539,0,0,1,1.489-.95,4.922,4.922,0,0,1,3.56,0,3.7,3.7,0,0,1,1.418.908,4.1,4.1,0,0,1,.894,1.489A5.93,5.93,0,0,1,296.339,155Zm-2.213-.993A2.538,2.538,0,0,0,294,153.2a1.731,1.731,0,0,0-.369-.695,1.772,1.772,0,0,0-.667-.468,2.269,2.269,0,0,0-.922-.17,2.539,2.539,0,0,0-1.7.6,2.255,2.255,0,0,0-.766,1.546Z" transform="translate(39.706 0.131)"/><path d="M295.223,150.5h2.127v1.418h0a3.233,3.233,0,0,1,1.035-1.262,2.638,2.638,0,0,1,1.546-.482h.284a1.192,1.192,0,0,1,.255,0v2.042l-.383-.085h-.3a2.354,2.354,0,0,0-1.22.284,2.056,2.056,0,0,0-.723.667,2.635,2.635,0,0,0-.355.794,3.3,3.3,0,0,0-.085.638v4.751H295.18Z" transform="translate(42.964 0.097)"/><path d="M303,148.663a1.277,1.277,0,0,1,.4-.936,1.513,1.513,0,0,1,2.028-.014,1.22,1.22,0,0,1,.425.95,1.206,1.206,0,0,1-.425.95,1.513,1.513,0,0,1-2.028-.014,1.276,1.276,0,0,1-.4-.936Zm.312,3.021h2.227v8.864h-2.227Z" transform="translate(46.235 -1.089)"/><path d="M311.879,152.821a2.4,2.4,0,0,0-.808-.667,2.2,2.2,0,0,0-1.12-.284,2.155,2.155,0,0,0-.979.213.78.78,0,0,0-.454.738.752.752,0,0,0,.5.738,9.931,9.931,0,0,0,1.418.44,9.815,9.815,0,0,1,1.007.284,3.815,3.815,0,0,1,.922.5,2.468,2.468,0,0,1,.681.752,2.241,2.241,0,0,1,.255,1.106,2.737,2.737,0,0,1-.312,1.418,2.5,2.5,0,0,1-.808.908,3.261,3.261,0,0,1-1.177.511,5.957,5.957,0,0,1-3.418-.213,4.411,4.411,0,0,1-1.631-1.092l1.418-1.418a2.965,2.965,0,0,0,.964.794,2.737,2.737,0,0,0,1.319.312,1.873,1.873,0,0,0,.482,0,1.318,1.318,0,0,0,.468-.17.936.936,0,0,0,.34-.326.894.894,0,0,0,.128-.5.823.823,0,0,0-.511-.794,8.394,8.394,0,0,0-1.518-.482,7.738,7.738,0,0,1-.979-.284,2.837,2.837,0,0,1-.837-.468,2.241,2.241,0,0,1-.6-.709,2.341,2.341,0,0,1-.213-1.05,2.568,2.568,0,0,1,.3-1.276,2.524,2.524,0,0,1,.808-.879,3.674,3.674,0,0,1,1.121-.511,4.991,4.991,0,0,1,1.3-.17,5.333,5.333,0,0,1,1.872.34,3.007,3.007,0,0,1,1.418,1.021Z" transform="translate(47.469 0.129)"/><path class="d" d="M281.468,150.587a36.748,36.748,0,1,1,36.748-36.748A36.748,36.748,0,0,1,281.468,150.587Zm0-72.064a35.33,35.33,0,1,0,35.33,35.316,35.33,35.33,0,0,0-35.33-35.316Z" transform="translate(21.857 -30.47)"/><path class="d" d="M330.278,63.314a.652.652,0,0,1-.5-.2.709.709,0,0,1,0-1.007l9.105-9.049a.707.707,0,0,1,.993,1.007l-9.105,9.106A.652.652,0,0,1,330.278,63.314Z" transform="translate(57.351 -40.607)"/><path class="d" d="M339.384,63.331a.652.652,0,0,1-.5-.2l-9.106-9.106a.707.707,0,1,1,.993-1.007l9.105,9.106a.709.709,0,0,1,0,1.007.652.652,0,0,1-.5.2Z" transform="translate(57.351 -40.624)"/><path class="c" d="M304.051,98.446A8.6,8.6,0,0,1,303.2,99.6l-30.238,30.2a1.7,1.7,0,0,1-2.837,0q-8.51-8.765-17.02-17.559a1.659,1.659,0,0,1,.1-2.723l4.255-3.844a1.631,1.631,0,0,1,2.553,0l10.056,10.24c1.05,1.064,1.83,1.078,2.837,0l23.487-23.388a1.688,1.688,0,0,1,2.837,0c1.333,1.333,2.666,2.666,3.971,4.014a9.505,9.505,0,0,1,.823,1.12Z" transform="translate(25.087 -24.34)"/><path class="b" d="M106.334,111.5a9.928,9.928,0,1,1,9.687-11.843h0a9.928,9.928,0,0,1-7.687,11.644A10.625,10.625,0,0,1,106.334,111.5Zm0-18.31a7.658,7.658,0,0,0-1.688.17,8.51,8.51,0,1,0,9.928,6.581h0a8.51,8.51,0,0,0-8.226-6.751Z" transform="translate(-40.207 -24.384)"/><path class="b" d="M121.033,108.431a9.845,9.845,0,1,1,9.73-11.843h0a9.928,9.928,0,0,1-7.687,11.644,10.594,10.594,0,0,1-2.042.2Zm0-18.31a8.667,8.667,0,0,0-1.7.17,8.51,8.51,0,1,0,9.928,6.581h0a8.51,8.51,0,0,0-8.212-6.751Z" transform="translate(-33.985 -25.602)"/><path class="b" d="M109.82,98.007a.681.681,0,0,1-.369-.1.695.695,0,0,1-.241-.964,2.837,2.837,0,0,1,3.943-.879.709.709,0,0,1-.652,1.248c-1.418-.723-2.014.241-2.071.355A.709.709,0,0,1,109.82,98.007Z" transform="translate(-34.871 -22.723)"/><line class="a" x1="17.034" y2="2.071" transform="translate(39.776 77.269)"/><path class="b" d="M85.032,101.695a.71.71,0,1,1-.085-1.418l17.02-2.085a.695.695,0,0,1,.78.624.709.709,0,0,1-.61.794l-17.02,2.071Z" transform="translate(-45.257 -21.646)"/><path class="b" d="M87.823,121.3s-5.815-19.644,1.971-33.018c6.453-11.091,23.43-18.764,35.926-19.175A20.466,20.466,0,0,0,103.85,66.4c-12.963,5.673-19.856,12.07-22.423,23.7C77.767,106.92,87.823,121.3,87.823,121.3Z" transform="translate(-46.785 -35.777)"/><path class="b" d="M88.028,122.194a.738.738,0,0,1-.582-.3c-.1-.156-10.2-14.835-6.5-31.756,2.468-11.346,8.879-18.126,22.835-24.21a21.4,21.4,0,0,1,22.693,2.837.723.723,0,0,1,.17.766.681.681,0,0,1-.638.454c-12.027.44-28.919,7.744-35.4,18.878-7.545,12.949-1.957,32.252-1.9,32.451a.709.709,0,0,1-.369.837A.837.837,0,0,1,88.028,122.194ZM113.089,65.32a21.6,21.6,0,0,0-8.737,1.915c-13.488,5.9-19.658,12.41-22.026,23.232s1.262,21.062,3.929,26.466c-1.248-6.737-2.439-19.218,3.134-28.792,6.382-10.964,22.466-18.353,34.635-19.417a19.473,19.473,0,0,0-10.935-3.376Z" transform="translate(-46.99 -35.989)"/><path class="a" d="M97.556,104.66S89.3,88.945,81.827,99.639s5.092,21.189,12.24,19.771" transform="translate(-47.242 -22.597)"/><path class="b" d="M92.876,120.49c-4.1,0-8.978-2.837-11.715-7.092a11.829,11.829,0,0,1,.3-13.97c1.971-2.837,4.255-4.255,6.652-4.042,5.673.355,10.1,8.765,10.3,9.12a.723.723,0,0,1-.312.964.709.709,0,0,1-.95-.3c0-.085-4.255-8.07-9.12-8.368-1.9-.128-3.73,1.035-5.4,3.432a10.538,10.538,0,0,0-.284,12.4c2.751,4.255,8.042,7.006,11.8,6.269a.723.723,0,0,1,.837.567.709.709,0,0,1-.567.823,7.789,7.789,0,0,1-1.532.2Z" transform="translate(-47.455 -22.826)"/><path class="b" d="M101.358,168.848a.738.738,0,0,1-.525-.227c-.17-.2-17.573-19.062-29.515-23.629a.709.709,0,1,1,.5-1.319c12.268,4.751,29.345,23.189,30.068,23.984a.723.723,0,0,1,0,1.007A.709.709,0,0,1,101.358,168.848Z" transform="translate(-50.902 -2.651)"/><path class="d" d="M245.96,92a.738.738,0,0,1-.411-.128l-15.6-10.779a.723.723,0,0,1-.17-.993.695.695,0,0,1,.979-.17l15.6,10.779a.695.695,0,0,1,.184.979A.709.709,0,0,1,245.96,92Z" transform="translate(15.553 -29.338)"/><path class="d" d="M230.379,129.807a.681.681,0,0,1-.581-.3.723.723,0,0,1,.17-.993l15.6-10.779a.709.709,0,0,1,.993.184.695.695,0,0,1-.184.979l-15.6,10.779A.667.667,0,0,1,230.379,129.807Z" transform="translate(15.561 -13.521)"/><path class="d" d="M244.313,103.918H230.4a.709.709,0,0,1,0-1.418h13.914a.709.709,0,0,1,0,1.418Z" transform="translate(15.57 -19.841)"/><path class="d" d="M301.329,92a.709.709,0,0,1-.581-.312.695.695,0,0,1,.184-.979l15.6-10.779a.695.695,0,0,1,.979.17.709.709,0,0,1-.17.993l-15.6,10.779A.737.737,0,0,1,301.329,92Z" transform="translate(45.24 -29.338)"/><path class="d" d="M316.91,129.807a.7.7,0,0,1-.4-.128l-15.6-10.779a.7.7,0,0,1-.184-.979.709.709,0,0,1,.993-.184l15.6,10.779a.709.709,0,0,1,.17.993.681.681,0,0,1-.582.3Z" transform="translate(45.232 -13.521)"/><path class="d" d="M316.413,103.918H302.5a.709.709,0,1,1,0-1.418h13.914a.709.709,0,0,1,0,1.418Z" transform="translate(45.729 -19.841)"/></g><text class="e" transform="translate(704.006 284.821)"><tspan x="0" y="0">Successful</tspan></text></g></svg>