<svg xmlns="http://www.w3.org/2000/svg" xmlns:xlink="http://www.w3.org/1999/xlink" width="224" height="202" viewBox="0 0 224 202"><defs><style>.a{fill:#fff;}.b{fill:#d1d3d4;}.c{fill:#231f20;}.d{fill:#e6e7e8;}.e{fill:#ffe01b;}.f{filter:url(#a);}</style><filter id="a" x="0" y="0" width="224" height="202" filterUnits="userSpaceOnUse"><feOffset dy="3" input="SourceAlpha"/><feGaussianBlur stdDeviation="3" result="b"/><feFlood flood-color="#f9f9f9"/><feComposite operator="in" in2="b"/><feComposite in="SourceGraphic"/></filter></defs><g transform="translate(-39 -294)"><g class="f" transform="matrix(1, 0, 0, 1, 39, 294)"><rect class="a" width="206" height="184" rx="4" transform="translate(9 6)"/></g><g transform="translate(11.26 293.909)"><path class="b" d="M213.464,229.787H67.016a.274.274,0,1,1,0-.547H213.464a.274.274,0,1,1,0,.547Z" transform="translate(0 -87.468)"/><path class="a" d="M130.362,245.941l-.552,4.525a30.4,30.4,0,0,0,4.352,0c.072-.208,1.473-5.865,1.473-5.865Z" transform="translate(-28.284 -94.424)"/><path class="c" d="M132.648,250.613c-.673,0-1.655-.027-3.094-.1a.281.281,0,0,1-.265-.306l.551-4.525a.291.291,0,0,1,.21-.235l5.262-1.335a.277.277,0,0,1,.337.328c-.143.58-1.412,5.674-1.478,5.887S134.093,250.613,132.648,250.613Zm-2.758-.629c1.655.071,3.348.1,3.817.044.16-.613.822-3.283,1.324-5.274l-4.639,1.182Z" transform="translate(-28.049 -94.199)"/><path class="a" d="M86.848,234.47l-2.438,3.863a30.185,30.185,0,0,0,3.944,1.827c.154-.159,3.861-4.694,3.861-4.694Z" transform="translate(-7.924 -89.837)"/><path class="c" d="M88.129,240.214c-.309,0-1.153-.334-4.07-1.866a.252.252,0,0,1-.138-.169.245.245,0,0,1,.033-.213l2.438-3.868a.283.283,0,0,1,.287-.12l5.339,1a.275.275,0,0,1,.211.174.272.272,0,0,1-.046.269c-.381.465-3.7,4.547-3.861,4.705A.221.221,0,0,1,88.129,240.214Zm-3.552-2.189a37.368,37.368,0,0,0,3.436,1.641c.408-.492,2.134-2.61,3.447-4.224l-4.7-.908Z" transform="translate(-7.7 -89.611)"/><path class="c" d="M109.69,140.157c1.053.629,10.369,22.138,11.583,24.129s-1.142,34.224-1.142,34.224h6.828s7.578-25.869,7.578-32.5-8.825-28.309-8.825-28.309l-16,.547" transform="translate(-19.261 -46.014)"/><path class="c" d="M126.734,198.561h-6.806a.276.276,0,0,1-.2-.088.272.272,0,0,1-.073-.208c.954-12.924,2.057-32.659,1.186-34.06-.5-.8-2.25-4.64-4.28-9.083-2.791-6.106-6.619-14.472-7.242-14.959a.272.272,0,0,1-.088-.372.283.283,0,0,1,.381-.087c.6.361,2.758,4.979,7.451,15.194,2.019,4.426,3.762,8.246,4.241,9.017,1.219,1.959-.756,29.661-1.1,34.1h6.3c.7-2.408,7.512-26.011,7.512-32.227s-7.887-25.957-8.726-28.03l-15.808.547a.274.274,0,1,1,0-.547l16-.547a.27.27,0,0,1,.265.17c.364.886,8.863,21.8,8.863,28.408s-7.314,31.521-7.606,32.588A.281.281,0,0,1,126.734,198.561Z" transform="translate(-19.036 -45.792)"/><path class="c" d="M96.264,143.909l.987,22.619L85.26,192.966l5.968,3.595c.3.777,15.659-21.136,17.374-27.806,1.186-4.591.143-26.575.143-26.575Z" transform="translate(-8.305 -48.043)"/><path class="c" d="M91.041,196.637a.3.3,0,0,1-.176-.06h0l-5.973-3.589a.273.273,0,0,1-.11-.345l11.941-26.389-.96-22.553a.279.279,0,0,1,.237-.279l12.482-1.724a.277.277,0,0,1,.214.06.273.273,0,0,1,.1.2c.044.9,1.026,22.077-.154,26.657-1.655,6.4-16.414,27.959-17.589,28.025Zm-5.659-3.989,5.653,3.381c1.655-1.406,15.444-21.224,17.1-27.571,1.1-4.213.265-23.527.149-26.2L96.347,143.9,97.3,166.27a.245.245,0,0,1,0,.126Z" transform="translate(-8.08 -47.823)"/><path class="c" d="M129.279,255.32l-.629,3.48s11.3.695,10.948,0-5.968-3.48-5.968-3.48Z" transform="translate(-27.763 -99.279)"/><path class="c" d="M136.286,259.159c-2.206,0-5.2-.148-7.876-.312a.275.275,0,0,1-.2-.1.271.271,0,0,1-.054-.218l.629-3.48a.275.275,0,0,1,.27-.224h4.352a.235.235,0,0,1,.121.033c1.34.662,5.725,2.878,6.067,3.6a.337.337,0,0,1,0,.339C139.419,259.06,138.117,259.159,136.286,259.159Zm-7.534-.837a80.96,80.96,0,0,0,10.2.191,45.544,45.544,0,0,0-5.609-3.146h-4.054Z" transform="translate(-27.54 -99.052)"/><path class="c" d="M82.919,241.53l-.331.389c-.6.711-1.765,2.188-1.451,2.566a104.827,104.827,0,0,0,9.564,5.641c-.226-.35-3.861-6.768-3.861-6.768" transform="translate(-6.433 -93.034)"/><path class="c" d="M90.495,250.189c-.259,0-1.053-.389-4.865-2.637-1.1-.635-4.633-2.736-4.964-3.1-.154-.175-.507-.585,1.445-2.922.2-.241.336-.394.336-.394a.272.272,0,0,1,.386,0,.261.261,0,0,1,0,.383s-.132.148-.325.378c-1.213,1.455-1.467,2.106-1.434,2.243.336.35,6.5,4.022,8.67,5.192-.993-1.729-3.309-5.822-3.414-6.018a.274.274,0,0,1,.48-.263c1.252,2.216,3.657,6.484,3.861,6.752a.294.294,0,0,1-.066.383A.207.207,0,0,1,90.495,250.189Z" transform="translate(-6.188 -92.818)"/><rect class="d" width="18.423" height="28.671" transform="translate(183.534 99.666) rotate(-0.35)"/><path class="c" d="M278.452,180.893a.264.264,0,0,1-.254-.252l-.2-28.665a.246.246,0,0,1,.073-.18.249.249,0,0,1,.181-.072l18.416-.115a.228.228,0,0,1,.182.071.27.27,0,0,1,.072.181l.176,28.665a.244.244,0,0,1-.071.178.248.248,0,0,1-.177.074l-18.422.115Zm.077-28.671.171,28.167,17.92-.109-.177-28.167Z" transform="translate(-94.739 -52.313)"/><path class="e" d="M0,0,26.029.03l.026,22.18L.026,22.18Z" transform="translate(153.742 109.157) rotate(-8.37)"/><path class="c" d="M227.54,188.475a.247.247,0,0,1-.248-.213l-3.254-21.941a.245.245,0,0,1,.21-.279L250,162.278a.253.253,0,0,1,.287.213l3.26,21.941a.283.283,0,0,1-.05.186.27.27,0,0,1-.165.1l-25.752,3.759ZM224.567,166.5l3.182,21.448L253,184.262l-3.177-21.448Z" transform="translate(-70.538 -57.143)"/><path class="d" d="M0,0,20.406.033l.022,13.754L.022,13.754Z" transform="matrix(0.979, -0.205, 0.205, 0.979, 151.461, 95.129)"/><path class="c" d="M222.981,154.067a.259.259,0,0,1-.248-.2l-2.846-13.454a.259.259,0,0,1,.193-.3l19.977-4.158a.272.272,0,0,1,.193.038.23.23,0,0,1,.1.159l2.846,13.454a.245.245,0,0,1-.034.188.248.248,0,0,1-.159.107l-19.977,4.158Zm-2.548-13.515,2.758,12.967,19.481-4.054L239.913,136.5Z" transform="translate(-68.676 -45.223)"/><path class="c" d="M0,0,15.22.018l.013,11L.013,11Z" transform="translate(174.144 88.048) rotate(-8.61)"/><path class="c" d="M262.926,140.087a.233.233,0,0,1-.149-.049.25.25,0,0,1-.1-.164L261.017,129a.244.244,0,0,1,.044-.186.249.249,0,0,1,.165-.1l15.047-2.26a.25.25,0,0,1,.188.044.246.246,0,0,1,.1.164l1.655,10.872a.246.246,0,0,1-.044.186.231.231,0,0,1-.166.1l-15.052,2.265Zm-1.368-10.91,1.583,10.4,14.55-2.189-1.583-10.4Z" transform="translate(-87.122 -40.921)"/><path class="e" d="M0,0,15.309.049l.022,7.015L.022,7.015Z" transform="matrix(0.895, -0.445, 0.445, 0.895, 159.614, 86.191)"/><path class="c" d="M238.069,128.389a.254.254,0,0,1-.226-.137l-3.138-6.276a.244.244,0,0,1,0-.186.279.279,0,0,1,.127-.148l13.734-6.768a.261.261,0,0,1,.193,0,.247.247,0,0,1,.143.126l3.144,6.27a.255.255,0,0,1,0,.191.246.246,0,0,1-.127.142l-13.75,6.757A.3.3,0,0,1,238.069,128.389Zm-2.8-6.407,2.9,5.822,13.276-6.566-2.918-5.827Z" transform="translate(-75.315 -35.669)"/><path class="a" d="M0,0,7.549.02l.023,8.6L.023,8.6Z" transform="translate(192.174 90.26) rotate(-20.36)"/><path class="c" d="M296.966,141.065a.23.23,0,0,1-.1,0,.247.247,0,0,1-.132-.137l-3.012-8.054a.251.251,0,0,1,.149-.323l7.082-2.6a.254.254,0,0,1,.326.148l3.011,8.049a.246.246,0,0,1-.005.193.249.249,0,0,1-.144.13l-7.082,2.61Zm-2.691-8.152,2.841,7.583,6.618-2.435-2.835-7.583Z" transform="translate(-101.78 -42.496)"/><path class="d" d="M0,0,8.162.008l.008,8.1L.008,8.1Z" transform="matrix(0.992, -0.128, 0.128, 0.992, 171.789, 97.903)"/><path class="c" d="M258.044,156.268a.252.252,0,0,1-.248-.219l-1.048-8.027a.249.249,0,0,1,.05-.186.22.22,0,0,1,.165-.093l8.1-1.045a.253.253,0,0,1,.281.219l1.048,8.032a.244.244,0,0,1-.049.184.248.248,0,0,1-.167.095l-8.1,1.04Zm-.767-8.065.987,7.534,7.595-.974-.987-7.534Z" transform="translate(-85.208 -50.088)"/><ellipse class="c" cx="4.208" cy="4.175" rx="4.208" ry="4.175" transform="translate(153.863 151.648)"/><path class="c" d="M228.684,255.687a4.448,4.448,0,1,1,4.484-4.448A4.466,4.466,0,0,1,228.684,255.687Zm0-8.349a3.9,3.9,0,1,0,3.932,3.9A3.917,3.917,0,0,0,228.684,247.337Z" transform="translate(-70.612 -95.416)"/><path class="d" d="M230.64,243.556v5.389c0,1.4,1.611,1.477,2.344,0s2.3-5.575,2.3-5.575Z" transform="translate(-73.5 -93.867)"/><path class="c" d="M231.343,250.108a1.028,1.028,0,0,1-.265,0,1.221,1.221,0,0,1-.894-1.3v-5.389a.253.253,0,0,1,.237-.252l4.65-.18a.255.255,0,0,1,.215.1.239.239,0,0,1,.028.235c-.061.17-1.583,4.131-2.311,5.6A1.951,1.951,0,0,1,231.343,250.108Zm-.656-6.473v5.149c0,.443.182.733.507.81a1.414,1.414,0,0,0,1.357-.919c.59-1.193,1.759-4.175,2.157-5.2Z" transform="translate(-73.294 -93.695)"/><ellipse class="c" cx="4.208" cy="4.175" rx="4.208" ry="4.175" transform="translate(189.212 151.648)"/><path class="c" d="M292.779,255.687a4.448,4.448,0,1,1,4.489-4.448A4.466,4.466,0,0,1,292.779,255.687Zm0-8.349a3.9,3.9,0,1,0,3.938,3.9A3.917,3.917,0,0,0,292.779,247.337Z" transform="translate(-99.358 -95.416)"/><path class="d" d="M294.74,243.556v5.389c0,1.4,1.61,1.477,2.338,0s2.306-5.575,2.306-5.575Z" transform="translate(-102.246 -93.867)"/><path class="c" d="M295.433,250.108a1.023,1.023,0,0,1-.259,0,1.221,1.221,0,0,1-.9-1.3v-5.389a.258.258,0,0,1,.243-.252l4.644-.181a.248.248,0,0,1,.215.1.256.256,0,0,1,.033.235c-.066.169-1.589,4.131-2.316,5.6A1.941,1.941,0,0,1,295.433,250.108Zm-.651-6.473v5.149c0,.443.182.733.5.81a1.414,1.414,0,0,0,1.357-.919c.6-1.193,1.759-4.175,2.162-5.2Z" transform="translate(-102.035 -93.694)"/><path class="c" d="M268.714,159.721h0l-65.149-3.414a.28.28,0,0,1-.265-.29.274.274,0,0,1,.092-.189.278.278,0,0,1,.2-.068l65.133,3.414a.28.28,0,0,1,.265.29A.275.275,0,0,1,268.714,159.721Z" transform="translate(-61.24 -54.192)"/><path class="c" d="M211.636,176.623a.271.271,0,0,1-.195-.077.267.267,0,0,1-.081-.191.28.28,0,0,1,.27-.279l60.169-.586h0a.274.274,0,1,1,0,.547l-60.169.585Z" transform="translate(-64.854 -63.127)"/><path class="c" d="M222.706,197.377a.274.274,0,1,1,0-.547L275.683,193a.274.274,0,1,1,.039.547l-52.949,3.83Z" transform="translate(-69.819 -71.056)"/><path class="c" d="M209.044,181.588a4.412,4.412,0,0,1-4.1-2.779c-8.119-20.742-13.6-34.317-14.379-35.565-.651-.476-4.528-1.456-7.815-2.1a.826.826,0,0,1-.657-.535.815.815,0,0,1,.165-.827.831.831,0,0,1,.812-.247c2.283.443,7.722,1.587,8.7,2.572.237.235.96.947,14.721,36.112a2.759,2.759,0,0,0,2.758,1.729l44.124-3.721a2.61,2.61,0,0,0,2.372-2.276l2.62-21.946A.827.827,0,0,1,260,152.2l-2.62,21.946a4.27,4.27,0,0,1-3.861,3.721L209.4,181.583Zm-18.449-38.333Z" transform="translate(-51.706 -46.837)"/><path class="a" d="M177.765,136.6l-1.054,3.71-8.61-2.314a1.592,1.592,0,0,1-.965-.754,1.57,1.57,0,0,1-.138-1.211h0a1.589,1.589,0,0,1,1.831-1.094Z" transform="translate(-44.932 -44.748)"/><path class="c" d="M176.477,140.377h-.072l-8.61-2.314a1.862,1.862,0,0,1-1.142-.881,1.809,1.809,0,0,1-.165-1.423,1.86,1.86,0,0,1,2.146-1.308l8.946,1.68a.27.27,0,0,1,.182.126.3.3,0,0,1,.033.219l-1.054,3.732A.271.271,0,0,1,176.477,140.377Zm-8.2-5.428a1.312,1.312,0,0,0-.342,2.577l8.345,2.243.9-3.163-8.654-1.641A1.283,1.283,0,0,0,168.281,134.949Z" transform="translate(-44.698 -44.527)"/><path class="c" d="M230.413,188.008a.27.27,0,0,1-.259-.191L220.1,157.072a.277.277,0,0,1,.388-.331.269.269,0,0,1,.136.161l10.055,30.744a.273.273,0,0,1-.176.345A.252.252,0,0,1,230.413,188.008Z" transform="translate(-68.767 -54.624)"/><path class="c" d="M239.75,188a.275.275,0,0,1-.265-.2l-8.494-30.224a.272.272,0,0,1,.025-.21.276.276,0,0,1,.168-.13.282.282,0,0,1,.342.192l8.516,30.224a.272.272,0,0,1-.025.21.275.275,0,0,1-.168.129Z" transform="translate(-73.653 -54.855)"/><path class="c" d="M248.456,187.885a.276.276,0,0,1-.27-.208l-7.374-29.546a.262.262,0,0,1,.028-.207.265.265,0,0,1,.171-.121.278.278,0,0,1,.209.029.274.274,0,0,1,.127.168l7.374,29.546a.266.266,0,0,1-.03.205.27.27,0,0,1-.169.123Z" transform="translate(-78.057 -55.114)"/><path class="c" d="M257.09,187.708a.27.27,0,0,1-.27-.224l-5.653-28.868a.281.281,0,0,1,.552-.1l5.648,28.868a.279.279,0,0,1-.221.323Z" transform="translate(-82.703 -55.336)"/><path class="c" d="M265.634,187.524a.275.275,0,0,1-.27-.23l-4.837-28.041a.271.271,0,0,1,.046-.205.276.276,0,0,1,.18-.112.272.272,0,0,1,.208.044.267.267,0,0,1,.111.18L265.9,187.2a.279.279,0,0,1-.226.317Z" transform="translate(-86.901 -55.628)"/><path class="c" d="M274.467,187.174a.275.275,0,0,1-.276-.235l-3.734-27.319a.272.272,0,0,1,.05-.2.277.277,0,0,1,.181-.108.281.281,0,0,1,.314.235l3.734,27.319a.271.271,0,0,1-.053.205.276.276,0,0,1-.184.107Z" transform="translate(-91.355 -55.798)"/><path class="c" d="M283.219,186.887a.286.286,0,0,1-.276-.252l-2.394-26.493a.277.277,0,0,1,.552-.049l2.394,26.493a.28.28,0,0,1-.248.3Z" transform="translate(-95.881 -56.041)"/><path class="c" d="M291.974,186.51a.28.28,0,0,1-.276-.257L290,160.635a.271.271,0,0,1,.067-.2.277.277,0,0,1,.192-.094.286.286,0,0,1,.293.257l1.693,25.617a.268.268,0,0,1-.065.2.273.273,0,0,1-.189.092Z" transform="translate(-100.12 -56.267)"/><path class="c" d="M300.639,187.347a.274.274,0,0,1-.276-.268l-.623-25.94a.274.274,0,0,1,.27-.279.28.28,0,0,1,.281.268l.624,25.94a.286.286,0,0,1-.27.279Z" transform="translate(-104.488 -56.502)"/><path class="c" d="M309.716,186.823a.275.275,0,0,1-.276-.274V161.644a.276.276,0,0,1,.552,0V186.55A.275.275,0,0,1,309.716,186.823Z" transform="translate(-108.838 -56.733)"/><path class="c" d="M267.436,231.237H222.209a2.277,2.277,0,0,1-1.935-1.064,2.239,2.239,0,0,1-.106-2.192l6.8-13.64a.831.831,0,0,1,1.109-.372.818.818,0,0,1,.375,1.1l-6.8,13.651a.608.608,0,0,0,.027.6.619.619,0,0,0,.524.291h45.227a.821.821,0,1,1,0,1.641Z" transform="translate(-68.698 -80.514)"/><path class="a" d="M123.063,54.5a1.6,1.6,0,0,1-2.074-.766,1.087,1.087,0,0,1-.154-.99.6.6,0,0,1,.355-.35.605.605,0,0,1,.5.038,12.18,12.18,0,0,1-1.892-3.146,4.145,4.145,0,0,1,.226-3.551,4.891,4.891,0,0,1-2.306-1.91,2.874,2.874,0,0,1,.816-3.321,4.306,4.306,0,0,1,3.491-.826,2.194,2.194,0,0,0-1.153-1.351,7.853,7.853,0,0,1,5.179-1.767,11.9,11.9,0,0,1,8.6,2.785,7.489,7.489,0,0,1,2.328,6.347c-.458,3.1-2.686,1.685-4.793,2.845a16.333,16.333,0,0,0-2.647,2.369c-1.506,1.28-3.442,1.641-4.964,2.736A6.434,6.434,0,0,1,123.063,54.5Z" transform="translate(-22.761 -0.208)"/><path class="c" d="M122.133,54.693a1.882,1.882,0,0,1-1.622-1.023,1.386,1.386,0,0,1-.176-1.237.957.957,0,0,1,.552-.509,10.921,10.921,0,0,1-1.583-2.736,4.437,4.437,0,0,1,.11-3.529,4.8,4.8,0,0,1-2.206-1.9,3.151,3.151,0,0,1,.888-3.649,4.437,4.437,0,0,1,3.232-.947,1.93,1.93,0,0,0-.833-.777.279.279,0,0,1-.154-.2.267.267,0,0,1,.083-.241,7.988,7.988,0,0,1,5.356-1.844,12.133,12.133,0,0,1,8.825,2.862,7.778,7.778,0,0,1,2.41,6.566c-.325,2.189-1.539,2.347-2.829,2.5a5.5,5.5,0,0,0-2.1.547,7.213,7.213,0,0,0-1.655,1.412,12.659,12.659,0,0,1-.954.925,11.221,11.221,0,0,1-2.824,1.609,12.68,12.68,0,0,0-2.135,1.127,6.631,6.631,0,0,1-1.611.908h0A2.421,2.421,0,0,1,122.133,54.693Zm.689-.4Zm-1.655-1.877a.178.178,0,0,0-.077,0,.385.385,0,0,0-.254.213.858.858,0,0,0,.132.744,1.328,1.328,0,0,0,1.748.651h0a6.172,6.172,0,0,0,1.467-.837,13.028,13.028,0,0,1,2.206-1.182,10.947,10.947,0,0,0,2.725-1.516,12.563,12.563,0,0,0,.915-.886,7.709,7.709,0,0,1,1.787-1.527,5.929,5.929,0,0,1,2.3-.613c1.258-.148,2.085-.246,2.35-2.035a7.211,7.211,0,0,0-2.245-6.106c-2.681-2.522-6.415-2.779-8.4-2.736a7.649,7.649,0,0,0-4.721,1.45,2.467,2.467,0,0,1,.949,1.319.261.261,0,0,1-.061.257.266.266,0,0,1-.248.088,4.029,4.029,0,0,0-3.265.766,2.585,2.585,0,0,0-.75,2.993,4.6,4.6,0,0,0,2.206,1.789.285.285,0,0,1,.138.17.3.3,0,0,1-.033.219,3.857,3.857,0,0,0-.2,3.283A12.175,12.175,0,0,0,121.686,52a.272.272,0,0,1-.026.358.277.277,0,0,1-.36.025.178.178,0,0,0-.121.038Z" transform="translate(-22.52 0)"/><path class="a" d="M146.947,59.23s1.484,3.283.976,3.83-1.8-.082-1.8-.082" transform="translate(-35.598 -10.479)"/><path class="c" d="M147.07,63.322a3.33,3.33,0,0,1-1.3-.334.273.273,0,0,1-.127-.367.277.277,0,0,1,.369-.126c.358.181,1.2.443,1.478.142.193-.246-.281-1.9-1.02-3.54a.272.272,0,0,1,.017-.283.277.277,0,0,1,.485.058c.469,1.04,1.495,3.524.921,4.136A1.075,1.075,0,0,1,147.07,63.322Z" transform="translate(-35.373 -10.237)"/><path class="a" d="M138.394,50.523c1.1,1.226.364,3.316.121,4.716q-.513,2.955-1.164,5.876c-.276,1.237-3.541.733-4.054.263l-.386,4.18s-1.142,2.156-3.574.547A5.9,5.9,0,0,1,126.58,62.7l1.164-5.663a4.187,4.187,0,0,0,3.861-1.964,16.915,16.915,0,0,0,2.3-6.259S137.357,49.324,138.394,50.523Z" transform="translate(-26.835 -5.76)"/><path class="c" d="M130.859,66.727a3.409,3.409,0,0,1-1.87-.662,6.321,6.321,0,0,1-2.885-3.584.221.221,0,0,1,0-.1l1.164-5.663a.27.27,0,0,1,.314-.213,3.913,3.913,0,0,0,3.58-1.86,16.573,16.573,0,0,0,2.245-6.134.275.275,0,0,1,.314-.23c.149,0,3.563.547,4.683,1.828h0c.993,1.094.629,2.823.336,4.191-.055.268-.11.52-.154.755-.342,1.959-.734,3.939-1.164,5.887a1.187,1.187,0,0,1-.9.864,5.746,5.746,0,0,1-3.177-.2L133,65.365a.323.323,0,0,1-.033.1,2.622,2.622,0,0,1-1.555,1.215A2.262,2.262,0,0,1,130.859,66.727Zm-4.2-4.3a6,6,0,0,0,2.636,3.184,2.49,2.49,0,0,0,1.969.547,2.033,2.033,0,0,0,1.18-.9l.381-4.115a.279.279,0,0,1,.177-.229.283.283,0,0,1,.287.048,4.9,4.9,0,0,0,3.061.323.739.739,0,0,0,.552-.443c.43-1.937.822-3.907,1.164-5.865.039-.235.1-.5.154-.771.27-1.248.6-2.8-.21-3.715s-3.265-1.45-4.082-1.6a16.6,16.6,0,0,1-2.3,6.1,4.473,4.473,0,0,1-3.861,2.1Z" transform="translate(-26.619 -5.517)"/><path class="a" d="M144.67,67.753a1.638,1.638,0,0,1-2.25-1.023" transform="translate(-33.938 -13.875)"/><path class="c" d="M143.689,67.924a1.8,1.8,0,0,1-.783-.164,1.864,1.864,0,0,1-.976-1.187.286.286,0,0,1,.19-.358.289.289,0,0,1,.361.189,1.331,1.331,0,0,0,.673.859,1.756,1.756,0,0,0,1.213,0,.277.277,0,0,1,.359.153.273.273,0,0,1-.154.356A2.636,2.636,0,0,1,143.689,67.924Z" transform="translate(-33.713 -13.636)"/><path class="a" d="M136.33,57.165A2.653,2.653,0,0,0,136,55.72a3.891,3.891,0,0,0-.552-1.012,1.333,1.333,0,0,0-1.015-.5,1.227,1.227,0,0,0-.883.487,2.284,2.284,0,0,0-.414.936,4.28,4.28,0,0,0,1.346,4.071l-.094-.137" transform="translate(-29.735 -8.205)"/><path class="c" d="M134.2,59.75a.254.254,0,0,1-.182-.071,4.552,4.552,0,0,1-1.429-4.333,2.468,2.468,0,0,1,.463-1.051,1.482,1.482,0,0,1,1.1-.585,1.577,1.577,0,0,1,1.236.6A4.248,4.248,0,0,1,136,55.4a2.92,2.92,0,0,1,.353,1.592.268.268,0,0,1-.108.182.278.278,0,0,1-.438-.258,2.533,2.533,0,0,0-.309-1.3,3.658,3.658,0,0,0-.552-.941,1.067,1.067,0,0,0-.794-.4.956.956,0,0,0-.678.383,2.027,2.027,0,0,0-.358.826,3.994,3.994,0,0,0,1.048,3.606.259.259,0,0,1,.165.12l.094.131a.283.283,0,0,1-.05.356A.266.266,0,0,1,134.2,59.75Z" transform="translate(-29.487 -7.979)"/><path class="c" d="M136.988,70.064a5.365,5.365,0,0,1-2.206-2.074S134.4,71,136.845,72.3Z" transform="translate(-30.503 -14.446)"/><path class="c" d="M136.633,72.347a.294.294,0,0,1-.132-.033c-2.581-1.368-2.206-4.558-2.206-4.585a.28.28,0,0,1,.232-.241.287.287,0,0,1,.292.159,5.113,5.113,0,0,0,2.063,1.942.279.279,0,0,1,.154.263L136.9,72.09a.268.268,0,0,1-.143.219A.233.233,0,0,1,136.633,72.347Zm-1.793-3.677a3.848,3.848,0,0,0,1.544,2.927l.1-1.609A6.354,6.354,0,0,1,134.841,68.67Z" transform="translate(-30.286 -14.218)"/><path class="c" d="M.712,0c.393,0,.712.128.713.283S1.106.565.713.564,0,.436,0,.281.319,0,.712,0Z" transform="matrix(0.325, -0.946, 0.946, 0.325, 109.949, 47.78)"/><path class="e" d="M112.418,73.6s8.6,1.434,10.253,6.358-1.1,20.792,0,22.263,3.861,11.058,3.861,11.359c0,2.665-23.165,3.524-23.165,3.524s-.585-11.572-.772-18.6S106.124,71.982,112.418,73.6Z" transform="translate(-16.076 -16.944)"/><path class="c" d="M141.191,113.915a.249.249,0,0,1-.088,0,.274.274,0,0,1-.188-.257c-.055-.257-.673-1.7-1.213-2.982-.778-1.822-1.583-3.71-1.71-4.273s.11-5.017.463-10.675c.154-2.479.287-4.618.309-5.428a29.86,29.86,0,0,0-.524-5.154.281.281,0,0,1,.551-.1,29.358,29.358,0,0,1,.552,5.269c0,.821-.154,2.966-.309,5.472-.265,4.18-.623,9.9-.48,10.522.121.514.949,2.462,1.655,4.18,1.313,3.091,1.3,3.124,1.247,3.283A.287.287,0,0,1,141.191,113.915Z" transform="translate(-31.937 -22.065)"/><path class="e" d="M108.37,65.728a6.1,6.1,0,0,0-2.256-.9,7.311,7.311,0,0,0-5.256,1.483c-2.157,1.488-4.451,3.25-5,5.8a5.5,5.5,0,0,0,3.182,6.019,2.371,2.371,0,0,0,1.3.224c.844-.131,1.407-.892,1.986-1.516,1.506-1.642,2.874-1.931,4.964-2.145a28.212,28.212,0,0,1,3.905-.2,70.024,70.024,0,0,1,7.926,1.269c1.655.252.96-1.466.292-2.085-1.1-1.023-2.256-1.992-3.442-2.916A66.1,66.1,0,0,0,108.37,65.728Z" transform="translate(-13.016 -12.993)"/><path class="a" d="M151.889,119.723c-.033.148-.188.219-.325.279a7.539,7.539,0,0,1-5.234.388c-1.986-.695-3.039-2.457-5.03-3.064-.722-.219-1.44-.421-2.162-.618-1.037-.284-2.079-.547-3.122-.826-2.945-.771-6.558-1.242-9.239-2.736-2.206-1.253-8.455-12.037-10.187-16.573s3.624-7.189,3.624-7.189c2.885-2.4,10.479,17.416,10.479,17.416l10.91,5.094,2.261,1.051a8,8,0,0,0,1.423.629c1.142.279,2.559-.246,3.668-.482a1.272,1.272,0,0,1,.474-.044,1.319,1.319,0,0,1,.325.1,5.669,5.669,0,0,1,1.318.711,1.874,1.874,0,0,1,.745,1.247l-1.555-.038a1.5,1.5,0,0,0-1.1,2.369c.59.952,2.079,1.061,2.653,2.03A.462.462,0,0,1,151.889,119.723Z" transform="translate(-22.2 -24.043)"/><path class="c" d="M148.03,120.69a6.144,6.144,0,0,1-2.024-.328,8.746,8.746,0,0,1-2.537-1.565,7.525,7.525,0,0,0-2.482-1.5c-.717-.213-1.429-.416-2.151-.613-.965-.263-1.941-.514-2.912-.771l-.21-.049c-.778-.208-1.588-.389-2.449-.58a27.214,27.214,0,0,1-6.856-2.189c-2.256-1.3-8.555-12.147-10.308-16.732s3.309-7.288,3.734-7.518a1.11,1.11,0,0,1,1.009-.2c1.44.372,3.546,3.485,6.26,9.258,1.826,3.879,3.309,7.72,3.6,8.393l10.8,5.039,2.261,1.056.37.181a4.725,4.725,0,0,0,1,.427,6.157,6.157,0,0,0,2.758-.29c.27-.071.552-.137.778-.191a1.62,1.62,0,0,1,.579-.049,1.775,1.775,0,0,1,.386.12,5.58,5.58,0,0,1,1.384.75,2.12,2.12,0,0,1,.849,1.439.262.262,0,0,1-.072.213.277.277,0,0,1-.21.082l-1.555-.038a.95.95,0,0,0-.888.5,1.445,1.445,0,0,0,0,1.455,2.822,2.822,0,0,0,1.213.908,3.2,3.2,0,0,1,1.44,1.127.69.69,0,0,1,.1.46h0a.72.72,0,0,1-.48.471A9.291,9.291,0,0,1,148.03,120.69ZM120.524,89.147a.554.554,0,0,0-.358.137l-.055.038c-.21.1-5.118,2.6-3.491,6.85,1.688,4.41,7.942,15.222,10.066,16.414a24.45,24.45,0,0,0,6.7,2.156c.866.192,1.655.372,2.471.58l.2.055c.976.252,1.952.5,2.923.772.723.2,1.445.4,2.162.618a8.017,8.017,0,0,1,2.67,1.592,8,8,0,0,0,2.4,1.483,7.279,7.279,0,0,0,5.036-.378.552.552,0,0,0,.154-.088.9.9,0,0,0-.044-.093,2.756,2.756,0,0,0-1.23-.919,3.306,3.306,0,0,1-1.434-1.094,2.021,2.021,0,0,1,0-2.013,1.509,1.509,0,0,1,1.384-.772l1.2.033a1.752,1.752,0,0,0-.551-.755,5.012,5.012,0,0,0-1.252-.673,1.243,1.243,0,0,0-.254-.082,1.061,1.061,0,0,0-.381.044c-.237.049-.491.115-.756.181a6.356,6.356,0,0,1-3.034.3,5.868,5.868,0,0,1-1.1-.476l-.353-.175-2.344-1.051-10.91-5.088a.3.3,0,0,1-.143-.153c-1.77-4.618-6.939-16.754-9.52-17.416A.691.691,0,0,0,120.524,89.147Zm31.135,30.312Zm0,0Z" transform="translate(-21.971 -23.778)"/><path class="c" d="M140.947,110.511l-2.482,4.837c-1.037-.285-2.079-.547-3.122-.826-2.945-.771-6.558-1.242-9.238-2.736-2.206-1.253-7.832-8.207-10.535-13.8-3.309-6.9,4.412-11.572,4.412-11.572,2.885-2.4,10.06,19.024,10.06,19.024Z" transform="translate(-21.528 -22.704)"/><path class="c" d="M138.243,115.467h-.072c-.965-.263-1.941-.547-2.912-.771l-.2-.055c-.783-.2-1.594-.383-2.454-.547a27.214,27.214,0,0,1-6.856-2.189c-2.317-1.313-8-8.432-10.645-13.919a7.968,7.968,0,0,1,.987-8.65,13.746,13.746,0,0,1,3.524-3.283,1.027,1.027,0,0,1,.949-.181c.552.148,2.134.6,6.067,10.089,1.748,4.235,3.188,8.426,3.436,9.159l10.8,5.034a.291.291,0,0,1,.143.159.261.261,0,0,1,0,.213l-2.482,4.837A.283.283,0,0,1,138.243,115.467Zm-18-29.174a.476.476,0,0,0-.314.126,13.5,13.5,0,0,0-3.414,3.163,7.36,7.36,0,0,0-.921,8.081c2.8,5.805,8.389,12.53,10.424,13.679a24.452,24.452,0,0,0,6.7,2.156c.866.192,1.655.372,2.471.58l.2.055c.9.235,1.809.47,2.7.711l2.256-4.377L129.7,105.5a.28.28,0,0,1-.143-.164c-1.693-5.045-6.619-18.3-9.145-19A.653.653,0,0,0,120.246,86.293Z" transform="translate(-21.306 -22.522)"/><path class="a" d="M118.423,170.3a.271.271,0,0,1-.2-.088c-2.636-2.856-8.731-12.661-8.985-13.077a.267.267,0,0,1,.088-.378.277.277,0,0,1,.375.088c.066.1,6.326,10.182,8.93,13a.272.272,0,0,1,.045.292A.276.276,0,0,1,118.423,170.3Z" transform="translate(-19.036 -54.626)"/><path class="c" d="M109.468,82.6a.273.273,0,0,1-.138-.509c.309-.181,7.678-4.377,12.338-2.566a.278.278,0,0,1,.154.356.274.274,0,0,1-.147.15.277.277,0,0,1-.211,0c-4.412-1.723-11.787,2.484-11.858,2.528A.25.25,0,0,1,109.468,82.6Z" transform="translate(-19.039 -19.465)"/></g></g></svg>