<svg xmlns="http://www.w3.org/2000/svg" width="20" height="20" viewBox="0 0 20 20"><defs><style>.a{fill:none;}.b{fill:#383b3d;}</style></defs><path class="a" d="M0,0H20V20H0Z"/><path class="b" d="M12.917,4.833A1.667,1.667,0,1,0,11.25,3.167,1.672,1.672,0,0,0,12.917,4.833ZM4.167,10.25a4.167,4.167,0,0,0,0,8.333,4.167,4.167,0,0,0,0-8.333Zm0,7.083a2.917,2.917,0,0,1,0-5.833,2.917,2.917,0,0,1,0,5.833ZM9,9l2-2,.667.667a5.828,5.828,0,0,0,3.3,1.683.837.837,0,0,0,.95-.833.848.848,0,0,0-.708-.825A4.179,4.179,0,0,1,12.917,6.5L11.333,4.917A2.043,2.043,0,0,0,10,4.417a1.4,1.4,0,0,0-1.167.5L6.5,7.25A1.645,1.645,0,0,0,6,8.417a1.4,1.4,0,0,0,.5,1.167l2.667,2.333V15.25a.833.833,0,1,0,1.667,0V11.583a1.67,1.67,0,0,0-.458-1.15Zm6.833,1.25A4.167,4.167,0,1,0,20,14.417,4.126,4.126,0,0,0,15.833,10.25Zm0,7.083a2.917,2.917,0,1,1,2.917-2.917A2.953,2.953,0,0,1,15.833,17.333Z" transform="translate(0 -0.25)"/></svg>