<svg xmlns="http://www.w3.org/2000/svg" xmlns:xlink="http://www.w3.org/1999/xlink" width="224" height="202" viewBox="0 0 224 202"><defs><style>.a{fill:#fff;}.b{fill:#e6e7e8;}.c{fill:#231f20;}.d{fill:#ffe01b;}.e{filter:url(#a);}</style><filter id="a" x="0" y="0" width="224" height="202" filterUnits="userSpaceOnUse"><feOffset dy="3" input="SourceAlpha"/><feGaussianBlur stdDeviation="3" result="b"/><feFlood flood-color="#f9f9f9"/><feComposite operator="in" in2="b"/><feComposite in="SourceGraphic"/></filter></defs><g transform="translate(-334 -498)"><g class="e" transform="matrix(1, 0, 0, 1, 334, 498)"><rect class="a" width="206" height="184" rx="4" transform="translate(9 6)"/></g><g transform="translate(279.914 495.275)"><ellipse class="b" cx="39.519" cy="9.353" rx="39.519" ry="9.353" transform="translate(120.11 155.019)"/><path class="c" d="M135.7,219a76.259,76.259,0,0,0-36.111-8.2c4.89,8.927,14.4,14.693,24.352,16.877,4.386.96,9.563,1.332,13.757-.6C143.194,224.555,139.528,220.943,135.7,219Z" transform="translate(-0.202 -73.231)"/><path class="c" d="M130.412,228.562a31.558,31.558,0,0,1-6.737-.8c-11-2.4-19.942-8.621-24.55-17.032a.3.3,0,0,1,.252-.444,76.661,76.661,0,0,1,36.255,8.219h0c1.2.6,5,2.748,4.956,5.328-.03,1.29-1.026,2.4-3,3.294a17.165,17.165,0,0,1-7.175,1.434Zm-30.519-17.68c4.59,8.033,13.277,13.961,23.914,16.295,5.526,1.2,10.091,1.02,13.565-.6,1.716-.786,2.6-1.716,2.622-2.76,0-1.8-2.4-3.6-4.632-4.8h0A75.845,75.845,0,0,0,99.892,210.882Z" transform="translate(0 -73.027)"/><path class="c" d="M149.653,204.411A42.534,42.534,0,0,0,115.51,176.13a65.556,65.556,0,0,0,18.094,27c4.266,3.8,9.839,7.2,15.383,5.843a1.422,1.422,0,0,0,.81-.426,1.452,1.452,0,0,0,.174-1.032,18.466,18.466,0,0,0-2.25-7.2" transform="translate(-6.571 -59.37)"/><path class="c" d="M146.187,209.385c-4,0-8.351-2.088-12.995-6.227a65.742,65.742,0,0,1-18.2-27.124.306.306,0,0,1,.054-.288.282.282,0,0,1,.27-.108,42.628,42.628,0,0,1,34.395,28.485.3.3,0,0,1-.162.366,18.419,18.419,0,0,1,.486,2.8,1.71,1.71,0,0,1-.228,1.242,1.638,1.638,0,0,1-.978.534,10.931,10.931,0,0,1-2.64.324ZM115.74,176.3a65.088,65.088,0,0,0,17.854,26.4c5.538,4.944,10.619,6.887,15.107,5.771a1.164,1.164,0,0,0,.648-.318,1.23,1.23,0,0,0,.108-.822,18.22,18.22,0,0,0-2.214-7.079.3.3,0,0,1,.12-.408h0A42.123,42.123,0,0,0,115.74,176.3Z" transform="translate(-6.357 -59.171)"/><path class="c" d="M212.6,83.641a.306.306,0,0,1-.3-.3c0-6.671-14.465-12.1-32.247-12.1s-32.247,5.4-32.247,12.1a.3.3,0,0,1-.3.3.306.306,0,0,1-.3-.3c0-7,14.735-12.7,32.847-12.7s32.847,5.7,32.847,12.7A.3.3,0,0,1,212.6,83.641Z" transform="translate(-19.252 -17.168)"/><path class="c" d="M199.621,202.789H159.335A15.053,15.053,0,0,1,144.3,187.754V124.316a11.632,11.632,0,0,1,6.04-10.2.294.294,0,0,1,.314,0c5.705,3.882,16.523,6.3,28.239,6.3,12.137,0,23.14-2.544,28.719-6.641a.33.33,0,0,1,.306,0,11.681,11.681,0,0,1,6.731,10.553v63.426a15.047,15.047,0,0,1-15.029,15.035Zm-49.154-88.054a11.033,11.033,0,0,0-5.567,9.6v63.42a14.447,14.447,0,0,0,14.435,14.435h40.286a14.447,14.447,0,0,0,14.429-14.435V124.316a11.063,11.063,0,0,0-6.227-9.929c-5.717,4.1-16.8,6.647-28.929,6.647C167.17,121.034,156.3,118.622,150.467,114.735Z" transform="translate(-18.088 -34.409)"/><path class="d" d="M151.84,150.26V198.8a12.953,12.953,0,0,0,12.947,12.953h35.4A12.953,12.953,0,0,0,213.131,198.8V150.26Z" transform="translate(-21.104 -49.02)"/><path class="c" d="M200,211.849h-35.4A13.265,13.265,0,0,1,151.36,198.6V150.06a.3.3,0,0,1,.3-.3h61.279a.3.3,0,0,1,.3.3V198.6A13.265,13.265,0,0,1,200,211.849ZM151.948,150.36V198.6a12.659,12.659,0,0,0,12.647,12.653h35.4A12.659,12.659,0,0,0,212.639,198.6V150.36Z" transform="translate(-20.912 -48.82)"/><ellipse class="d" cx="30.651" cy="9.977" rx="30.651" ry="9.977" transform="translate(130.736 91.166)"/><path class="c" d="M182.291,153.536c-17.356,0-30.951-4.518-30.951-10.277S164.935,133,182.291,133s30.951,4.512,30.951,10.277S199.648,153.536,182.291,153.536Zm0-19.954c-16.739,0-30.351,4.338-30.351,9.677s13.613,9.677,30.351,9.677,30.351-4.344,30.351-9.677S199.03,133.6,182.291,133.6Z" transform="translate(-20.904 -42.116)"/><path class="b" d="M114.707,64.922A19.642,19.642,0,0,0,131.086,87.2a18.966,18.966,0,0,0,2.8.228v-2.6l.138-16.955L135.8,84.588h0l.288,2.718a19.552,19.552,0,1,0-21.376-22.384Z" transform="translate(-6.164 -8.234)"/><path class="c" d="M133.7,47.924a19.294,19.294,0,0,1,2.922.228,19.552,19.552,0,0,1-.888,38.769l-.288-2.718h0l-1.764-16.721-.138,16.955v2.6a18.964,18.964,0,0,1-2.8-.228,19.552,19.552,0,0,1,3-38.877m0-.6a20.15,20.15,0,0,0-.228,40.3h0a.6.6,0,0,0,.6-.6v-2.6l.054-6.359.66,6.191a.353.353,0,0,0,0,.078l.276,2.64a.6.6,0,0,0,.6.54h.06a20.146,20.146,0,0,0,.918-39.956,19.529,19.529,0,0,0-3-.234Z" transform="translate(-5.797 -7.843)"/><path class="a" d="M119.6,67.077c-.276,1.614-1.158,2.892-.468,4.626.45,1.116,1.518,1.968,1.686,3.162a10,10,0,0,1,0,1.272c.084,1.86,1.5,2.718,2.472,4.074s1.8,2.676,3.48,3.414c.474.216.978.36,1.446.6.558.276,1.05.666,1.578.978a9.119,9.119,0,0,0,5.64,1.026h.216l.1-12.779a.24.24,0,0,1,.474,0l1.326,12.509h.3c.654,0,1.308.1,1.962.048a9.281,9.281,0,0,0,3.4-1.134,2.484,2.484,0,0,0,1.254-1,11.361,11.361,0,0,0,4.968-3.786,19.918,19.918,0,0,0,3.408-5.735,11.148,11.148,0,0,0,.984-4.692,8.687,8.687,0,0,0-.726-2.088,10.082,10.082,0,0,0-.672-2.4,16.42,16.42,0,0,1-1.248-2.244c-.372-.99-.366-2.088-.762-3.06a4.56,4.56,0,0,0-.486-.888,9.871,9.871,0,0,0-.684-.9,15.85,15.85,0,0,0-4.2-3.882,40.741,40.741,0,0,0-3.876-1.728,7.2,7.2,0,0,0-2.856-.738,13.064,13.064,0,0,0-3.4.912,9.56,9.56,0,0,1-3.042-.042,6.816,6.816,0,0,0-3.18.75,13.408,13.408,0,0,0-1.2.72l-3.744,2.418a5.669,5.669,0,0,0-1.02.78,14.26,14.26,0,0,0-1.836,3.462,10.931,10.931,0,0,0-1.236,4.362A12.906,12.906,0,0,1,119.6,67.077Z" transform="translate(-7.915 -9.603)"/><path class="b" d="M160.421,91.54a6.713,6.713,0,0,1-2.526,3.744,13.8,13.8,0,0,1-4.1,2.052,1.392,1.392,0,0,1-1.038.066,1.452,1.452,0,0,1-.636-1.032l-2.076-7.733a5.724,5.724,0,0,1-.282-1.842c.2-3.1,3.42-.378,4.716.438a57.433,57.433,0,0,1,5.945,4.308Z" transform="translate(-20.272 -23.052)"/><path class="b" d="M157.877,57.66a19.139,19.139,0,0,1,3.3,3.558,1.128,1.128,0,0,1,.282.6,1.1,1.1,0,0,1-.486.8,45.6,45.6,0,0,1-8.039,5.771c-.66.372-1.242,1.062-2.082.81-2.46-.75.852-8.291,1.476-9.857.33-.822.822-3.1,1.752-3.414C155.123,55.566,157.133,57.066,157.877,57.66Z" transform="translate(-20.35 -11.262)"/><path class="b" d="M160.018,74.772c.966-.33,1.932-.678,2.922-.942a.7.7,0,0,1,.294,0c.234.048.342.312.4.54a17.183,17.183,0,0,1,.552,6.743,2,2,0,0,1-.4,1.158,2.163,2.163,0,0,1-1.98.306,39.149,39.149,0,0,1-9.425-2.538c-.708-.324-1.8-.948-1.65-1.9s1.578-1.1,2.352-1.29Q156.592,75.935,160.018,74.772Z" transform="translate(-20.655 -18.438)"/><path class="b" d="M141.859,68.161a1.14,1.14,0,0,1-.378.54,1.362,1.362,0,0,1-1.356.078,4.512,4.512,0,0,1-1.518-1.242,44.635,44.635,0,0,1-3.756-4.86c-1.008-1.512-2.4-3.168-2.178-5.088.186-1.542,1.908-2.058,3.186-2.142a21,21,0,0,0,4-.648,2.4,2.4,0,0,1,1.7-.048,2.006,2.006,0,0,1,.8,2c-.06,1.026-.15,2.028-.144,3.084q0,3.708-.222,7.409A3.6,3.6,0,0,1,141.859,68.161Z" transform="translate(-13.428 -10.759)"/><path class="b" d="M135.668,75.951a.738.738,0,0,1-.132.174,5.34,5.34,0,0,1-1.8,1.2c-2.4.948-5.058,1.068-7.523,1.842-1.2.384-2.64.684-3.21-.87a4.583,4.583,0,0,1,.126-2.3c.3-1.59.114-3.24.288-4.848a5.682,5.682,0,0,1,1.5-3.516c.786-.738,1-.414,1.668.276a48.667,48.667,0,0,0,3.858,3.534L133.52,74c.6.51,1.32.828,1.926,1.374.15.132.306.306.264.5a.294.294,0,0,1-.042.078Z" transform="translate(-9.522 -15.796)"/><path class="b" d="M136.965,94.618c-.18.7-.474,1.5-1.17,1.692a2.088,2.088,0,0,1-1.452-.318q-2.934-1.47-5.711-3.216c-.5-.318-1.038-.726-1.062-1.308a1.8,1.8,0,0,1,.78-1.3,47.336,47.336,0,0,1,7.949-5.831c2.454-1.434,2.262,1.614,2.052,3.216A57.6,57.6,0,0,1,136.965,94.618Z" transform="translate(-11.395 -22.5)"/><path class="a" d="M229.631,33.066,200.875,148.442a4.167,4.167,0,0,1-7.265-1.812L222.365,31.26Z" transform="translate(-37.815 -1.414)"/><path class="c" d="M197.366,150.01a4.146,4.146,0,0,1-.96-.114,5.066,5.066,0,0,1-3.282-3.384.342.342,0,0,1,0-.156l28.749-115.37a.306.306,0,0,1,.366-.222l7.265,1.8a.264.264,0,0,1,.18.138.3.3,0,0,1,.036.228L200.971,148.312a.3.3,0,0,1-.078.132,5.4,5.4,0,0,1-3.528,1.566Zm-3.642-3.6a4.553,4.553,0,0,0,2.832,2.9,4.414,4.414,0,0,0,3.852-1.23L229.043,33.086l-6.659-1.668Z" transform="translate(-37.617 -1.213)"/><ellipse class="c" cx="2.184" cy="3.744" rx="2.184" ry="3.744" transform="matrix(0.242, -0.97, 0.97, 0.242, 184.016, 31.963)"/><path class="c" d="M245.907,33.634a6.6,6.6,0,0,1-1.554-.2A5.639,5.639,0,0,1,241.8,32.1a2.154,2.154,0,0,1-.774-2.046c.336-1.356,2.328-1.98,4.524-1.434s3.66,2.034,3.324,3.39h0C248.624,33.028,247.424,33.634,245.907,33.634ZM244,29.027c-1.236,0-2.226.438-2.4,1.17a1.608,1.608,0,0,0,.6,1.476,5.063,5.063,0,0,0,2.28,1.2c1.8.456,3.552,0,3.8-.99h0c.246-1-1.08-2.214-2.892-2.664A5.706,5.706,0,0,0,244,29.027Zm4.572,2.91Z" transform="translate(-56.772 -0.279)"/><path class="b" d="M240.313,57.707,237,71.026a24.214,24.214,0,0,1-6.305-5.658l3.516-14.1a26.356,26.356,0,0,0,6.107,6.437Z" transform="translate(-52.649 -9.419)"/><path class="c" d="M236.8,71.106a.3.3,0,0,1-.156-.048,24.424,24.424,0,0,1-6.389-5.729.288.288,0,0,1-.048-.252l3.516-14.1a.294.294,0,0,1,.558-.09,25.863,25.863,0,0,0,6,6.365.3.3,0,0,1,.12.318l-3.318,13.307a.306.306,0,0,1-.18.2.246.246,0,0,1-.1.024Zm-6-6a23.44,23.44,0,0,0,5.789,5.244l3.168-12.707a25.857,25.857,0,0,1-5.639-5.861Z" transform="translate(-52.45 -9.199)"/><path class="b" d="M230.773,96.019l-3.318,13.307a23.812,23.812,0,0,1-6.305-5.658l3.51-14.1a26.355,26.355,0,0,0,6.113,6.449Z" transform="translate(-48.832 -24.741)"/><path class="c" d="M227.255,109.427a.312.312,0,0,1-.162-.042,24.322,24.322,0,0,1-6.383-5.729.324.324,0,0,1-.054-.258l3.516-14.1a.294.294,0,0,1,.24-.222.3.3,0,0,1,.3.126,25.857,25.857,0,0,0,6.035,6.377.3.3,0,0,1,.114.312L227.543,109.2a.312.312,0,0,1-.174.21A.378.378,0,0,1,227.255,109.427Zm-6-6a23.59,23.59,0,0,0,5.789,5.25l3.168-12.707a26.02,26.02,0,0,1-5.639-5.867Z" transform="translate(-48.631 -24.542)"/><path class="b" d="M221.223,134.329l-3.318,13.307a24,24,0,0,1-6.305-5.658l3.516-14.1A26.571,26.571,0,0,0,221.223,134.329Z" transform="translate(-45.012 -40.067)"/><path class="c" d="M217.707,147.733a.3.3,0,0,1-.156-.048,24.07,24.07,0,0,1-6.389-5.729.294.294,0,0,1-.048-.252l3.528-14.1a.312.312,0,0,1,.24-.222.306.306,0,0,1,.3.126,25.75,25.75,0,0,0,6.035,6.377.3.3,0,0,1,.114.318l-3.312,13.307a.306.306,0,0,1-.18.2A.348.348,0,0,1,217.707,147.733Zm-6-6a23.578,23.578,0,0,0,5.79,5.244l3.168-12.707a26.092,26.092,0,0,1-5.633-5.861Z" transform="translate(-44.813 -39.865)"/><path class="b" d="M211.677,172.629l-3.312,13.307a23.6,23.6,0,0,1-6.305-5.658l3.51-14.1a26.362,26.362,0,0,0,6.107,6.449Z" transform="translate(-41.195 -55.389)"/><path class="c" d="M208.164,186.045A.36.36,0,0,1,208,186a24,24,0,0,1-6.383-5.723.294.294,0,0,1-.054-.252l3.516-14.1a.294.294,0,0,1,.234-.222.306.306,0,0,1,.306.126,26.242,26.242,0,0,0,6.035,6.377.3.3,0,0,1,.114.312l-3.318,13.307a.294.294,0,0,1-.18.2.234.234,0,0,1-.108.012Zm-6-6a23.212,23.212,0,0,0,5.789,5.25l3.168-12.707a26.662,26.662,0,0,1-5.639-5.861Z" transform="translate(-40.993 -55.198)"/><path class="b" d="M202.573,210.935l-1.7,6.8a4.167,4.167,0,0,1-7.265-1.812l2.856-11.447a26.4,26.4,0,0,0,6.107,6.455Z" transform="translate(-37.815 -70.711)"/><path class="c" d="M197.366,219.308a4.146,4.146,0,0,1-.96-.114,5.066,5.066,0,0,1-3.282-3.384.342.342,0,0,1,0-.156l2.85-11.447a.3.3,0,0,1,.54-.1,26.242,26.242,0,0,0,6.035,6.377.3.3,0,0,1,.114.318l-1.692,6.8a.3.3,0,0,1-.078.132A5.4,5.4,0,0,1,197.366,219.308Zm-3.642-3.6a4.553,4.553,0,0,0,2.832,2.9,4.406,4.406,0,0,0,3.852-1.23l1.638-6.521a26.482,26.482,0,0,1-5.633-5.861Z" transform="translate(-37.617 -70.511)"/><path class="c" d="M180.1,112.062c-11.831,0-22.8-2.454-28.575-6.407-2.8-1.9-4.272-4.068-4.272-6.293V91.61a.306.306,0,0,1,.3-.3.3.3,0,0,1,.3.3v7.751c0,2.016,1.386,4.02,4.008,5.8,5.705,3.882,16.523,6.3,28.24,6.3,12.137,0,23.14-2.544,28.719-6.641,2.31-1.68,3.528-3.6,3.528-5.46V91.61a.3.3,0,0,1,.6,0v7.751c0,2.094-1.3,4.146-3.768,5.945C203.5,109.47,192.33,112.062,180.1,112.062Z" transform="translate(-19.268 -25.437)"/><path class="c" d="M180.1,104.331c-18.112,0-32.847-5.7-32.847-12.7a.3.3,0,1,1,.6,0c0,6.671,14.465,12.1,32.247,12.1s32.247-5.4,32.247-12.1a.3.3,0,0,1,.6,0C212.92,98.619,198.186,104.331,180.1,104.331Z" transform="translate(-19.268 -25.445)"/><path class="d" d="M236.644,203.76c5.28,0,11.111,1.3,15.485,4.4a24.381,24.381,0,0,1,5.621,5.538c1.536,2.112,2.316,5.076,4.236,6.809a18.376,18.376,0,0,1,2.064,1.8,3.756,3.756,0,0,1,.4,4.008,7.283,7.283,0,0,1-2.124,2.2c-.99.78-2.064,1.458-3.054,2.22a13.665,13.665,0,0,0-2.046,2.556,21.754,21.754,0,0,1-5.328,4.722,29.475,29.475,0,0,1-30.945-.282c-4.7-3.138-6.1-7.589-9.431-11.711a6.029,6.029,0,0,1-1.38-2.4c-.534-2.574,2.466-4.584,3.45-6.725a19.876,19.876,0,0,1,5.04-6.821A27.484,27.484,0,0,1,236.644,203.76Z" transform="translate(-44.401 -70.423)"/><path class="c" d="M236.426,242.347a28.8,28.8,0,0,1-15.863-4.578c-3.15-2.106-4.8-4.746-6.6-7.541a42.886,42.886,0,0,0-2.922-4.236,6.228,6.228,0,0,1-1.44-2.532c-.378-1.8.828-3.318,1.992-4.764a11.536,11.536,0,0,0,1.482-2.148,20.1,20.1,0,0,1,5.136-6.917,27.984,27.984,0,0,1,18.214-6.371c5.963,0,11.669,1.62,15.659,4.452a24.658,24.658,0,0,1,5.723,5.591,21.345,21.345,0,0,1,1.638,2.874,12.971,12.971,0,0,0,2.55,3.888,6.08,6.08,0,0,0,.774.6,7.536,7.536,0,0,1,1.326,1.2,4.056,4.056,0,0,1,.426,4.332,7.565,7.565,0,0,1-2.2,2.3c-.522.408-1.074.8-1.608,1.17s-.984.684-1.452,1.044a6.732,6.732,0,0,0-1.338,1.6c-.2.306-.42.6-.654.912a21.964,21.964,0,0,1-5.4,4.8A28.552,28.552,0,0,1,236.426,242.347Zm0-38.487a27.373,27.373,0,0,0-17.818,6.221,19.564,19.564,0,0,0-4.962,6.719,11.963,11.963,0,0,1-1.56,2.268c-1.08,1.338-2.2,2.73-1.872,4.272a5.759,5.759,0,0,0,1.32,2.274,43.386,43.386,0,0,1,2.958,4.3c1.728,2.736,3.36,5.322,6.407,7.355a29.169,29.169,0,0,0,30.6.282,21.369,21.369,0,0,0,5.256-4.656,9.491,9.491,0,0,0,.6-.876,7.235,7.235,0,0,1,1.47-1.734c.48-.366.984-.72,1.476-1.062s1.068-.75,1.578-1.152a7.2,7.2,0,0,0,2.046-2.112,3.432,3.432,0,0,0-.366-3.672,6.971,6.971,0,0,0-1.2-1.1c-.27-.21-.552-.42-.81-.654a13.235,13.235,0,0,1-2.688-4.068,19.34,19.34,0,0,0-1.584-2.79,24.052,24.052,0,0,0-5.556-5.472C247.849,205.444,242.264,203.86,236.426,203.86Z" transform="translate(-44.184 -70.223)"/><path class="c" d="M293.927,238a7.919,7.919,0,0,1-1.8-.162.3.3,0,0,1-.222-.36.306.306,0,0,1,.366-.222c.03,0,3.414.78,8.969-1.464a.3.3,0,0,1,.39.162.306.306,0,0,1-.162.4A20.4,20.4,0,0,1,293.927,238Z" transform="translate(-77.135 -83.23)"/><path class="c" d="M305.933,225.321S299,215.391,307.949,208.9C307.949,208.9,314.747,218.439,305.933,225.321Z" transform="translate(-81.726 -72.48)"/><path class="c" d="M305.751,225.418h-.042a.306.306,0,0,1-.2-.126c-.072-.1-6.989-10.253,2.1-16.841a.312.312,0,0,1,.228-.054.306.306,0,0,1,.192.126c.072.1,6.845,9.857-2.088,16.835A.3.3,0,0,1,305.751,225.418Zm1.956-16.295a9.728,9.728,0,0,0-4.008,10.145,16.414,16.414,0,0,0,2.124,5.4,10.2,10.2,0,0,0,3.96-10.277,15.629,15.629,0,0,0-2.076-5.268Z" transform="translate(-81.544 -72.277)"/><path class="c" d="M307.4,236.27s8.4-.264,9.443,9.6C316.845,245.887,304.846,247.567,307.4,236.27Z" transform="translate(-83.195 -83.429)"/><path class="c" d="M315.043,246.139c-1.89,0-4.974-.36-6.875-2.4-1.59-1.734-2.016-4.308-1.26-7.655a.306.306,0,0,1,.282-.234c.084,0,8.705-.156,9.755,9.887a.3.3,0,0,1-.258.324A12,12,0,0,1,315.043,246.139Zm-7.625-9.737c-.636,3-.246,5.34,1.17,6.881,2.268,2.466,6.551,2.274,7.7,2.172C315.283,237.056,308.786,236.438,307.418,236.4Z" transform="translate(-82.995 -83.261)"/><path class="a" d="M144.6,218.459a.3.3,0,0,1-.3-.3V186.8a.3.3,0,0,1,.6,0v31.359A.3.3,0,0,1,144.6,218.459Z" transform="translate(-18.088 -63.518)"/><path class="a" d="M223.43,218.952a.318.318,0,0,1-.144-.036.294.294,0,0,1-.12-.4c.042-.078,4.332-7.883,17.632-10.127a.3.3,0,0,1,.1.6c-12.983,2.184-17.158,9.737-17.2,9.815A.294.294,0,0,1,223.43,218.952Z" transform="translate(-49.624 -72.273)"/><circle class="a" cx="1.398" cy="1.398" r="1.398" transform="translate(140.149 123.282)"/><path class="a" d="M232.821,178.5a1.72,1.72,0,0,0,0,3.438A1.72,1.72,0,0,0,232.821,178.5Z" transform="translate(-52.836 -60.318)"/><path class="a" d="M191.891,176.78a1.72,1.72,0,0,0,0,3.438A1.72,1.72,0,0,0,191.891,176.78Z" transform="translate(-36.462 -59.63)"/><path class="a" d="M173.887,230.031a1.272,1.272,0,0,0-.354-.6l-.276-.216a1.343,1.343,0,0,0-.7-.186H172.3a1,1,0,0,0-.528.114,1.038,1.038,0,0,0-.444.288,1.026,1.026,0,0,0-.282.444,1,1,0,0,0-.12.528l.048.366a1.374,1.374,0,0,0,.354.6l.276.216a1.362,1.362,0,0,0,.7.186h.258a1.452,1.452,0,0,0,.972-.4.984.984,0,0,0,.288-.444,1.05,1.05,0,0,0,.12-.528Z" transform="translate(-28.741 -80.531)"/><path class="a" d="M178.78,204.47a1.377,1.377,0,0,0,0,2.754A1.377,1.377,0,0,0,178.78,204.47Z" transform="translate(-31.342 -70.707)"/><path class="a" d="M225.071,195.72a1.72,1.72,0,0,0,0,3.438A1.72,1.72,0,0,0,225.071,195.72Z" transform="translate(-49.736 -67.207)"/><path class="a" d="M200.1,236.62a1.723,1.723,0,0,0,0,3.444A1.723,1.723,0,0,0,200.1,236.62Z" transform="translate(-39.746 -83.569)"/><path class="a" d="M171.891,167.16c-2.658,0-2.658,4.128,0,4.128S174.555,167.16,171.891,167.16Z" transform="translate(-28.328 -55.781)"/><path class="a" d="M192.133,192.92a1.723,1.723,0,0,0,0,3.444A1.723,1.723,0,0,0,192.133,192.92Z" transform="translate(-36.56 -66.087)"/><path class="a" d="M242.511,188.4a1.72,1.72,0,0,0,0,3.438A1.72,1.72,0,0,0,242.511,188.4Z" transform="translate(-56.713 -64.278)"/></g></g></svg>