<svg xmlns="http://www.w3.org/2000/svg" xmlns:xlink="http://www.w3.org/1999/xlink" width="224" height="202" viewBox="0 0 224 202"><defs><style>.a{fill:#fff;}.b{fill:#231f20;}.c{fill:#d1d3d4;}.d{fill:#ffe01b;}.e{filter:url(#a);}</style><filter id="a" x="0" y="0" width="224" height="202" filterUnits="userSpaceOnUse"><feOffset dy="3" input="SourceAlpha"/><feGaussianBlur stdDeviation="3" result="b"/><feFlood flood-color="#f9f9f9"/><feComposite operator="in" in2="b"/><feComposite in="SourceGraphic"/></filter></defs><g transform="translate(-39 -90)"><g class="e" transform="matrix(1, 0, 0, 1, 39, 90)"><rect class="a" width="206" height="184" rx="4" transform="translate(9 6)"/></g><g transform="translate(-4.238 81.82)"><circle class="a" cx="72.588" cy="72.588" r="72.588" transform="translate(82.749 33.492)"/><path class="b" d="M156.073,178.981a72.9,72.9,0,1,1,72.888-72.9,72.9,72.9,0,0,1-72.888,72.9Zm0-145.177a72.276,72.276,0,1,0,72.264,72.272A72.279,72.279,0,0,0,156.073,33.8Z" transform="translate(-0.723 0)"/><path class="c" d="M160.72,175.914a65.187,65.187,0,1,1,65.175-65.183,65.19,65.19,0,0,1-65.175,65.183Zm0-129.75a64.563,64.563,0,1,0,64.551,64.559A64.566,64.566,0,0,0,160.72,46.164Z" transform="translate(-5.369 -4.647)"/><path class="a" d="M248.629,157.519c-2.92,4.474-5.435,8.68-9.885,11.738-4.874,3.345-11.127,4.736-16.643,2.846-5.654-1.941-9.791-6.908-13.635-11.657-2.371-2.933-4.78-5.928-6.147-9.492-1.71-4.474-1.641-9.442-1.529-14.266v-.381c.243-10.515.624-21.18,3.669-31.2a36.725,36.725,0,0,1,4.368-9.729c3.089-4.643,7.576-8.175,10.347-13.03a48.264,48.264,0,0,1,2.677-4.743A13.015,13.015,0,0,1,232.5,72.65a21.177,21.177,0,0,1,11.3,3.969,12.356,12.356,0,0,1,3.638,3.376c2.109,3.226,1.6,7.488,1.953,11.42.381,4.25,1.872,8.318,2.4,12.556a57.232,57.232,0,0,1,.075,10.29q-.562,10.471-1.117,20.949a28.936,28.936,0,0,0,.212,7.164.437.437,0,0,0,.044.231c.318,1.485.867,2.9,1.123,4.4C252.91,151.528,250.857,154.106,248.629,157.519Z" transform="translate(-44.928 -14.839)"/><path class="b" d="M227.16,173.075a16.6,16.6,0,0,1-5.354-.867c-5.9-2.028-10.265-7.42-13.773-11.751-2.328-2.908-4.824-5.941-6.2-9.579-1.772-4.643-1.654-9.822-1.548-14.39v-.374c.262-11.339.724-21.517,3.682-31.3A36.713,36.713,0,0,1,208.37,95a52.707,52.707,0,0,1,4.824-5.878A42.507,42.507,0,0,0,218.735,82c.306-.537.593-1.092.874-1.641a22.279,22.279,0,0,1,1.828-3.12,13.328,13.328,0,0,1,10.908-5.086,21.511,21.511,0,0,1,11.464,4.019,12.8,12.8,0,0,1,3.744,3.47c1.635,2.5,1.741,5.616,1.872,8.637.031.967.069,1.966.15,2.921a49.519,49.519,0,0,0,1.248,6.727,57.179,57.179,0,0,1,1.154,5.822,57.835,57.835,0,0,1,.075,10.34l-1.117,20.955a28.545,28.545,0,0,0,.206,7.083.4.4,0,0,0,.044.225c.137.624.324,1.3.505,1.928a21.662,21.662,0,0,1,.624,2.5c.749,4.275-.98,6.864-2.983,9.916-.181.268-.368.549-.549.83l-.686,1.055c-2.64,4.075-5.136,7.925-9.286,10.771a20.625,20.625,0,0,1-11.651,3.732Zm4.911-100.321a12.653,12.653,0,0,0-10.166,4.836,22.091,22.091,0,0,0-1.772,3.052c-.287.555-.574,1.117-.886,1.66a42.94,42.94,0,0,1-5.616,7.239,51.915,51.915,0,0,0-4.73,5.81A36.131,36.131,0,0,0,204.582,105c-2.939,9.7-3.395,19.838-3.657,31.127v.381c-.106,4.506-.225,9.616,1.51,14.147,1.36,3.545,3.744,6.527,6.1,9.411,3.451,4.268,7.751,9.585,13.492,11.551,5.123,1.76,11.233.711,16.369-2.8,4.044-2.777,6.509-6.577,9.111-10.609l.686-1.061h0l.549-.83c2.009-3.039,3.594-5.435,2.9-9.467a22.517,22.517,0,0,0-.624-2.421c-.187-.624-.374-1.3-.518-1.966a.461.461,0,0,0-.05-.25,29.442,29.442,0,0,1-.212-7.226l1.117-20.955a57.734,57.734,0,0,0-.069-10.228c-.25-1.941-.705-3.882-1.142-5.76a49.3,49.3,0,0,1-1.248-6.815c-.087-.974-.125-1.978-.156-2.952-.1-2.933-.206-5.966-1.747-8.318a12.013,12.013,0,0,0-3.551-3.295,20.9,20.9,0,0,0-11.12-3.913Z" transform="translate(-44.739 -14.65)"/><path class="b" d="M248.629,195.871c-2.92,4.474-5.435,8.68-9.885,11.738-4.874,3.345-11.127,4.736-16.643,2.846-5.654-1.941-9.791-6.908-13.635-11.657-2.371-2.933-4.78-5.928-6.147-9.492-1.71-4.474-1.641-9.442-1.529-14.266v-.381c1.972,3.882,3.345,8.113,6.041,11.551s6.5,5.866,10.2,8.181c3.807,2.39,7.832,4.843,12.281,4.949,7.1.187,13.067-5.616,17.067-11.8,1.448-2.24,2.908-4.68,4.568-6.827a.437.437,0,0,0,.044.231c.318,1.485.867,2.9,1.123,4.4C252.91,189.88,250.857,192.458,248.629,195.871Z" transform="translate(-44.928 -53.191)"/><path class="b" d="M227.145,211.437a16.605,16.605,0,0,1-5.361-.867c-5.91-2.034-10.278-7.426-13.785-11.763-2.359-2.921-4.8-5.947-6.2-9.585-1.779-4.649-1.66-9.822-1.554-14.4v-.381a.343.343,0,0,1,.262-.318.337.337,0,0,1,.374.181c.624,1.2,1.173,2.5,1.722,3.676a36.766,36.766,0,0,0,4.281,7.819c2.721,3.476,6.478,5.829,10.109,8.113s7.645,4.786,12.113,4.9c7.869.2,13.9-7.214,16.78-11.651l1.03-1.61c1.117-1.766,2.278-3.588,3.551-5.242a.337.337,0,0,1,.349-.119.343.343,0,0,1,.25.268l.037.212c.144.624.331,1.3.512,1.928a23.03,23.03,0,0,1,.624,2.5c.749,4.287-.986,6.9-2.989,9.935l-.549.83-.686,1.055c-2.64,4.075-5.136,7.925-9.292,10.777A20.625,20.625,0,0,1,227.145,211.437ZM200.9,175.866c-.087,4.25-.075,8.949,1.529,13.136,1.36,3.545,3.744,6.527,6.1,9.4,3.451,4.268,7.751,9.585,13.479,11.551,5.123,1.754,11.233.705,16.344-2.8,4.044-2.777,6.509-6.571,9.111-10.609l.686-1.055h0l.549-.836c2.009-3.027,3.588-5.423,2.889-9.442a22.475,22.475,0,0,0-.624-2.421c-.144-.487-.287-.98-.412-1.485-1.086,1.473-2.1,3.064-3.083,4.605-.343.549-.686,1.086-1.03,1.616-2.958,4.555-9.142,12.169-17.361,11.957-4.649-.112-8.974-2.821-12.45-4.992-3.682-2.309-7.488-4.693-10.278-8.262a38.038,38.038,0,0,1-4.368-7.957c-.337-.811-.7-1.629-1.08-2.434Z" transform="translate(-44.724 -52.987)"/><path class="c" d="M213.264,113.494a.312.312,0,0,1-.2-.549s2.671-2.228,5.985-4.83a26.37,26.37,0,0,0,3.682-3.495,21.1,21.1,0,0,1,2.652-2.6c1.46-1.173,2.952-2.165,4.368-3.12,1.023-.68,2.078-1.385,3.12-2.128q.93-.686,1.816-1.31a37.993,37.993,0,0,0,4.805-3.838,26.68,26.68,0,0,1,4.643-3.382c.886-.555,1.722-1.08,2.434-1.61a.318.318,0,0,1,.437.069.312.312,0,0,1-.062.437c-.736.543-1.585,1.073-2.5,1.635a25.8,25.8,0,0,0-4.531,3.295,38.809,38.809,0,0,1-4.886,3.9c-.587.418-1.192.849-1.81,1.3-1.017.755-2.084,1.466-3.12,2.147a52.764,52.764,0,0,0-4.368,3.12,20.845,20.845,0,0,0-2.584,2.5,27.457,27.457,0,0,1-3.744,3.57c-3.307,2.59-5.941,4.793-5.972,4.818a.287.287,0,0,1-.168.069Z" transform="translate(-49.52 -20.075)"/><path class="c" d="M213.22,138a.318.318,0,0,1-.243-.119.306.306,0,0,1,.044-.437l.268-.218a58.649,58.649,0,0,0,10.035-9.66,21.885,21.885,0,0,1,5.829-5.1,56.787,56.787,0,0,0,6.621-4.992c6.7-5.829,14.459-12.237,14.534-12.3a.312.312,0,0,1,.4.481c-.081.062-7.825,6.465-14.521,12.287a56.1,56.1,0,0,1-6.69,5.061A21.523,21.523,0,0,0,223.8,128a57.849,57.849,0,0,1-10.122,9.754l-.268.218A.318.318,0,0,1,213.22,138Z" transform="translate(-49.501 -27.041)"/><path class="c" d="M215.681,164.344a.325.325,0,0,1-.181-.056.312.312,0,0,1-.075-.437c.062-.087,6.078-8.556,11.807-13.417,1.991-1.691,3.57-2.939,4.992-4.031a50.084,50.084,0,0,0,7.158-6.478,45.872,45.872,0,0,1,6.864-5.916,33.935,33.935,0,0,0,5.123-4.325.306.306,0,0,1,.437,0,.318.318,0,0,1,.031.443,35.046,35.046,0,0,1-5.217,4.412,44.306,44.306,0,0,0-6.8,5.829,50.347,50.347,0,0,1-7.214,6.521c-1.385,1.1-2.964,2.334-4.949,4.019-5.66,4.811-11.638,13.217-11.7,13.3A.312.312,0,0,1,215.681,164.344Z" transform="translate(-50.427 -36.247)"/><path class="c" d="M227.482,182.647a.293.293,0,0,1-.187-.062.312.312,0,0,1-.062-.437,19.347,19.347,0,0,1,2.671-2.733c1.7-1.485,4.88-4.25,9.623-8.019,4.574-3.632,15.6-14.94,15.713-15.052a.312.312,0,1,1,.443.437c-.106.112-11.164,11.445-15.77,15.1-4.73,3.744-7.894,6.521-9.6,8a18.933,18.933,0,0,0-2.584,2.64A.318.318,0,0,1,227.482,182.647Z" transform="translate(-54.865 -46.263)"/><path class="c" d="M243.315,195.851a.337.337,0,0,1-.231-.1.312.312,0,0,1,0-.443c.037-.037,3.894-3.651,7.9-7.613,4.418-4.368,9.985-10.265,10.216-10.883a.331.331,0,0,1,.406-.181.312.312,0,0,1,.187.387c-.287.817-6.964,7.763-10.365,11.12-4.019,3.975-7.882,7.588-7.919,7.626A.318.318,0,0,1,243.315,195.851Z" transform="translate(-60.813 -53.925)"/><path class="c" d="M260.171,121.843a.318.318,0,0,1-.3-.218c-.275-.861-.53-1.722-.786-2.6a35.438,35.438,0,0,0-5.242-11.726c-3.744-5.229-11.233-20.637-11.333-20.793a.312.312,0,0,1,.144-.418.318.318,0,0,1,.418.144c.075.156,7.551,15.52,11.276,20.7,3.12,4.306,4.231,8.175,5.336,11.913.256.874.512,1.735.786,2.584a.312.312,0,0,1-.206.393Z" transform="translate(-60.62 -19.882)"/><path class="c" d="M253.828,148.14a.312.312,0,0,1-.275-.169c-.056-.1-5.342-10.06-9.211-13.96a21.381,21.381,0,0,1-4.287-7.189,22.3,22.3,0,0,0-3.364-6.053c-3.376-3.944-11.376-15.258-11.457-15.37a.312.312,0,1,1,.505-.362c.081.112,8.069,11.407,11.426,15.326a22.693,22.693,0,0,1,3.463,6.24,20.914,20.914,0,0,0,4.156,7c3.931,3.963,9.1,13.691,9.317,14.1a.312.312,0,0,1-.131.424A.287.287,0,0,1,253.828,148.14Z" transform="translate(-54.109 -26.958)"/><path class="c" d="M249.274,168.679a.312.312,0,0,1-.293-.218s-.655-1.8-4.811-6.415-11.289-12.955-13.585-18.284c-2.2-5.1-12.793-23.526-12.9-23.714a.313.313,0,0,1,.543-.312c.106.187,10.715,18.634,12.93,23.776,2.265,5.248,9.417,13.6,13.473,18.1,4.281,4.755,4.917,6.565,4.942,6.64a.318.318,0,0,1-.2.393A.28.28,0,0,1,249.274,168.679Z" transform="translate(-51.283 -32.482)"/><path class="c" d="M237.934,181.571a.306.306,0,0,1-.2-.075,121.442,121.442,0,0,1-12.7-12.93c-5.211-6.44-13.91-27.6-14.278-28.494a.312.312,0,1,1,.58-.231c.087.218,8.992,21.947,14.178,28.331a122.365,122.365,0,0,0,12.624,12.849.318.318,0,0,1,0,.443.324.324,0,0,1-.206.106Z" transform="translate(-48.685 -40.026)"/><path class="d" d="M236.208,150.035a.874.874,0,0,1,.131-.505c.231-.287.686-.162.961.081s.493.568.836.674a20.488,20.488,0,0,1,.2-2.552,1.248,1.248,0,0,1,.381-.874c.449-.318,1.03.094,1.417.487a4.075,4.075,0,0,1,.5-2.259,1.256,1.256,0,0,1,1.928-.262,3.57,3.57,0,0,1,3.956-1.66c-.262.867-.543,1.722-.849,2.571.468.3,1.092-.25,1.616-.069a.949.949,0,0,1,.374,1.248,2.665,2.665,0,0,1-1.036,1.017l-1.81,1.229a1.872,1.872,0,0,1,.874.3.7.7,0,0,1,.225.855.867.867,0,0,1-.381.318,14.765,14.765,0,0,1-2.165,1c.493-.081.88.537.8,1.061a2.54,2.54,0,0,1-.8,1.3,7.258,7.258,0,0,1-2.452,1.966C237.949,157.149,236.121,152.469,236.208,150.035Z" transform="translate(-58.261 -41.309)"/><path class="b" d="M239.783,156.275a2.621,2.621,0,0,1-1.541-.512c-1.754-1.248-2.6-4.231-2.534-5.922h0a1.123,1.123,0,0,1,.2-.693.749.749,0,0,1,.524-.281,1.248,1.248,0,0,1,.886.318l.25.243a.58.58,0,0,0,.087.087,19.816,19.816,0,0,1,.181-2.016,1.51,1.51,0,0,1,.512-1.08,1.073,1.073,0,0,1,1.31.094,3.52,3.52,0,0,1,.53-1.791,1.8,1.8,0,0,1,1.4-.755,1.286,1.286,0,0,1,.724.193,3.881,3.881,0,0,1,4.106-1.485.368.368,0,0,1,.187.15.362.362,0,0,1,0,.243c-.231.749-.474,1.5-.736,2.253a2.95,2.95,0,0,0,.349-.081,1.541,1.541,0,0,1,.955-.056.986.986,0,0,1,.574.555,1.467,1.467,0,0,1,0,1.136,2.883,2.883,0,0,1-1.148,1.142l-1.248.83a1.31,1.31,0,0,1,.312.181,1.017,1.017,0,0,1,.306,1.248,1.31,1.31,0,0,1-.5.431q-.749.412-1.535.749a1.36,1.36,0,0,1,.324,1.08,2.852,2.852,0,0,1-.88,1.473,7.669,7.669,0,0,1-2.565,2.047A2.839,2.839,0,0,1,239.783,156.275Zm-3.27-6.79h0a.125.125,0,0,0-.1.044.624.624,0,0,0-.062.325h0c-.069,1.754.849,4.4,2.265,5.392a1.991,1.991,0,0,0,1.991.237,7.239,7.239,0,0,0,2.346-1.872,2.328,2.328,0,0,0,.718-1.142.749.749,0,0,0-.2-.624.306.306,0,0,0-.25-.1.322.322,0,1,1-.156-.624,14.87,14.87,0,0,0,2.128-.974.78.78,0,0,0,.262-.206.406.406,0,0,0-.15-.449,1.56,1.56,0,0,0-.73-.243.312.312,0,0,1-.119-.568l1.828-1.211a2.309,2.309,0,0,0,.924-.886.83.83,0,0,0,0-.624.356.356,0,0,0-.206-.218,1.111,1.111,0,0,0-.58.069,1.279,1.279,0,0,1-1.1,0,.312.312,0,0,1-.125-.368c.262-.736.512-1.485.743-2.234a3.276,3.276,0,0,0-3.289,1.585.306.306,0,0,1-.25.15.312.312,0,0,1-.268-.119.624.624,0,0,0-.524-.231,1.192,1.192,0,0,0-.9.487,3.744,3.744,0,0,0-.443,2.084.324.324,0,0,1-.2.287.312.312,0,0,1-.337-.075c-.156-.162-.705-.668-1.011-.449a1.042,1.042,0,0,0-.256.661,19.883,19.883,0,0,0-.193,2.5.318.318,0,0,1-.125.25.331.331,0,0,1-.275.05,1.872,1.872,0,0,1-.743-.53c-.069-.075-.137-.144-.212-.212a.68.68,0,0,0-.406-.156Zm-.5.362Z" transform="translate(-58.073 -41.121)"/><path class="b" d="M240.991,158.065h-.069a.306.306,0,0,1-.237-.368c.044-.206,1.154-5.08,4.013-7.994a.313.313,0,1,1,.449.437c-2.733,2.783-3.844,7.645-3.85,7.694a.318.318,0,0,1-.306.231Z" transform="translate(-59.943 -43.772)"/><path class="d" d="M242.986,159.309l.293,1.448a9.716,9.716,0,0,1,3.85-2.359.624.624,0,0,1,.418,0c.462.175.112,1,.418,1.4l1.51-.368a1.516,1.516,0,0,1,1.111,0c.331.193.424.8.081.961a9.117,9.117,0,0,1,2.671.9c.48.25,1.017.718.855,1.248a1.017,1.017,0,0,1-.936.624,3.744,3.744,0,0,0-1.155.125.73.73,0,0,0-.431.967c.1.162.287.25.4.4a.768.768,0,0,1-.362,1.048,1.685,1.685,0,0,1-1.186,0c-1.067-.293-2.24-.8-3.208-.237a1.622,1.622,0,0,1,.505.705.624.624,0,0,1-.293.743.78.78,0,0,1-.624-.144c-.749-.406-1.491-.817-2.234-1.248a.474.474,0,0,0-.368-.094c-.169.056-.225.275-.312.437-1.042,1.872-6.109-2-3.32-4.78C240.89,160.832,243.011,159.44,242.986,159.309Z" transform="translate(-59.629 -47.064)"/><path class="b" d="M247.212,167a1.248,1.248,0,0,1-.624-.206c-.749-.406-1.5-.824-2.24-1.248a.519.519,0,0,0-.131-.062.233.233,0,0,1-.05.144l-.075.144a1.285,1.285,0,0,1-1.317.624,4.287,4.287,0,0,1-3.214-2.683,2.833,2.833,0,0,1,.718-3.12c.1-.094.393-.3.942-.686.437-.306,1.154-.811,1.317-.961a.293.293,0,0,1,.212-.169.312.312,0,0,1,.368.243l.181.9a9.985,9.985,0,0,1,3.563-2.041.924.924,0,0,1,.624,0c.449.175.462.624.468.992a2.837,2.837,0,0,0,0,.337l1.248-.306a1.766,1.766,0,0,1,1.342.05.98.98,0,0,1,.449.855.932.932,0,0,1,0,.131,9.529,9.529,0,0,1,2.3.842c.624.318,1.248.917,1,1.616a1.317,1.317,0,0,1-1.2.824h-.374a1.872,1.872,0,0,0-.686.094.543.543,0,0,0-.293.324.2.2,0,0,0,0,.181,1.022,1.022,0,0,0,.144.144,1.3,1.3,0,0,1,.25.243.9.9,0,0,1,.125.755,1.192,1.192,0,0,1-.624.755,2,2,0,0,1-1.41,0l-.481-.137a4.1,4.1,0,0,0-2.1-.287,1.448,1.448,0,0,1,.268.505.911.911,0,0,1-.487,1.123A.718.718,0,0,1,247.212,167Zm-3-2.14a.973.973,0,0,1,.443.144c.736.424,1.479.836,2.228,1.248.094.05.275.15.368.119s.144-.212.094-.362a1.5,1.5,0,0,0-.424-.574.312.312,0,0,1-.087-.262.324.324,0,0,1,.15-.231,3.719,3.719,0,0,1,2.977.075l.468.137a1.454,1.454,0,0,0,.973.031.556.556,0,0,0,.268-.343.275.275,0,0,0-.031-.237.555.555,0,0,0-.137-.131,1.247,1.247,0,0,1-.268-.293.817.817,0,0,1-.075-.705,1.179,1.179,0,0,1,.624-.711,2.5,2.5,0,0,1,.911-.137h.331a.709.709,0,0,0,.668-.374c.106-.362-.387-.73-.7-.892a9.08,9.08,0,0,0-2.584-.867.318.318,0,0,1-.256-.262.312.312,0,0,1,.175-.324.9.9,0,0,0,.044-.1.387.387,0,0,0-.144-.306,1.248,1.248,0,0,0-.88,0l-1.51.368a.3.3,0,0,1-.318-.112,1.485,1.485,0,0,1-.218-.88c0-.168,0-.4-.069-.418a.27.27,0,0,0-.212.037,9.361,9.361,0,0,0-3.744,2.284.324.324,0,0,1-.306.075.312.312,0,0,1-.218-.237l-.187-.911c-.231.168-.562.406-1.036.736-.349.243-.786.549-.855.624a2.19,2.19,0,0,0-.574,2.459,3.744,3.744,0,0,0,2.677,2.284.686.686,0,0,0,.724-.331c0-.031.031-.069.05-.106a.78.78,0,0,1,.443-.474A.449.449,0,0,1,244.211,164.86Z" transform="translate(-59.449 -46.861)"/><path class="b" d="M242.025,166.219a.312.312,0,0,1-.144-.587c.212-.119,5.329-2.783,9.136-1.061a.318.318,0,0,1,.156.418.306.306,0,0,1-.412.15c-3.532-1.6-8.537,1.017-8.587,1.042a.331.331,0,0,1-.15.037Z" transform="translate(-60.334 -49.181)"/><path class="d" d="M231.916,157.756a1.779,1.779,0,0,0-.624-.68.624.624,0,0,0-.805.225c-.131.281-.056.736-.349.793a.512.512,0,0,1-.343-.144,5.2,5.2,0,0,0-2.321-.961.537.537,0,0,0-.381.037c-.406.25,0,1.186-.462,1.248a4.936,4.936,0,0,0-2.858-.481.736.736,0,0,0-.624.331c-.094.2,0,.456-.137.624a.871.871,0,0,1-.661.218,5.735,5.735,0,0,0-3.832,1.51.718.718,0,0,0-.212.281.624.624,0,0,0,.424.693c.668.25,1.579-.1,2,.493s-.094,1.454.275,2.047a1.317,1.317,0,0,0,1.442.356,2.328,2.328,0,0,1,1.548-.069c0,.624.081,1.354.624,1.623s1.1-.119,1.6-.431,1.211-.518,1.573-.056c.119.156.169.349.281.512.3.424.9.406,1.4.349a10.116,10.116,0,0,0,3.3-.736c1.423-.68,2.159-1.6,1.61-3.077A25.522,25.522,0,0,0,231.916,157.756Z" transform="translate(-51.529 -46.54)"/><path class="b" d="M228.877,166.4a1.41,1.41,0,0,1-1.217-.518,2.131,2.131,0,0,1-.162-.287,1.055,1.055,0,0,0-.112-.206c-.243-.318-.842-.069-1.161.131-.543.337-1.248.774-1.9.443a1.855,1.855,0,0,1-.768-1.71,2.247,2.247,0,0,0-.967.106l-.206.044a1.567,1.567,0,0,1-1.779-.493,1.916,1.916,0,0,1-.168-1.2,1.342,1.342,0,0,0-.094-.83c-.162-.225-.449-.243-.9-.25a2.89,2.89,0,0,1-.949-.137.9.9,0,0,1-.624-1.086,1,1,0,0,1,.293-.4,6.041,6.041,0,0,1,4.044-1.6c.119,0,.349,0,.393-.075a.455.455,0,0,0,.037-.193,1.061,1.061,0,0,1,.087-.412,1.03,1.03,0,0,1,.849-.505,5.292,5.292,0,0,1,2.839.412V157.4a1.055,1.055,0,0,1,.356-.924.88.88,0,0,1,.624-.075,5.473,5.473,0,0,1,2.415,1.048l.075.056a.3.3,0,0,1,.037-.175,1.484,1.484,0,0,1,.106-.412.792.792,0,0,1,.462-.412.992.992,0,0,1,.768.037,2.034,2.034,0,0,1,.768.793h0a25.243,25.243,0,0,1,2.5,4.774c.562,1.5,0,2.633-1.772,3.463a10.471,10.471,0,0,1-3.395.768A4.368,4.368,0,0,1,228.877,166.4Zm-1.828-1.785a1,1,0,0,1,.83.393,1.448,1.448,0,0,1,.187.324c.031.062.062.131.1.193.206.281.68.275,1.117.225a9.829,9.829,0,0,0,3.2-.718c1.448-.68,1.872-1.51,1.454-2.677a24.535,24.535,0,0,0-2.452-4.655h0a1.491,1.491,0,0,0-.518-.568.393.393,0,0,0-.281,0,.187.187,0,0,0-.106.087,1.535,1.535,0,0,0-.062.256c-.037.237-.106.624-.512.711a.749.749,0,0,1-.587-.2,4.911,4.911,0,0,0-2.147-.936H227.1a2.424,2.424,0,0,0-.062.412c0,.306,0,.818-.512.9a.356.356,0,0,1-.193,0,4.618,4.618,0,0,0-2.677-.449.416.416,0,0,0-.368.15.743.743,0,0,0,0,.2.83.83,0,0,1-1.048.842h0a5.436,5.436,0,0,0-3.676,1.4.487.487,0,0,0-.131.156c-.031.081.094.237.243.293a2.284,2.284,0,0,0,.743.094,1.548,1.548,0,0,1,1.4.512,1.779,1.779,0,0,1,.206,1.248,1.5,1.5,0,0,0,.081.824c.237.374.911.256,1.111.212l.193-.05a2.253,2.253,0,0,1,1.566,0,.312.312,0,0,1,.168.281c0,.48.05,1.148.437,1.342s.83-.125,1.248-.393a2.334,2.334,0,0,1,1.223-.412Z" transform="translate(-51.355 -46.317)"/><path class="b" d="M237.157,166.587a.225.225,0,0,1-.087,0,.312.312,0,0,1-.2-.175,17.141,17.141,0,0,0-11.014-2.908.315.315,0,0,1-.081-.624A17.835,17.835,0,0,1,237.363,166a.349.349,0,0,1,.094.349A.306.306,0,0,1,237.157,166.587Z" transform="translate(-54.237 -48.725)"/><path class="d" d="M125.721,153.32c2.552-.312,5.136.312,7.707.2,3.869-.162,7.451-1.959,11.164-3.058s8.113-1.379,11.089,1.086c5.9,4.874,1.491,15.389,6.047,21.542.811,1.1,1.916,2.072,2.165,3.407a9.848,9.848,0,0,1-.449,3.457c-.8,4.605,2.665,9.192,1.729,13.766-1.011,4.949-6.534,7.445-11.457,8.562a63.059,63.059,0,0,1-6.378,1.1,6.3,6.3,0,0,1-2.733-.087,11.286,11.286,0,0,1-2.846-1.928c-5.036-3.638-13.361-.911-17.33-5.685-1.6-1.928-1.966-4.574-2.921-6.864-1.872-4.537-6.016-7.807-8.05-12.275C109.259,167.273,115.156,154.618,125.721,153.32Z" transform="translate(-11.601 -43.788)"/><path class="b" d="M145.761,203.616a4.569,4.569,0,0,1-1.448-.206,6.728,6.728,0,0,1-2.14-1.36c-.262-.212-.518-.424-.786-.624-2.234-1.616-5.217-1.947-8.113-2.265-3.47-.387-7.058-.786-9.3-3.47A13.5,13.5,0,0,1,121.8,191c-.237-.761-.487-1.548-.786-2.284a27.733,27.733,0,0,0-4.081-6.29,30,30,0,0,1-3.963-5.972,17.508,17.508,0,0,1,.961-15.52,15.477,15.477,0,0,1,11.545-8.113,21.392,21.392,0,0,1,4.368.056,26.168,26.168,0,0,0,3.351.137,26.9,26.9,0,0,0,7.757-1.928c1.086-.387,2.209-.786,3.326-1.117,2.752-.811,7.882-1.747,11.382,1.142,3.27,2.7,3.482,7.114,3.682,11.383.181,3.657.362,7.439,2.421,10.222.2.275.418.537.624.8a4.755,4.755,0,0,1,1.335,5.342c-.081.318-.156.624-.212.955-.381,2.2.262,4.462.88,6.652.661,2.321,1.342,4.724.849,7.12-1.142,5.616-7.819,7.919-11.688,8.8a64.132,64.132,0,0,1-6.415,1.117A12.334,12.334,0,0,1,145.761,203.616Zm-20.188-50.192a14.869,14.869,0,0,0-11.077,7.8,16.929,16.929,0,0,0-.936,14.977,30.054,30.054,0,0,0,3.888,5.847,27.854,27.854,0,0,1,4.162,6.434c.312.761.568,1.56.811,2.334a12.66,12.66,0,0,0,2.059,4.481c2.078,2.5,5.385,2.858,8.886,3.251,2.958.325,6.022.668,8.387,2.378.281.206.549.424.817.624a6.335,6.335,0,0,0,1.947,1.248,6.022,6.022,0,0,0,2.6.075,64.271,64.271,0,0,0,6.346-1.1c3.744-.849,10.147-3.052,11.233-8.318.462-2.247-.169-4.468-.836-6.827-.624-2.259-1.3-4.593-.892-6.927.056-.331.137-.661.212-.992a5.617,5.617,0,0,0,.237-2.353,5.679,5.679,0,0,0-1.442-2.446c-.231-.275-.456-.549-.668-.836-2.172-2.933-2.359-6.808-2.534-10.565-.212-4.318-.406-8.4-3.463-10.927-3.276-2.7-8.175-1.8-10.8-1.023-1.1.325-2.215.724-3.295,1.1a26.646,26.646,0,0,1-7.938,1.966,27.215,27.215,0,0,1-3.432-.137,20.649,20.649,0,0,0-4.268-.062Zm-.037-.312Z" transform="translate(-11.41 -43.6)"/><path class="b" d="M153.352,223.64a7.488,7.488,0,0,1-4.774-1.516,11.089,11.089,0,0,1-1.872-2.147l-.418-.562a20.955,20.955,0,0,0-5.616-5.123.313.313,0,1,1,.331-.53,21.7,21.7,0,0,1,5.766,5.273c.137.193.281.381.424.574a10.609,10.609,0,0,0,1.76,2.034,7.014,7.014,0,0,0,4.736,1.367,21.7,21.7,0,0,0,5.08-1.017l2.864-.824a.323.323,0,1,1,.168.624l-2.864.817a22.153,22.153,0,0,1-5.223,1.042Z" transform="translate(-22.289 -67.874)"/><path class="b" d="M140.122,157.433a.312.312,0,0,1-.312-.3,1.417,1.417,0,0,1,1.248-1.335,3.632,3.632,0,0,1,1.535.156l.119.031a16.936,16.936,0,0,0,9.23-.325c.349-.112.705-.243,1.061-.368a6.96,6.96,0,0,1,7.332.3l2.165,1.154a.312.312,0,0,1,.131.418.318.318,0,0,1-.424.131l-2.165-1.154a8.587,8.587,0,0,0-2.64-1.048,8.74,8.74,0,0,0-4.187.786c-.362.131-.724.262-1.08.374a17.542,17.542,0,0,1-9.579.337l-.119-.031a3.12,3.12,0,0,0-1.248-.15c-.362.062-.736.362-.724.7a.312.312,0,0,1-.3.325Z" transform="translate(-22.021 -45.58)"/><path class="d" d="M122.512,117.132c-.243-.131-4.094-.574-2.5,3.064,0,0-2.977,2.215-1.348,4.094,0,0-1.685,2.209-.524,3.513a4.706,4.706,0,0,0,1.828,1.485s-.917,2.421.811,2.6a3.569,3.569,0,0,0,2.9-1.4s1.36,1.535,2.053.231-.05-3.551-.05-3.551,1.248-.624,1.13-2.821c0,0,1.66-.168,1.991-2.59a1.967,1.967,0,0,0,3.045.144s1.123,2.783,2.321,1.872c0,0,1.248,1.616,2.677-.268s3.426-3.488.749-5.223c0,0,.574-1.423-1.747-2.028,0,0-.137-2.409-2.652-1.554,0,0-1.036-2.384-2.658-1.248,0,0-1.928-1.8-3.176-.125,0,0-3.426-1.679-4.144,1.067Z" transform="translate(-13.722 -29.86)"/><path class="b" d="M120.864,132.037a2.5,2.5,0,0,1-.3,0,1.367,1.367,0,0,1-1.092-.624,2.8,2.8,0,0,1-.069-2.109,6.6,6.6,0,0,1-1.679-1.448c-1.111-1.248-.044-3.12.368-3.707a2.091,2.091,0,0,1-.381-1.473,4.733,4.733,0,0,1,1.754-2.715q-.739-1.872.218-2.764a3.208,3.208,0,0,1,2.428-.568l.624-2.459a2.247,2.247,0,0,1,1.248-1.579,4.326,4.326,0,0,1,3.12.212,1.816,1.816,0,0,1,1.248-.624,3.12,3.12,0,0,1,2.059.755,1.622,1.622,0,0,1,1.248-.168,2.9,2.9,0,0,1,1.535,1.435,2.2,2.2,0,0,1,1.872.187,2.284,2.284,0,0,1,.886,1.5,2.59,2.59,0,0,1,1.666,1.173,1.56,1.56,0,0,1,.144.955,2.633,2.633,0,0,1,1.248,1.691c.168,1.055-.624,2.028-1.467,3.058-.212.262-.431.524-.624.8a2.19,2.19,0,0,1-1.685,1.036,1.966,1.966,0,0,1-1.3-.555,1.086,1.086,0,0,1-.73.05c-.755-.212-1.354-1.248-1.641-1.816a2.047,2.047,0,0,1-1.379.487,2.459,2.459,0,0,1-1.36-.537,2.833,2.833,0,0,1-1.872,2.222,3.3,3.3,0,0,1-1.086,2.7,5.437,5.437,0,0,1-.037,3.57,1.173,1.173,0,0,1-.892.686,1.959,1.959,0,0,1-1.417-.624A3.794,3.794,0,0,1,120.864,132.037Zm.718-14.858a2.19,2.19,0,0,0-1.548.493c-.406.437-.374,1.186.075,2.222a.306.306,0,0,1-.094.374,4.628,4.628,0,0,0-1.7,2.44,1.523,1.523,0,0,0,.406,1.2.318.318,0,0,1,0,.393s-1.516,2.028-.537,3.12a4.924,4.924,0,0,0,1.685,1.4.312.312,0,0,1,.2.406,2.624,2.624,0,0,0-.075,1.841.78.78,0,0,0,.624.337,3.224,3.224,0,0,0,2.621-1.286.3.3,0,0,1,.237-.125.318.318,0,0,1,.25.106c.162.181.718.693,1.123.624.062,0,.243-.031.418-.356.624-1.179-.062-3.289-.075-3.307a.318.318,0,0,1,.156-.374c.037,0,1.042-.624.961-2.534a.312.312,0,0,1,.281-.324c.056,0,1.423-.193,1.716-2.321a.3.3,0,0,1,.218-.256.318.318,0,0,1,.331.1,2.116,2.116,0,0,0,1.342.761,1.641,1.641,0,0,0,1.248-.624.306.306,0,0,1,.512.1c.262.624.874,1.7,1.417,1.872a.456.456,0,0,0,.431-.1.306.306,0,0,1,.431.062,1.485,1.485,0,0,0,.986.518h0a1.623,1.623,0,0,0,1.186-.786c.212-.281.431-.555.624-.817.755-.924,1.46-1.791,1.342-2.571a2.234,2.234,0,0,0-1.167-1.385.318.318,0,0,1-.119-.381.9.9,0,0,0-.062-.7,2.172,2.172,0,0,0-1.466-.9.325.325,0,0,1-.237-.287,1.454,1.454,0,0,0-2.234-1.248.312.312,0,0,1-.387-.175s-.5-1.123-1.248-1.335a1.061,1.061,0,0,0-.936.212.3.3,0,0,1-.387,0,2.777,2.777,0,0,0-1.772-.755,1.3,1.3,0,0,0-.936.587.318.318,0,0,1-.387.094s-1.716-.824-2.827-.306a1.616,1.616,0,0,0-.88,1.167L122.6,117.1a.312.312,0,0,1-.431.206,2.553,2.553,0,0,0-.593-.106Z" transform="translate(-13.533 -29.701)"/><path class="a" d="M127.12,132.855s3.189-.755,4.25.624,4.468,6.484,4.468,6.484,3.913-2.5,4.537-2.9c0,0-2.2-4.368-2.265-5.541s1.36-5.685,1.36-5.685l-1.248-.73s-1.822,5.4-2.147,4.736-.044-5.117-.044-5.117H133.8s.674,4.761.181,4.824-2.6-4.063-2.6-4.063l-2.365,2.321s3.832,2.771,2.964,3.158-4.487-.306-4.487-.306Z" transform="translate(-17.25 -34.419)"/><path class="b" d="M135.648,140.087a.318.318,0,0,1-.262-.144c0-.05-3.407-5.117-4.449-6.465-.774-.992-3.12-.7-3.938-.505a.306.306,0,0,1-.281-.075.324.324,0,0,1-.1-.275l.343-2.215a.312.312,0,0,1,.131-.206.324.324,0,0,1,.237-.056,15.057,15.057,0,0,0,4.225.356,12.966,12.966,0,0,0-2.939-2.646.306.306,0,0,1-.037-.474l2.365-2.328a.324.324,0,0,1,.268-.087.312.312,0,0,1,.225.168,27.965,27.965,0,0,0,2.178,3.744,26.834,26.834,0,0,0-.349-4.293.318.318,0,0,1,.075-.25.287.287,0,0,1,.237-.106h2.24a.3.3,0,0,1,.225.1.318.318,0,0,1,.081.231,39.238,39.238,0,0,0-.069,4.493,39.493,39.493,0,0,0,1.647-4.231.337.337,0,0,1,.187-.193.312.312,0,0,1,.268,0l1.248.724a.312.312,0,0,1,.144.368,30.685,30.685,0,0,0-1.342,5.573c.056.9,1.629,4.219,2.234,5.423a.306.306,0,0,1-.119.406c-.624.381-4.493,2.864-4.531,2.889a.349.349,0,0,1-.144.075Zm-6.864-7.938a3.3,3.3,0,0,1,2.658.949c.936,1.2,3.6,5.186,4.306,6.24.8-.505,3.17-2.028,4.044-2.577-.5-1.017-2.109-4.368-2.172-5.41a29.05,29.05,0,0,1,1.3-5.56l-.73-.418c-1.579,4.605-2.016,4.637-2.228,4.649a.4.4,0,0,1-.374-.231c-.3-.624-.156-3.744-.094-4.942h-1.548c.231,1.679.5,4.187.137,4.655a.431.431,0,0,1-.275.169c-.212,0-.686.087-2.721-3.857l-1.8,1.772c1.248.917,3,2.346,2.92,3.058a.512.512,0,0,1-.306.418c-.8.356-3.345-.044-4.368-.225l-.225,1.46a8.768,8.768,0,0,1,1.46-.15Z" transform="translate(-17.06 -34.231)"/><path class="d" d="M132.407,123.69c-.955,4.119-3.707,4.337-3.707,4.337" transform="translate(-17.844 -34.028)"/><path class="b" d="M128.512,128.149a.312.312,0,1,1,0-.624c.1,0,2.54-.268,3.432-4.1a.306.306,0,0,1,.374-.231.312.312,0,0,1,.231.374c-1,4.293-3.869,4.568-3.988,4.58Z" transform="translate(-17.656 -33.838)"/><path class="d" d="M126.25,132s2.428.462.736,2.827c0,0,1.017.973-.462,1.872a2.422,2.422,0,0,1-2.465.293" transform="translate(-16.099 -37.152)"/><path class="b" d="M124.745,137.321a2.128,2.128,0,0,1-1.036-.237.314.314,0,0,1,.324-.537,2.229,2.229,0,0,0,2.14-.293c.275-.162.624-.424.624-.749a.861.861,0,0,0-.243-.624.312.312,0,0,1-.037-.406,1.919,1.919,0,0,0,.481-1.616c-.2-.5-1.011-.724-1.023-.724a.318.318,0,0,1-.243-.368.312.312,0,0,1,.362-.25,2.134,2.134,0,0,1,1.485,1.111,2.209,2.209,0,0,1-.418,2.022,1.367,1.367,0,0,1,.256.917,1.691,1.691,0,0,1-.942,1.248A3.413,3.413,0,0,1,124.745,137.321Z" transform="translate(-15.91 -36.969)"/><path class="d" d="M135.92,123.318a1.485,1.485,0,0,0,1.142,1.4c.237,0,2.041-.218,1.872-.68a1.623,1.623,0,0,0,3.077-.175c-.1.624.624,1.136,1.248,1.03a2.059,2.059,0,0,0,1.367-1.192.855.855,0,0,0,.05-.9" transform="translate(-20.558 -33.694)"/><path class="b" d="M140.239,125.172a2,2,0,0,1-1.541-.761,4.674,4.674,0,0,1-1.872.418,1.791,1.791,0,0,1-1.417-1.679.306.306,0,0,1,.281-.337.312.312,0,0,1,.343.275c.05.5.368,1.067.867,1.123a4.368,4.368,0,0,0,1.51-.349.306.306,0,0,1,.193-.312.312.312,0,0,1,.406.175h0a1.379,1.379,0,0,0,1.292.824,1.36,1.36,0,0,0,1.186-.967.325.325,0,0,1,.368-.225.318.318,0,0,1,.243.356.512.512,0,0,0,.169.431.861.861,0,0,0,.711.243,1.828,1.828,0,0,0,1.136-1.03c.131-.256.162-.468.087-.568a.312.312,0,1,1,.493-.381,1.129,1.129,0,0,1,0,1.248,2.415,2.415,0,0,1-1.591,1.354,1.491,1.491,0,0,1-1.248-.406l-.119-.131a1.972,1.972,0,0,1-1.379.711Z" transform="translate(-20.365 -33.495)"/><path class="d" d="M172.666,93.972c-.119-.293-3.17-3.5-4.431.855,0,0-4.231-.231-4.175,2.6,0,0-3.12.705-3.027,2.7a6.012,6.012,0,0,0,.512,2.646s-2.577,1.448-1.192,2.864a4.088,4.088,0,0,0,3.576.892s.062,2.34,1.629,1.7,2.552-3.12,2.552-3.12,1.541.337,3.058-1.641c0,0,1.573,1.061,3.638-.811a2.249,2.249,0,0,0,2.565,2.346s-1.055,3.264.624,3.357c0,0-.075,2.334,2.546,1.716s5.554-.543,4.474-4.025c0,0,1.548-.83-.044-3.052,0,0,1.641-2.215-1.186-3.3,0,0,.836-2.852-1.417-3.052,0,0-.368-2.983-2.683-2.428,0,0-1.785-3.981-4.418-2.1Z" transform="translate(-29.59 -21.971)"/><path class="b" d="M179.566,110.272a2.022,2.022,0,0,1-1.317-.424,2.2,2.2,0,0,1-.718-1.442,1.2,1.2,0,0,1-.68-.474,3.953,3.953,0,0,1-.087-2.814,2.334,2.334,0,0,1-1.591-.574,2.727,2.727,0,0,1-.8-1.5,3.324,3.324,0,0,1-3.314.624,3.716,3.716,0,0,1-2.939,1.585c-.293.624-1.248,2.534-2.633,3.12a1.248,1.248,0,0,1-1.248-.05,2.259,2.259,0,0,1-.786-1.579,4.15,4.15,0,0,1-3.513-1.036,1.51,1.51,0,0,1-.487-1.31,3.167,3.167,0,0,1,1.5-1.872,7.42,7.42,0,0,1-.424-2.5c-.069-1.872,2.265-2.727,3.033-2.945a2.328,2.328,0,0,1,.73-1.672,5.407,5.407,0,0,1,3.526-1.086c.468-1.454,1.2-2.215,2.19-2.265a3.632,3.632,0,0,1,2.5,1.292l2.421-1.685a2.5,2.5,0,0,1,2.2-.481,4.785,4.785,0,0,1,2.577,2.5,2.059,2.059,0,0,1,1.535.331,3.582,3.582,0,0,1,1.248,2.178,1.8,1.8,0,0,1,1.248.755,3.3,3.3,0,0,1,.281,2.384,2.5,2.5,0,0,1,1.529,1.529,2.577,2.577,0,0,1-.331,1.953,2.889,2.889,0,0,1,.624,2.24,1.7,1.7,0,0,1-.574.936,3.008,3.008,0,0,1-.125,2.4c-.624,1.023-2.016,1.3-3.495,1.579-.381.075-.768.15-1.142.237a3.869,3.869,0,0,1-.93.075Zm-2.384-5.8a.318.318,0,0,1,.243.119.306.306,0,0,1,.05.293c-.175.537-.53,2.078-.106,2.7a.568.568,0,0,0,.481.25.306.306,0,0,1,.293.318,1.7,1.7,0,0,0,.505,1.248,1.916,1.916,0,0,0,1.66.187c.387-.094.78-.168,1.167-.243,1.342-.256,2.6-.5,3.077-1.292a2.615,2.615,0,0,0,0-2.1.318.318,0,0,1,.15-.368,1.08,1.08,0,0,0,.481-.686,2.558,2.558,0,0,0-.624-1.9.318.318,0,0,1,0-.368,1.716,1.716,0,0,0-1.055-2.839.306.306,0,0,1-.187-.374,3.069,3.069,0,0,0-.137-2.134,1.248,1.248,0,0,0-1-.518.312.312,0,0,1-.287-.268A3.226,3.226,0,0,0,180.87,94.5a1.548,1.548,0,0,0-1.286-.187.306.306,0,0,1-.356-.175s-.911-1.991-2.284-2.359a1.922,1.922,0,0,0-1.666.387l-2.627,1.872a.318.318,0,0,1-.468-.125,3.2,3.2,0,0,0-2.247-1.248c-.693.087-1.248.774-1.6,2.034a.306.306,0,0,1-.318.225s-2.253-.106-3.307.911a1.766,1.766,0,0,0-.537,1.373.306.306,0,0,1-.243.312s-2.839.674-2.783,2.384a5.59,5.59,0,0,0,.462,2.5.318.318,0,0,1,.037.25.287.287,0,0,1-.144.193c-.368.206-1.335.892-1.435,1.591a.917.917,0,0,0,.312.786,3.865,3.865,0,0,0,3.276.805.324.324,0,0,1,.262.056.3.3,0,0,1,.125.237c0,.306.125,1.161.53,1.429a.68.68,0,0,0,.668,0c1.423-.574,2.371-2.945,2.384-2.97a.3.3,0,0,1,.356-.187c.05,0,1.379.243,2.74-1.535a.312.312,0,0,1,.424-.069c.05.037,1.41.892,3.251-.78a.306.306,0,0,1,.337-.056.318.318,0,0,1,.187.287,2.5,2.5,0,0,0,.661,1.647,1.9,1.9,0,0,0,1.554.393Z" transform="translate(-29.401 -21.777)"/><path class="a" d="M168.75,110.3s3.351,1.672,3.276,3.657-.83,8.949-.83,8.949,5.261.668,6.091.786c0,0,1.248-5.448,2.066-6.515s5.354-3.994,5.354-3.994l-.587-1.573s-5.548,3.395-5.342,2.584,3.7-4.512,3.7-4.512l-1.941-1.666s-2.889,4.674-3.37,4.368.7-5.46.7-5.46l-3.744.312s1.329,5.223.287,4.936-3.713-3.551-3.713-3.551Z" transform="translate(-32.901 -27.723)"/><path class="b" d="M177.09,123.808h-.044c-.817-.119-6.034-.78-6.091-.793a.306.306,0,0,1-.268-.343c0-.069.755-6.977.83-8.924.062-1.76-3.07-3.345-3.12-3.364a.306.306,0,0,1-.169-.237.318.318,0,0,1,.1-.275l1.922-1.691a.312.312,0,0,1,.231-.075.3.3,0,0,1,.218.112c.986,1.2,2.777,3.164,3.5,3.432a13.26,13.26,0,0,0-.624-4.543.312.312,0,0,1,.281-.387l3.744-.312a.324.324,0,0,1,.262.106.337.337,0,0,1,.069.275,28.669,28.669,0,0,0-.811,4.992,29.762,29.762,0,0,0,2.914-4.1.293.293,0,0,1,.218-.144.325.325,0,0,1,.25.069l1.941,1.666a.318.318,0,0,1,.106.218.312.312,0,0,1-.081.231,41.88,41.88,0,0,0-3.438,4.013,42.527,42.527,0,0,0,4.687-2.559.3.3,0,0,1,.262-.031.318.318,0,0,1,.193.187l.587,1.573a.318.318,0,0,1-.125.374c-1.248.8-4.655,3.07-5.267,3.907s-1.666,4.9-2.016,6.4A.318.318,0,0,1,177.09,123.808Zm-5.747-1.373c1.023.131,4.368.555,5.51.711.275-1.142,1.335-5.379,2.053-6.353s4.3-3.332,5.223-3.931l-.368-.986c-4.761,2.9-5.167,2.6-5.342,2.5a.4.4,0,0,1-.144-.431c.193-.768,2.658-3.451,3.557-4.412l-1.417-1.217c-.892,1.423-2.615,4.05-3.289,4.2a.393.393,0,0,1-.324-.05c-.175-.112-.624-.412.468-5.373l-2.983.243c.362,1.485.936,4.25.343,4.824a.524.524,0,0,1-.524.131c-.967-.268-2.983-2.6-3.663-3.407l-1.348,1.186c.924.537,3.12,1.984,3.045,3.744S171.486,121.056,171.342,122.435Z" transform="translate(-32.704 -27.531)"/><path class="d" d="M181.768,105.51c-3.857,2.908-6.428,1.086-6.428,1.086" transform="translate(-35.379 -27.193)"/><path class="b" d="M177.32,107.3a4.256,4.256,0,0,1-2.346-.624.318.318,0,0,1-.069-.437.312.312,0,0,1,.431-.069c.1.069,2.446,1.641,6.059-1.086a.312.312,0,1,1,.374.5A7.407,7.407,0,0,1,177.32,107.3Z" transform="translate(-35.193 -27.009)"/><path class="d" d="M169.986,107.64s1.785,2.184-1.429,3.02c0,0,.181,1.6-1.76,1.292a2.823,2.823,0,0,1-2.378-1.548" transform="translate(-31.273 -27.994)"/><path class="b" d="M167.092,112.13a3.051,3.051,0,0,1-.518-.044,3.114,3.114,0,0,1-2.621-1.747.312.312,0,1,1,.587-.206c0,.037.418,1.067,2.134,1.335a1.317,1.317,0,0,0,1.148-.193,1.011,1.011,0,0,0,.25-.755.318.318,0,0,1,.237-.331c.924-.243,1.473-.624,1.635-1.1a1.76,1.76,0,0,0-.356-1.4.313.313,0,0,1,.487-.393,2.359,2.359,0,0,1,.481,2.009,2.55,2.55,0,0,1-1.841,1.442,1.51,1.51,0,0,1-.437,1,1.641,1.641,0,0,1-1.186.381Z" transform="translate(-31.087 -27.822)"/><path class="d" d="M186.58,106.4a1.7,1.7,0,0,0,0,2.059c.187.2,1.947,1.3,2.122.761a1.872,1.872,0,0,0,2.821,2.1,1.186,1.186,0,0,0,.337,1.8,2.359,2.359,0,0,0,2.066-.044c.337-.144.693-.387.705-.755" transform="translate(-39.474 -27.528)"/><path class="b" d="M192.53,113.431a2.053,2.053,0,0,1-1.036-.268,1.647,1.647,0,0,1-.78-1.248,1.664,1.664,0,0,1,0-.25,2.147,2.147,0,0,1-2.615-2.234,5.148,5.148,0,0,1-1.953-1,1.984,1.984,0,0,1,0-2.446.312.312,0,0,1,.431-.087.318.318,0,0,1,.087.437,1.4,1.4,0,0,0-.056,1.666,4.624,4.624,0,0,0,1.623.817h0a.312.312,0,0,1,.562.262h0a1.541,1.541,0,0,0,2.346,1.741.312.312,0,0,1,.381.487.624.624,0,0,0-.181.543,1.023,1.023,0,0,0,.468.761,2.047,2.047,0,0,0,1.785-.062c.156-.062.512-.243.518-.474a.312.312,0,1,1,.624,0c0,.424-.331.786-.892,1.03a3.476,3.476,0,0,1-1.31.325Zm-4.331-4.537Z" transform="translate(-39.283 -27.32)"/><path class="d" d="M143.217,104.235c-.243-.231-4.6-2.041-3.95,2.758,0,0-4.225,1.6-2.939,4.368,0,0-2.715,2.028-1.785,3.938a5.926,5.926,0,0,0,1.641,2.353s-1.872,2.534.081,3.314a4.366,4.366,0,0,0,3.869-.68s1.073,2.259,2.328.961,1.13-4.175,1.13-4.175,1.647-.343,2.265-2.933c0,0,2,.356,3.2-2.365,0,0,1.13,2.584,3.52,1.186,0,0,.387,3.638,2.091,2.989,0,0,.936,2.309,3.226.574s5.18-2.939,2.621-5.866c0,0,1.148-1.479-1.367-2.958,0,0,.624-2.871-2.584-2.708,0,0-.418-3.12-2.7-2.359,0,0-1.654-2.752-3.676-1.211,0,0-3.457-3.12-5.211-.131Z" transform="translate(-19.968 -25.119)"/><path class="b" d="M141.452,121.732h-.187a2.4,2.4,0,0,1-1.442-1.211,4.443,4.443,0,0,1-3.882.524,1.61,1.61,0,0,1-1.03-1.061,3.652,3.652,0,0,1,.624-2.5,7.963,7.963,0,0,1-1.5-2.278c-.886-1.822,1.048-3.638,1.685-4.175a2.459,2.459,0,0,1,0-1.872,5.8,5.8,0,0,1,2.97-2.584c-.175-1.616.212-2.677,1.142-3.12a4.221,4.221,0,0,1,3.033.169l1.6-2.715a2.69,2.69,0,0,1,1.947-1.423,5.2,5.2,0,0,1,3.582,1.31,2.215,2.215,0,0,1,1.641-.349,3.782,3.782,0,0,1,2.147,1.591,1.872,1.872,0,0,1,1.523.193,3.513,3.513,0,0,1,1.3,2.209h0a2.7,2.7,0,0,1,2.159.824,2.74,2.74,0,0,1,.512,2.047,3.07,3.07,0,0,1,1.56,1.916,1.81,1.81,0,0,1-.156,1.161,3.214,3.214,0,0,1,.917,2.384c-.156,1.248-1.4,2.128-2.715,3.045-.337.231-.686.474-1.017.724a2.615,2.615,0,0,1-2.259.624,2.284,2.284,0,0,1-1.317-1.1,1.248,1.248,0,0,1-.874-.162c-.824-.512-1.173-1.966-1.3-2.721a2.5,2.5,0,0,1-1.81.144,2.927,2.927,0,0,1-1.442-1.148,3.418,3.418,0,0,1-2.977,2.041h0a3.971,3.971,0,0,1-2.19,2.827c0,.736-.094,3-1.217,4.162A1.429,1.429,0,0,1,141.452,121.732Zm-1.523-1.966H140a.293.293,0,0,1,.206.168c.144.293.624,1.086,1.154,1.173a.78.78,0,0,0,.668-.3c1.142-1.186,1.042-3.919,1.042-3.944a.306.306,0,0,1,.243-.318c.062,0,1.466-.356,2.028-2.7a.312.312,0,0,1,.362-.237c.069,0,1.779.262,2.858-2.184a.312.312,0,0,1,.281-.187h0a.318.318,0,0,1,.287.187,2.658,2.658,0,0,0,1.379,1.335,2.072,2.072,0,0,0,1.7-.3.318.318,0,0,1,.3,0,.312.312,0,0,1,.169.243c.062.624.381,2.278,1.073,2.7a.624.624,0,0,0,.593.037.312.312,0,0,1,.4.175,1.828,1.828,0,0,0,1.036.986,2.047,2.047,0,0,0,1.716-.543c.337-.256.686-.5,1.03-.743,1.2-.83,2.334-1.623,2.452-2.6a2.754,2.754,0,0,0-.911-2.066.318.318,0,0,1,0-.4,1.167,1.167,0,0,0,.175-.9,2.746,2.746,0,0,0-1.448-1.6.318.318,0,0,1-.15-.337,2.253,2.253,0,0,0-.343-1.735,2.278,2.278,0,0,0-1.922-.624.306.306,0,0,1-.325-.268,3.291,3.291,0,0,0-1.061-2.041,1.392,1.392,0,0,0-1.248-.069.306.306,0,0,1-.368-.131,3.5,3.5,0,0,0-1.872-1.5,1.641,1.641,0,0,0-1.348.381.312.312,0,0,1-.4,0s-1.76-1.548-3.264-1.317a2.059,2.059,0,0,0-1.473,1.111l-1.735,2.977a.3.3,0,0,1-.225.15.324.324,0,0,1-.25-.075,3.265,3.265,0,0,0-2.74-.225c-.624.387-.886,1.3-.693,2.7a.306.306,0,0,1-.2.331s-2.253.874-2.846,2.334a1.909,1.909,0,0,0,.087,1.616.318.318,0,0,1-.094.387s-2.5,1.872-1.691,3.551a5.889,5.889,0,0,0,1.529,2.228.331.331,0,0,1,.137.212.324.324,0,0,1-.056.237,3.223,3.223,0,0,0-.711,2.19,1,1,0,0,0,.624.624,4.123,4.123,0,0,0,3.57-.624A.287.287,0,0,1,139.93,119.766Z" transform="translate(-19.763 -24.919)"/><path class="a" d="M144.61,123.89s3.988.181,4.774,2.147,3.064,9.086,3.064,9.086,5.423-1.623,6.284-1.872c0,0-1.111-5.872-.8-7.251s3.495-6.24,3.495-6.24l-1.248-1.286s-3.938,5.716-4.094,4.836,1.66-6.009,1.66-6.009l-2.615-.78s-.8,5.8-1.4,5.71-1.679-5.616-1.679-5.616l-3.545,1.935s3.557,4.518,2.421,4.687-5.161-1.872-5.161-1.872Z" transform="translate(-23.825 -31.333)"/><path class="b" d="M152.258,135.258a.312.312,0,0,1-.3-.212c0-.075-2.278-7.139-3.052-9.067-.705-1.76-4.462-1.953-4.5-1.953a.312.312,0,0,1-.275-.443l1.148-2.5a.312.312,0,0,1,.181-.162.331.331,0,0,1,.243,0c1.491.749,4.125,1.91,4.93,1.828.031-.462-1.123-2.34-2.577-4.194a.3.3,0,0,1-.062-.25.306.306,0,0,1,.156-.212l3.545-1.935a.318.318,0,0,1,.281,0,.306.306,0,0,1,.175.225,30.976,30.976,0,0,0,1.379,5.242,30.143,30.143,0,0,0,1.092-5.311.318.318,0,0,1,.137-.218.324.324,0,0,1,.262-.037l2.608.78a.3.3,0,0,1,.187.162.331.331,0,0,1,0,.243,43.484,43.484,0,0,0-1.629,5.467,42.19,42.19,0,0,0,3.513-4.574.312.312,0,0,1,.481-.037l1.248,1.248a.306.306,0,0,1,.037.387c-.874,1.329-3.208,4.992-3.445,6.1s.5,5.517.805,7.127a.318.318,0,0,1-.218.362c-.855.237-6.24,1.872-6.284,1.872a.2.2,0,0,1-.069.056Zm-7.37-11.819c1.117.112,3.906.574,4.6,2.3s2.534,7.445,2.977,8.818c1.036-.312,4.543-1.36,5.722-1.7-.225-1.2-1.03-5.835-.755-7.1s2.771-5.142,3.4-6.1l-.811-.83c-3.407,4.9-3.931,4.786-4.137,4.736a.4.4,0,0,1-.306-.343c-.15-.83,1.1-4.543,1.56-5.853l-1.947-.58c-.256,1.76-.8,5.092-1.385,5.529a.418.418,0,0,1-.325.087c-.2,0-.793-.125-1.872-5.46l-2.833,1.573c.992,1.292,2.758,3.744,2.434,4.562a.537.537,0,0,1-.443.337c-1.061.15-4.056-1.248-5.055-1.741Z" transform="translate(-23.635 -31.156)"/><path class="d" d="M154.637,114.36c-2.5,4.512-5.8,3.844-5.8,3.844" transform="translate(-25.416 -30.52)"/><path class="b" d="M149.135,118.369a2.971,2.971,0,0,1-.549-.044.318.318,0,0,1,.125-.624c.125,0,3.12.549,5.46-3.688a.312.312,0,0,1,.543.306C152.717,117.932,150.227,118.369,149.135,118.369Z" transform="translate(-25.224 -30.336)"/><path class="d" d="M144.5,121.77s2.69,1.354-.087,3.563c0,0,.874,1.479-1.154,2.022a3.007,3.007,0,0,1-2.989-.481" transform="translate(-22.194 -33.306)"/><path class="b" d="M141.927,127.624a2.883,2.883,0,0,1-2.072-.736.306.306,0,0,1,0-.437.312.312,0,0,1,.443,0,2.816,2.816,0,0,0,2.677.387,1.442,1.442,0,0,0,1.055-.705,1.073,1.073,0,0,0-.087-.855.324.324,0,0,1,.075-.406c.811-.624,1.192-1.248,1.136-1.8-.081-.755-.986-1.248-.992-1.248a.312.312,0,0,1-.144-.418.324.324,0,0,1,.424-.137,2.5,2.5,0,0,1,1.329,1.735,2.643,2.643,0,0,1-1.173,2.2,1.629,1.629,0,0,1,0,1.161,2,2,0,0,1-1.473,1.073A4.775,4.775,0,0,1,141.927,127.624Z" transform="translate(-22.003 -33.107)"/><path class="d" d="M159.6,114.73a1.8,1.8,0,0,0,.849,2.041c.268.112,2.459.424,2.4-.175a1.978,1.978,0,0,0,3.657.824,1.268,1.268,0,0,0,1.111,1.616,2.5,2.5,0,0,0,2-.936,1.055,1.055,0,0,0,.362-1.042" transform="translate(-29.437 -30.66)"/><path class="b" d="M167.65,119.142h-.218a1.716,1.716,0,0,1-1.248-.867,1.093,1.093,0,0,1-.119-.262,2.334,2.334,0,0,1-1.872.412,2.359,2.359,0,0,1-1.647-1.454,5.616,5.616,0,0,1-2.34-.112,2.122,2.122,0,0,1-1.061-2.365.317.317,0,0,1,.624.112,1.5,1.5,0,0,0,.686,1.672,4.755,4.755,0,0,0,1.972.081.312.312,0,0,1,.275-.281.318.318,0,0,1,.343.281h0a1.66,1.66,0,0,0,3.077.693.314.314,0,1,1,.555.293.668.668,0,0,0,.056.624,1.1,1.1,0,0,0,.8.549,2.184,2.184,0,0,0,1.735-.836c.125-.137.406-.468.306-.711a.306.306,0,0,1,.168-.406.318.318,0,0,1,.406.169,1.3,1.3,0,0,1-.424,1.373A2.977,2.977,0,0,1,167.65,119.142Z" transform="translate(-29.268 -30.472)"/><path class="a" d="M96.928,70.4l-.786,17.785a.936.936,0,0,1-.986.9h-.225a.942.942,0,0,1-.9-.986l.786-17.785a1.011,1.011,0,0,0-.967-1.055h-.094a1.017,1.017,0,0,0-1.048.942l-.793,17.947a.949.949,0,0,1-.986.9h0a.949.949,0,0,1-.917-.986l.811-17.935a1.011,1.011,0,0,0-.967-1.061H89.1a1.011,1.011,0,0,0-1.061.967L87.25,87.865a.942.942,0,0,1-.98.9h0a.942.942,0,0,1-.9-.986l.9-17.872a1.017,1.017,0,0,0-.967-1.036H85a1,1,0,0,0-1.042.855c-.668,4.3-2.159,15.8-2.222,19.838-.087,5.279,5.067,8.225,5.067,8.225s-3.5,62.042-3.794,66.847c-.362,5.935,1.76,6.434,4.368,6.552s3.969-1.61,4.231-4.175c.393-3.794,2.1-68.314,2.1-68.314,3.744-2.253,5.76-5.56,5.835-9.03.062-2.677-.362-14.765-.624-19.27a1.017,1.017,0,0,0-.967-.955h0A1.017,1.017,0,0,0,96.928,70.4Z" transform="translate(-0.188 -13.417)"/><path class="b" d="M87.442,171.3h-.256a4.655,4.655,0,0,1-3.545-1.248c-.924-1.048-1.3-2.846-1.13-5.66.281-4.618,3.57-62.878,3.788-66.66-.917-.574-5.142-3.476-5.061-8.4.056-3.919,1.5-15.189,2.222-19.882a1.317,1.317,0,0,1,1.373-1.1h.3A1.329,1.329,0,0,1,86.381,69.7l-.924,17.891a.64.64,0,0,0,1.279.062l.786-17.86a1.335,1.335,0,0,1,1.385-1.248h.761a1.342,1.342,0,0,1,.924.431,1.31,1.31,0,0,1,.343.955l-.78,17.947a.624.624,0,0,0,.162.456.655.655,0,0,0,.437.206.624.624,0,0,0,.661-.624L92.21,70a1.317,1.317,0,0,1,.431-.917,1.279,1.279,0,0,1,.93-.331h.087a1.317,1.317,0,0,1,.917.431,1.3,1.3,0,0,1,.343.949l-.786,17.785a.629.629,0,0,0,.6.661h.231a.624.624,0,0,0,.624-.624l.786-17.785h0a1.319,1.319,0,0,1,2.633,0c.225,4.368.624,16.562.624,19.289-.081,3.607-2.209,6.952-5.841,9.2-.112,4.418-1.71,64.47-2.091,68.17C91.449,169.68,89.888,171.3,87.442,171.3ZM84.771,68.954a.7.7,0,0,0-.693.587c-.724,4.68-2.159,15.907-2.215,19.795-.081,5.03,4.861,7.925,4.911,7.957a.3.3,0,0,1,.156.287c0,.624-3.507,62.092-3.794,66.847-.162,2.6.156,4.306.967,5.2a4.085,4.085,0,0,0,3.12,1.017c3.039.119,3.744-2.384,3.913-3.894.381-3.744,2.072-67.646,2.091-68.289a.318.318,0,0,1,.15-.262c3.538-2.134,5.616-5.336,5.685-8.737.062-2.721-.368-14.915-.624-19.245a.705.705,0,0,0-1.4,0l-.786,17.785a1.248,1.248,0,0,1-1.31,1.2h-.225a1.259,1.259,0,0,1-1.2-1.31L94.3,70.109a.693.693,0,0,0-.649-.73H93.57a.705.705,0,0,0-.736.624l-.793,17.966a1.256,1.256,0,0,1-2.509-.112l.793-17.935a.686.686,0,0,0-.181-.505.718.718,0,0,0-.487-.231H88.9a.674.674,0,0,0-.505.181.73.73,0,0,0-.231.487l-.786,17.829a1.271,1.271,0,0,1-2.54-.119L85.77,69.69a.7.7,0,0,0-.668-.705h-.3Z" transform="translate(0 -13.221)"/><path class="a" d="M289.143,85.812c-.406,7.407-.555,39.545-.356,43.009s6.927,3.12,6.927,3.12l1.186,35.5a4.218,4.218,0,0,0,4.462,4.1h0a4.225,4.225,0,0,0,3.969-4.462l-5.623-96.3a2.147,2.147,0,0,0-3.413-1.61C293.455,71.235,289.686,75.853,289.143,85.812Z" transform="translate(-77.997 -13.374)"/><path class="b" d="M300.926,171.692a4.531,4.531,0,0,1-4.524-4.412L295.228,132.1c-1.392.031-6.746-.094-6.939-3.413s-.05-35.67.356-43.059c.543-9.947,4.262-14.677,7.283-16.893a2.465,2.465,0,0,1,3.907,1.872l5.616,96.3a4.537,4.537,0,0,1-4.262,4.786Zm-5.4-40.226a.318.318,0,0,1,.212.081.3.3,0,0,1,.1.218l1.186,35.5a3.9,3.9,0,1,0,7.794-.331l-5.6-96.333a1.828,1.828,0,0,0-1.055-1.56,1.8,1.8,0,0,0-1.872.181c-2.914,2.134-6.5,6.721-7.027,16.425h0c-.406,7.364-.549,39.62-.356,42.971.181,3.12,6.534,2.821,6.6,2.814Z" transform="translate(-77.811 -13.193)"/><path class="a" d="M153.126,60.249s-3.395,12.081-6.864,16.269a16.955,16.955,0,0,1-18.366.037c-3.457-4.268-6.9-16.306-6.9-16.306h3.844a17.972,17.972,0,0,1,24.45,0Z" transform="translate(-14.949 -8.373)"/><path class="b" d="M136.885,79.363a18.172,18.172,0,0,1-9.361-2.733l-.069-.062c-3.476-4.275-6.864-15.925-6.983-16.425a.312.312,0,0,1,.05-.268.3.3,0,0,1,.25-.125h3.744a18.291,18.291,0,0,1,24.7,0h3.744a.3.3,0,0,1,.25.125.324.324,0,0,1,.05.275c-.137.493-3.451,12.188-6.9,16.381a.325.325,0,0,1-.069.062,18.028,18.028,0,0,1-9.4,2.771Zm-8.961-3.226a16.662,16.662,0,0,0,17.941-.037c3.014-3.7,6.028-13.617,6.646-15.726h-3.432a.318.318,0,0,1-.218-.094,17.673,17.673,0,0,0-24.013,0,.318.318,0,0,1-.218.094H121.2C121.834,62.47,124.891,72.367,127.924,76.136Z" transform="translate(-14.747 -8.185)"/><path class="b" d="M153.217,50.8a12.369,12.369,0,0,1-.231,2.371c-1.3,6.7-8,11.807-16.069,11.807s-14.771-5.1-16.057-11.807a12.367,12.367,0,0,1-.231-2.371c0-7.825,7.3-14.172,16.3-14.172S153.217,42.976,153.217,50.8Z" transform="translate(-14.81 -1.297)"/><path class="b" d="M136.707,65.114c-8.15,0-15.046-5.08-16.4-12.081a12.618,12.618,0,0,1-.237-2.434c0-8,7.488-14.509,16.637-14.509S153.344,42.6,153.344,50.6a12.616,12.616,0,0,1-.237,2.433C151.753,60.034,144.857,65.114,136.707,65.114Zm0-28.35c-8.805,0-15.963,6.2-15.963,13.835a11.856,11.856,0,0,0,.225,2.309c1.292,6.683,7.913,11.532,15.738,11.532s14.447-4.849,15.769-11.557a11.859,11.859,0,0,0,.225-2.309C152.67,42.967,145.512,36.764,136.707,36.764Z" transform="translate(-14.599 -1.094)"/><path class="d" d="M153.126,56.023c-1.3,6.7-8,11.807-16.069,11.807S122.286,62.725,121,56.023c1.292-6.708,7.994-11.813,16.069-11.813S151.834,49.315,153.126,56.023Z" transform="translate(-14.949 -4.147)"/><path class="b" d="M136.862,67.954c-8.113,0-15.027-5.073-16.375-12.063a.336.336,0,0,1,0-.112c1.342-7,8.231-12.069,16.375-12.069s15.033,5.073,16.394,12.069a.338.338,0,0,1,0,.112C151.889,62.881,145,67.954,136.862,67.954ZM121.111,55.835c1.323,6.665,7.932,11.495,15.751,11.495s14.428-4.83,15.769-11.495c-1.317-6.665-7.925-11.5-15.751-11.5S122.428,49.17,121.111,55.835Z" transform="translate(-14.754 -3.959)"/><circle class="b" cx="6.615" cy="6.615" r="6.615" transform="translate(144.767 46.485)"/><path class="b" d="M189.443,67.853a6.952,6.952,0,1,1,5.485-2.677A6.952,6.952,0,0,1,189.443,67.853Zm0-13.223a2.052,2.052,0,1,0,.012-.025Z" transform="translate(-38.068 -7.808)"/><circle class="b" cx="6.615" cy="6.615" r="6.615" transform="translate(161.872 48.65)"/><path class="b" d="M216.813,71.323a6.952,6.952,0,1,1,5.485-2.677h0a6.927,6.927,0,0,1-5.485,2.677Zm0-13.223a6.21,6.21,0,1,0,.037,0Zm5.211,10.34Z" transform="translate(-48.358 -9.113)"/><path class="a" d="M189.973,56.392a4,4,0,0,0,.736-2.284,1.935,1.935,0,0,0-1.654.78,5.617,5.617,0,0,0-.855,1.691,6.677,6.677,0,0,0-5.061.231,24.513,24.513,0,0,0,4.019.861c-1.1.942-1.092,2.615-.992,4.056l1.429-2.615a7.232,7.232,0,0,0,2.74,1.623c.268.087,2.5.362,2.5.349a6.939,6.939,0,0,0-2.184-2.758,13.453,13.453,0,0,1,2.44-1.248c.218-.087,1.991-.793,2.009-.78A6.571,6.571,0,0,0,189.973,56.392Z" transform="translate(-38.311 -7.867)"/><path class="b" d="M185.988,61.851h-.069a.318.318,0,0,1-.243-.281,5.9,5.9,0,0,1,.668-3.857,24.561,24.561,0,0,1-3.476-.793.324.324,0,0,1-.218-.275.318.318,0,0,1,.181-.306A6.939,6.939,0,0,1,187.823,56a5.349,5.349,0,0,1,.8-1.5,2.259,2.259,0,0,1,1.928-.892.318.318,0,0,1,.281.312,4.368,4.368,0,0,1-.362,1.71,6.665,6.665,0,0,1,4.587.187h0a.312.312,0,0,1-.069.587c-.162.05-1.248.481-1.672.624l-.287.112a13.821,13.821,0,0,0-2.022.992,7.189,7.189,0,0,1,1.935,2.608.318.318,0,0,1-.056.337c-.237.262-2.821-.262-2.839-.268a7.626,7.626,0,0,1-2.559-1.417l-1.248,2.265A.318.318,0,0,1,185.988,61.851Zm1.429-3.239a.312.312,0,0,1,.218.087,6.79,6.79,0,0,0,2.621,1.548c.156.05,1.217.193,1.872.281a6.627,6.627,0,0,0-1.872-2.14.318.318,0,0,1,0-.512,13.486,13.486,0,0,1,2.5-1.286l.287-.112.936-.368a6.6,6.6,0,0,0-4.119.381.312.312,0,0,1-.374-.468,3.7,3.7,0,0,0,.655-1.791,1.835,1.835,0,0,0-1.03.661,5.473,5.473,0,0,0-.8,1.61.306.306,0,0,1-.4.181,6.3,6.3,0,0,0-3.969-.106,25.892,25.892,0,0,0,3.07.624.306.306,0,0,1,.262.218.318.318,0,0,1-.1.325,3.452,3.452,0,0,0-.917,2.671l.88-1.616a.312.312,0,0,1,.231-.162Z" transform="translate(-38.126 -7.679)"/><path class="a" d="M222.2,64.258A3.994,3.994,0,0,0,222.93,62a1.953,1.953,0,0,0-1.654.774,5.866,5.866,0,0,0-.855,1.7,6.652,6.652,0,0,0-5.061.231,24.648,24.648,0,0,0,4.019.861c-1.1.942-1.086,2.615-.992,4.056L219.822,67a7.033,7.033,0,0,0,2.74,1.623c.262.094,2.5.368,2.5.356a6.814,6.814,0,0,0-2.184-2.764,13.511,13.511,0,0,1,2.446-1.248c.212-.081,1.984-.786,2.009-.78a6.6,6.6,0,0,0-5.13.075Z" transform="translate(-50.424 -10.834)"/><path class="b" d="M218.2,69.705h-.062a.324.324,0,0,1-.25-.287,5.885,5.885,0,0,1,.674-3.85,25.456,25.456,0,0,1-3.476-.786.324.324,0,0,1-.225-.275.312.312,0,0,1,.181-.306,6.864,6.864,0,0,1,4.992-.343,5.33,5.33,0,0,1,.793-1.5,2.271,2.271,0,0,1,1.935-.892.312.312,0,0,1,.275.312,4.237,4.237,0,0,1-.362,1.7,6.677,6.677,0,0,1,4.593.193h0a.312.312,0,0,1-.069.587c-.162.056-1.248.487-1.672.624l-.287.112a13.511,13.511,0,0,0-2.022.992A7.189,7.189,0,0,1,225.15,68.6a.293.293,0,0,1-.056.331c-.237.262-2.814-.256-2.839-.262a7.6,7.6,0,0,1-2.559-1.423l-1.248,2.272A.318.318,0,0,1,218.2,69.705Zm1.435-3.245a.324.324,0,0,1,.218.087,6.752,6.752,0,0,0,2.621,1.554c.15.05,1.211.193,1.872.275a6.54,6.54,0,0,0-1.872-2.14.312.312,0,0,1,0-.512,13.654,13.654,0,0,1,2.5-1.279l.281-.112.936-.374a6.621,6.621,0,0,0-4.112.387.318.318,0,0,1-.368-.094.312.312,0,0,1,0-.374,3.663,3.663,0,0,0,.73-1.791,1.816,1.816,0,0,0-1.086.661,5.617,5.617,0,0,0-.8,1.6.312.312,0,0,1-.4.187,6.24,6.24,0,0,0-3.969-.106,24.674,24.674,0,0,0,3.07.624.312.312,0,0,1,.168.549,3.464,3.464,0,0,0-.924,2.665l.886-1.616a.312.312,0,0,1,.225-.156Z" transform="translate(-50.236 -10.634)"/><circle class="b" cx="5.011" cy="5.011" r="5.011" transform="translate(153.553 63.365)"/><path class="b" d="M201.924,91.7a5.345,5.345,0,1,1,4.225-2.059h0A5.36,5.36,0,0,1,201.924,91.7Zm0-9.985a1.519,1.519,0,1,0,.012-.031Zm3.944,7.751Z" transform="translate(-43.366 -17.982)"/><path class="a" d="M206.038,86.3a3,3,0,0,0,.555-1.729,1.485,1.485,0,0,0-1.248.587,4.437,4.437,0,0,0-.624,1.286,5.036,5.036,0,0,0-3.832.175,19.382,19.382,0,0,0,3.039.655c-.83.711-.824,1.978-.749,3.07l1.086-1.984a5.386,5.386,0,0,0,2.072,1.248c.206.069,1.91.275,1.872.268a5.211,5.211,0,0,0-1.635-2.109,10.569,10.569,0,0,1,1.872-.955c.168-.062,1.51-.624,1.523-.587A4.992,4.992,0,0,0,206.038,86.3Z" transform="translate(-44.984 -19.32)"/><path class="b" d="M202.952,90.468h-.069a.325.325,0,0,1-.243-.287,4.712,4.712,0,0,1,.456-2.864,19.271,19.271,0,0,1-2.527-.58.306.306,0,0,1-.218-.275.312.312,0,0,1,.175-.306,5.317,5.317,0,0,1,3.782-.281,3.806,3.806,0,0,1,.593-1.092,1.76,1.76,0,0,1,1.529-.705.318.318,0,0,1,.275.312,3.32,3.32,0,0,1-.218,1.179,4.992,4.992,0,0,1,3.376.193h0a.318.318,0,0,1-.062.587c-.131.044-.942.362-1.248.481l-.225.094a10.077,10.077,0,0,0-1.429.693,5.554,5.554,0,0,1,1.4,1.935.306.306,0,0,1-.056.331c-.231.256-2.215-.175-2.234-.181a5.816,5.816,0,0,1-1.872-1.03l-.886,1.635A.318.318,0,0,1,202.952,90.468Zm1.086-2.608a.325.325,0,0,1,.218.087,4.992,4.992,0,0,0,1.953,1.154c.112.037.768.125,1.248.193a4.818,4.818,0,0,0-1.3-1.466.331.331,0,0,1-.125-.262.318.318,0,0,1,.144-.25,10.5,10.5,0,0,1,1.872-.98l.231-.087.468-.187a4.992,4.992,0,0,0-2.833.337.312.312,0,0,1-.374-.468,2.752,2.752,0,0,0,.474-1.248,1.373,1.373,0,0,0-.68.456,4.131,4.131,0,0,0-.593,1.2.312.312,0,0,1-.4.181,4.743,4.743,0,0,0-2.683-.156,17.521,17.521,0,0,0,2.041.381.312.312,0,0,1,.162.543,2.321,2.321,0,0,0-.605,1.679l.518-.942a.293.293,0,0,1,.225-.156Z" transform="translate(-44.781 -19.134)"/></g></g></svg>