<svg xmlns="http://www.w3.org/2000/svg" width="33.655" height="30" viewBox="0 0 33.655 30"><defs><style>.a{fill:#c5c5c5;}</style></defs><g transform="translate(-19 -33.234)"><g transform="translate(19 33.234)"><path class="a" d="M194.685,37.631l-20.612-4.362a1.625,1.625,0,0,0-1.921,1.25l-.392,2.517,23.783,5.033.392-2.517A1.625,1.625,0,0,0,194.685,37.631Z" transform="translate(-162.314 -33.234)"/><path class="a" d="M23.7,169.135A1.641,1.641,0,0,0,21.689,168l-3.913,1.086L8.551,167.13l-1.015,4.793L1.2,173.683A1.64,1.64,0,0,0,.059,175.7l3.572,12.873a1.641,1.641,0,0,0,2.014,1.139l20.491-5.686a1.641,1.641,0,0,0,1.139-2.014l-.613-2.21,2.3.486a1.625,1.625,0,0,0,1.921-1.25l1.454-6.871-8.278-1.752Zm2.366,6.542.507-2.4a.669.669,0,0,1,.79-.514l2.4.507a.669.669,0,0,1,.515.79l-.507,2.4a.669.669,0,0,1-.79.514l-2.4-.507A.669.669,0,0,1,26.068,175.677Zm-24.514-.71,5.671-1.573,13.38-3.713,1.44-.4a.3.3,0,0,1,.078-.01.309.309,0,0,1,.294.221l.169.609.53,1.908L2.043,177.857l-.7-2.517A.307.307,0,0,1,1.554,174.967Zm24.435,7.4a.307.307,0,0,1-.21.372l-20.49,5.686a.3.3,0,0,1-.078.011.309.309,0,0,1-.294-.221L2.833,180.7l21.072-5.848,1.285,4.631Z" transform="translate(0 -159.767)"/><path class="a" d="M92.759,445.09a.669.669,0,0,0-.821-.464l-2.393.664a.669.669,0,0,0-.464.821l.664,2.393a.669.669,0,0,0,.821.464l2.393-.664a.669.669,0,0,0,.464-.821Z" transform="translate(-84.16 -421.979)"/></g></g></svg>