<svg width="24" height="37" viewBox="0 0 24 37" fill="none" xmlns="http://www.w3.org/2000/svg">
<path d="M4.88646 23.4947C4.88646 26.2354 5.46806 28.5299 6.63124 30.3782C7.79442 32.2266 9.6587 33.1507 12.2241 33.1507C14.2158 33.1507 15.8491 32.2983 17.1238 30.5933C18.4144 28.8725 19.0598 26.4107 19.0598 23.2079C19.0598 19.9733 18.3985 17.5832 17.076 16.0376C15.7534 14.4761 14.1202 13.6953 12.1763 13.6953C10.0092 13.6953 8.24854 14.5239 6.89415 16.181C5.55569 17.8382 4.88646 20.2761 4.88646 23.4947ZM11.3636 9.94287C13.3235 9.94287 14.9647 10.3572 16.2872 11.1857C17.0521 11.6637 17.9205 12.5003 18.8924 13.6953V0.764893H23.0273V35.995H19.1554V32.4337C18.1515 34.0112 16.9644 35.1505 15.5941 35.8516C14.2238 36.5526 12.6543 36.9032 10.8856 36.9032C8.03343 36.9032 5.56366 35.7081 3.47631 33.318C1.38895 30.912 0.345276 27.7172 0.345276 23.7337C0.345276 20.0052 1.29335 16.7786 3.18949 14.0538C5.10157 11.3132 7.82629 9.94287 11.3636 9.94287Z" fill="black"/>
</svg>
