<svg width="26" height="30" viewBox="0 0 26 30" fill="none" xmlns="http://www.w3.org/2000/svg">
<path fill-rule="evenodd" clip-rule="evenodd" d="M23.7405 20.0836C23.5564 20.8197 23.2294 21.6164 22.7597 22.4737C22.1382 23.621 21.4372 24.5611 20.6564 25.294C19.3498 26.5687 17.7325 27.4292 15.8045 27.8753C14.7688 28.1303 13.5976 28.2577 12.291 28.2577C9.10424 28.2577 6.40343 27.1025 4.1886 24.7921C1.97378 22.4657 0.866364 19.2152 0.866364 15.0405C0.866364 10.9295 1.98174 7.59135 4.2125 5.02598C6.44326 2.4606 9.35918 1.17792 12.9603 1.17792C14.7767 1.17792 16.5374 1.60814 18.2424 2.46857C19.9473 3.31307 21.2459 4.41252 22.1382 5.76691C22.9987 7.05756 23.5723 8.56332 23.8591 10.2842C24.0882 11.3436 24.2143 12.9688 24.2376 15.16C24.2402 15.4077 24.2415 15.6627 24.2415 15.9248H5.47926C5.48723 16.1849 5.50056 16.4398 5.51924 16.6897C5.68713 18.935 6.28726 20.7674 7.31963 22.1869C8.46688 23.7484 10.2435 24.5292 12.6496 24.5292C14.8962 24.5292 16.6888 23.7883 18.0273 22.3064C18.7921 21.446 19.3339 20.4501 19.6525 19.3188H23.883C23.8537 19.566 23.8062 19.8209 23.7405 20.0836ZM17.4577 21.796C18.1429 21.0244 18.6287 20.1327 18.9164 19.1114L19.0734 18.5539H24.744L24.6425 19.4089C24.5159 20.4765 24.0977 21.6231 23.4313 22.8397C22.7806 24.0405 22.0345 25.0481 21.1852 25.8466C19.7722 27.2232 18.0299 28.1445 15.9822 28.6192C14.8764 28.8909 13.6439 29.0226 12.291 29.0226C8.89477 29.0226 5.99485 27.7815 3.63648 25.3214L3.63466 25.3195C1.24761 22.8122 0.101532 19.3507 0.101532 15.0405C0.101532 10.7854 1.25948 7.25638 3.63536 4.52411C6.02088 1.78076 9.15271 0.413086 12.9603 0.413086C14.9017 0.413086 16.7791 0.873814 18.5844 1.78448C20.3876 2.67809 21.7974 3.86008 22.7757 5.34429C23.6996 6.73064 24.3073 8.33432 24.6106 10.1406C24.8812 11.4051 25.0064 13.3484 25.0064 15.9248V16.6897H6.28629C6.45208 18.804 7.0178 20.4708 7.93701 21.7354C8.9053 23.0524 10.422 23.7644 12.6496 23.7644C14.7088 23.7644 16.2834 23.0948 17.4577 21.796ZM17.9368 8.41697L17.9362 8.41586C16.9168 6.62502 15.2306 5.69521 12.6974 5.69521C10.9318 5.69521 9.4777 6.32551 8.28508 7.60332L8.28216 7.60643C7.24667 8.70356 6.61988 10.0698 6.4232 11.7422H18.9598C18.7597 10.3454 18.4105 9.24587 17.9368 8.41697ZM19.7321 11.7422C19.7659 11.9897 19.7952 12.2446 19.8199 12.507H5.59876C5.6082 12.2466 5.62646 11.9916 5.65355 11.7422C5.85521 9.8852 6.54601 8.33164 7.72595 7.08146C9.0644 5.6474 10.7215 4.93037 12.6974 4.93037C15.4539 4.93037 17.4218 5.96608 18.6009 8.0375C19.1486 8.99591 19.5256 10.2308 19.7321 11.7422Z" fill="black"/>
</svg>
