<svg width="25" height="28" viewBox="0 0 25 28" fill="none" xmlns="http://www.w3.org/2000/svg">
<path d="M12.9603 0.177979C14.7767 0.177979 16.5374 0.608196 18.2424 1.46863C19.9473 2.31313 21.2459 3.41258 22.1382 4.76697C22.9987 6.05762 23.5723 7.56339 23.8591 9.28426C24.1141 10.4634 24.2415 12.3436 24.2415 14.9249H5.47926C5.55893 17.5221 6.17238 19.6095 7.31963 21.187C8.46688 22.7485 10.2435 23.5292 12.6496 23.5292C14.8962 23.5292 16.6888 22.7883 18.0273 21.3065C18.7921 20.446 19.3339 19.4501 19.6525 18.3188H23.883C23.7715 19.2589 23.397 20.3106 22.7597 21.4738C22.1382 22.621 21.4372 23.5611 20.6564 24.2941C19.3498 25.5688 17.7325 26.4292 15.8045 26.8754C14.7688 27.1303 13.5976 27.2578 12.291 27.2578C9.10424 27.2578 6.40343 26.1026 4.1886 23.7922C1.97378 21.4658 0.866364 18.2153 0.866364 14.0406C0.866364 9.92958 1.98174 6.59141 4.2125 4.02604C6.44326 1.46066 9.35918 0.177979 12.9603 0.177979ZM19.8199 11.507C19.6446 9.64277 19.2383 8.15294 18.6009 7.03756C17.4218 4.96614 15.4539 3.93043 12.6974 3.93043C10.7215 3.93043 9.0644 4.64746 7.72595 6.08152C6.38749 7.49965 5.67843 9.30816 5.59876 11.507H19.8199Z" fill="black"/>
</svg>
