<svg xmlns="http://www.w3.org/2000/svg" xmlns:xlink="http://www.w3.org/1999/xlink" width="60" height="60" viewBox="0 0 60 60"><defs><style>.a{fill:url(#a);}.b,.c,.d{fill:#fff;}.b{opacity:0.3;}.c{opacity:0.5;}</style><linearGradient id="a" x1="-0.105" y1="-0.083" x2="1.021" y2="1.003" gradientUnits="objectBoundingBox"><stop offset="0" stop-color="#253b80"/><stop offset="1" stop-color="#179bd7"/></linearGradient></defs><rect class="a" width="60" height="60" rx="6.48"/><path class="b" d="M29.525,10.5l-.1.6c-1.372,7-6.027,9.415-11.992,9.415H14.4a1.476,1.476,0,0,0-1.455,1.247l-1.559,9.851L10.945,34.4a.769.769,0,0,0,.769.894H17.1a1.289,1.289,0,0,0,1.289-1.081v-.27l1-6.422v-.353a1.289,1.289,0,0,1,1.289-1.1h.811c5.216,0,9.29-2.078,10.391-8.313a7.025,7.025,0,0,0-1.081-6.235A5.133,5.133,0,0,0,29.525,10.5Z" transform="translate(11.791 11.322)"/><path class="c" d="M27.018,10.478l-.644-.166-.686-.125A16.834,16.834,0,0,0,23.028,10H14.923a1.289,1.289,0,0,0-1.268,1.1L11.93,22.013v.312a1.476,1.476,0,0,1,1.455-1.247h3.034c5.965,0,10.62-2.411,11.992-9.415a1.2,1.2,0,0,1,.1-.6,7.253,7.253,0,0,0-1.122-.478Z" transform="translate(12.864 10.782)"/><path class="d" d="M18.243,14.984a1.289,1.289,0,0,1,1.268-1.1h8.105a16.835,16.835,0,0,1,2.681.187l.686.125.644.166h.312a7.357,7.357,0,0,1,1.122.478,6.609,6.609,0,0,0-1.392-5.944C30.131,7.149,27.346,6.38,23.792,6.38H13.4a1.476,1.476,0,0,0-1.455,1.247L7.665,35.04a.894.894,0,0,0,.873,1.018h6.38l1.6-10.163Z" transform="translate(8.255 6.879)"/></svg>