<svg width="22" height="28" viewBox="0 0 22 28" fill="none" xmlns="http://www.w3.org/2000/svg">
<path d="M0.635468 1.51649H4.72254V5.14945C5.93352 3.65165 7.21621 2.57611 8.5706 1.92281C9.92499 1.26952 11.4307 0.942871 13.0879 0.942871C16.7208 0.942871 19.1747 2.20962 20.4494 4.74313C21.1505 6.12939 21.501 8.11317 21.501 10.6945V27.1145H17.1272V10.9813C17.1272 9.41976 16.8961 8.16097 16.434 7.20493C15.6692 5.61153 14.2829 4.81483 12.2753 4.81483C11.2555 4.81483 10.4189 4.9184 9.76565 5.12555C8.58653 5.47609 7.55082 6.17719 6.65852 7.22883C5.94149 8.07333 5.47144 8.9497 5.24836 9.85794C5.04122 10.7502 4.93765 12.0329 4.93765 13.706V27.1145H0.635468V1.51649Z" fill="black"/>
</svg>
